<svg width="65" height="64" viewBox="0 0 65 64" fill="none" xmlns="http://www.w3.org/2000/svg">
<g clip-path="url(#clip0_4414_7327)">
<path d="M60.8734 26.9857C57.9665 26.4316 52.6177 26.0982 50.589 28.1551C48.5274 30.3575 49.1238 34.2317 48.3161 37.0494C46.7242 44.023 40.206 48.8083 33.0915 48.6862C25.761 49.0713 18.9376 44.4644 17.1672 37.2748C16.1998 34.1989 17.0827 29.578 14.1664 27.5962C12.8421 26.765 11.0717 26.6664 9.51264 26.6148C2.33707 26.225 0.378815 28.6857 1.14427 35.5983C3.78815 66.0005 44.3949 74.2844 60.0422 48.921C61.9769 45.7042 63.2777 42.1117 63.9117 38.4159C64.494 34.6826 65.5506 28.31 60.9814 27.0186L60.8734 26.9904V26.9857Z" fill="#22244E"/>
<path d="M58.3324 0.786499H55.2142C51.8426 0.786499 49.1094 3.51974 49.1094 6.89137V10.0612C49.1094 13.4328 51.8426 16.1661 55.2142 16.1661H58.3324C61.704 16.1661 64.4373 13.4328 64.4373 10.0612V6.89137C64.4373 3.51974 61.704 0.786499 58.3324 0.786499Z" fill="#22244E"/>
<path d="M10.2221 0.786499H7.10389C3.73227 0.786499 0.999023 3.51974 0.999023 6.89137V10.0612C0.999023 13.4328 3.73227 16.1661 7.10389 16.1661H10.2221C13.5937 16.1661 16.3269 13.4328 16.3269 10.0612V6.89137C16.3269 3.51974 13.5937 0.786499 10.2221 0.786499Z" fill="#22244E"/>
</g>
<defs>
<clipPath id="clip0_4414_7327">
<rect width="63.4578" height="63.1572" fill="white" transform="translate(0.989258 0.786499)"/>
</clipPath>
</defs>
</svg>
