<svg width="345" height="344" viewBox="0 0 345 344" fill="none" xmlns="http://www.w3.org/2000/svg">
<circle cx="172.483" cy="171.464" r="165.102" stroke="#FDCF49" stroke-width="3.88475" stroke-dasharray="15.54 15.54"/>
<path d="M166.125 173.22L226.491 277.777C168.746 311.117 94.9069 291.332 61.5675 233.586C35.4152 188.289 41.4046 131.304 76.4032 92.4342L166.125 173.22Z" fill="#FDCF49"/>
<path d="M122.264 217.767H120.85V219.803H118.472V217.767H112.754V215.561L117.711 208.304H120.85V215.561H122.264V217.767ZM115.426 215.561H118.472V211.086L115.426 215.561ZM127.286 219.99C124.816 219.99 123.168 218.405 123.168 216.027H125.655C125.655 217.115 126.292 217.767 127.348 217.767C128.483 217.767 129.182 217.037 129.182 215.825C129.182 214.644 128.529 213.945 127.395 213.945C126.618 213.945 125.919 214.349 125.639 214.908L123.339 214.473L124.784 208.304H131.031V210.635H126.587L126.136 212.313C126.634 212.018 127.271 211.863 127.97 211.863C130.208 211.863 131.761 213.339 131.761 215.67C131.761 218.249 129.943 219.99 127.286 219.99ZM138.775 211.21C138.775 213.044 137.485 214.333 135.667 214.333C133.849 214.333 132.559 213.044 132.559 211.21C132.559 209.376 133.849 208.087 135.667 208.087C137.485 208.087 138.775 209.376 138.775 211.21ZM145.363 208.335L136.63 219.803H134.284L143.017 208.335H145.363ZM136.91 211.21C136.91 210.433 136.413 209.889 135.667 209.889C134.921 209.889 134.424 210.433 134.424 211.21C134.424 211.987 134.921 212.531 135.667 212.531C136.413 212.531 136.91 211.987 136.91 211.21ZM147.119 216.882C147.119 218.715 145.829 220.005 144.011 220.005C142.193 220.005 140.903 218.715 140.903 216.882C140.903 215.048 142.193 213.758 144.011 213.758C145.829 213.758 147.119 215.048 147.119 216.882ZM145.254 216.882C145.254 216.105 144.757 215.561 144.011 215.561C143.265 215.561 142.768 216.105 142.768 216.882C142.768 217.659 143.265 218.203 144.011 218.203C144.757 218.203 145.254 217.659 145.254 216.882Z" fill="#1F0229"/>
<path d="M169.748 168.391L80.0267 87.6048C124.643 38.0528 200.982 34.0521 250.534 78.6689L169.748 168.391Z" fill="white"/>
<path d="M176.992 167.183L257.777 77.4616C286.498 103.322 301.102 141.368 297.063 179.803L176.992 167.183Z" fill="#FF9900"/>
<path d="M174.577 170.805L294.648 183.425C293.324 196.025 290.025 208.338 284.872 219.912L174.577 170.805Z" fill="#B0A176"/>
<path d="M173.369 174.427L283.664 223.533C278.511 235.107 271.568 245.798 263.091 255.213L173.369 174.427Z" fill="#FFBE00"/>
<path d="M172.163 176.842L261.884 257.628C253.407 267.043 243.501 275.065 232.529 281.4L172.163 176.842Z" fill="#FFEBAF"/>
<path d="M159.283 86.9664L151.078 86.9974V85.1328L154.87 81.9783C156.097 80.9683 156.61 80.2535 156.61 79.3056C156.61 78.1402 156.035 77.5187 155.009 77.5187C153.937 77.5187 153.316 78.249 153.316 79.5387H150.814C150.814 76.9593 152.461 75.281 154.994 75.281C157.62 75.281 159.189 76.6951 159.189 79.1502C159.189 80.7197 158.242 81.9939 156.812 83.1904L155.087 84.6355H159.283V86.9664ZM164.235 87.1839C161.764 87.1839 160.117 85.5989 160.117 83.2215H162.603C162.603 84.3092 163.24 84.9618 164.297 84.9618C165.431 84.9618 166.131 84.2315 166.131 83.0195C166.131 81.8385 165.478 81.1392 164.344 81.1392C163.567 81.1392 162.868 81.5433 162.588 82.1027L160.288 81.6676L161.733 75.4986H167.98V77.8294H163.536L163.085 79.5076C163.582 79.2124 164.219 79.057 164.919 79.057C167.156 79.057 168.71 80.5332 168.71 82.8641C168.71 85.4435 166.892 87.1839 164.235 87.1839ZM175.723 78.4044C175.723 80.238 174.434 81.5277 172.616 81.5277C170.798 81.5277 169.508 80.238 169.508 78.4044C169.508 76.5708 170.798 75.281 172.616 75.281C174.434 75.281 175.723 76.5708 175.723 78.4044ZM182.312 75.5297L173.579 86.9974H171.233L179.966 75.5297H182.312ZM173.859 78.4044C173.859 77.6274 173.361 77.0836 172.616 77.0836C171.87 77.0836 171.372 77.6274 171.372 78.4044C171.372 79.1813 171.87 79.7252 172.616 79.7252C173.361 79.7252 173.859 79.1813 173.859 78.4044ZM184.068 84.0761C184.068 85.9097 182.778 87.1994 180.96 87.1994C179.142 87.1994 177.852 85.9097 177.852 84.0761C177.852 82.2425 179.142 80.9528 180.96 80.9528C182.778 80.9528 184.068 82.2425 184.068 84.0761ZM182.203 84.0761C182.203 83.2992 181.706 82.7553 180.96 82.7553C180.214 82.7553 179.717 83.2992 179.717 84.0761C179.717 84.8531 180.214 85.3969 180.96 85.3969C181.706 85.3969 182.203 84.8531 182.203 84.0761Z" fill="#1F0229"/>
<path d="M238.104 133.289H235.493V131.036H240.512V142.535H238.104V133.289ZM246.227 142.721C243.756 142.721 242.109 141.136 242.109 138.759H244.595C244.595 139.846 245.233 140.499 246.289 140.499C247.424 140.499 248.123 139.769 248.123 138.557C248.123 137.376 247.47 136.676 246.336 136.676C245.559 136.676 244.86 137.08 244.58 137.64L242.28 137.205L243.725 131.036H249.972V133.367H245.528L245.077 135.045C245.574 134.75 246.211 134.594 246.911 134.594C249.148 134.594 250.702 136.07 250.702 138.401C250.702 140.981 248.884 142.721 246.227 142.721ZM257.715 133.941C257.715 135.775 256.426 137.065 254.608 137.065C252.79 137.065 251.5 135.775 251.5 133.941C251.5 132.108 252.79 130.818 254.608 130.818C256.426 130.818 257.715 132.108 257.715 133.941ZM264.304 131.067L255.571 142.535H253.225L261.958 131.067H264.304ZM255.851 133.941C255.851 133.165 255.354 132.621 254.608 132.621C253.862 132.621 253.365 133.165 253.365 133.941C253.365 134.718 253.862 135.262 254.608 135.262C255.354 135.262 255.851 134.718 255.851 133.941ZM266.06 139.613C266.06 141.447 264.77 142.737 262.952 142.737C261.134 142.737 259.844 141.447 259.844 139.613C259.844 137.78 261.134 136.49 262.952 136.49C264.77 136.49 266.06 137.78 266.06 139.613ZM264.195 139.613C264.195 138.836 263.698 138.292 262.952 138.292C262.206 138.292 261.709 138.836 261.709 139.613C261.709 140.39 262.206 140.934 262.952 140.934C263.698 140.934 264.195 140.39 264.195 139.613Z" fill="#1F0229"/>
</svg>
