<svg width="335" height="335" viewBox="0 0 335 335" fill="none" xmlns="http://www.w3.org/2000/svg">
<path d="M162.186 166.809L49.3467 197.044C39.6682 160.923 47.8667 122.353 71.4 93.2913L162.186 166.809Z" fill="#FF9900"/>
<path d="M168.188 159.994L77.4014 86.4767C118.004 36.3367 191.565 28.6051 241.705 69.2077C251.232 76.9223 259.485 86.0883 266.162 96.3692L168.188 159.994Z" fill="#F9F5E5"/>
<path d="M173.379 165.997L271.353 102.372C284.789 123.062 291.331 147.475 290.04 172.111L173.379 165.997Z" fill="#FEEBB7"/>
<path d="M168.188 173.622L284.848 179.736C281.472 244.166 226.504 293.659 162.074 290.283C111.534 287.634 68.447 252.743 55.3483 203.858L168.188 173.622Z" fill="#FDD86E"/>
<path d="M158.943 95.8416H157.265V94.2255C157.296 94.1944 157.327 94.1789 157.358 94.1478L159.86 91.9568H155.524V89.7503H163.014V91.7548L160.59 93.8837C162.144 94.3498 163.403 95.593 163.403 97.5509C163.403 99.9749 161.445 101.451 159.114 101.451C156.876 101.451 154.996 100.084 154.996 97.4887H157.482C157.482 98.6231 158.166 99.2291 159.176 99.2291C160.155 99.2291 160.823 98.5609 160.823 97.5353C160.823 96.6185 160.295 95.8416 158.943 95.8416ZM164.293 95.5308C164.293 91.9724 166.313 89.5327 169.312 89.5327C172.311 89.5327 174.331 91.9724 174.331 95.5308C174.331 99.0892 172.467 101.451 169.312 101.451C166.158 101.451 164.293 99.0892 164.293 95.5308ZM166.779 95.5308C166.779 98.0015 167.712 99.2446 169.312 99.2446C170.913 99.2446 171.845 98.0015 171.845 95.5308C171.845 92.9824 170.913 91.7393 169.312 91.7393C167.712 91.7393 166.779 92.9824 166.779 95.5308ZM181.507 92.6561C181.507 94.4897 180.217 95.7794 178.399 95.7794C176.581 95.7794 175.291 94.4897 175.291 92.6561C175.291 90.8225 176.581 89.5327 178.399 89.5327C180.217 89.5327 181.507 90.8225 181.507 92.6561ZM188.095 89.7814L179.363 101.249H177.016L185.749 89.7814H188.095ZM179.642 92.6561C179.642 91.8791 179.145 91.3353 178.399 91.3353C177.653 91.3353 177.156 91.8791 177.156 92.6561C177.156 93.433 177.653 93.9769 178.399 93.9769C179.145 93.9769 179.642 93.433 179.642 92.6561ZM189.851 98.3278C189.851 100.161 188.562 101.451 186.744 101.451C184.926 101.451 183.636 100.161 183.636 98.3278C183.636 96.4942 184.926 95.2045 186.744 95.2045C188.562 95.2045 189.851 96.4942 189.851 98.3278ZM187.987 98.3278C187.987 97.5509 187.489 97.007 186.744 97.007C185.998 97.007 185.5 97.5509 185.5 98.3278C185.5 99.1048 185.998 99.6486 186.744 99.6486C187.489 99.6486 187.987 99.1048 187.987 98.3278Z" fill="#1F0229"/>
<path d="M164.844 231.458H163.43V233.494H161.053V231.458H155.334V229.252L160.291 221.995H163.43V229.252H164.844V231.458ZM158.007 229.252H161.053V224.777L158.007 229.252ZM169.867 233.68C167.396 233.68 165.749 232.096 165.749 229.718H168.235C168.235 230.806 168.872 231.458 169.929 231.458C171.063 231.458 171.763 230.728 171.763 229.516C171.763 228.335 171.11 227.636 169.976 227.636C169.199 227.636 168.499 228.04 168.22 228.599L165.92 228.164L167.365 221.995H173.612V224.326H169.168L168.717 226.004C169.214 225.709 169.851 225.554 170.55 225.554C172.788 225.554 174.342 227.03 174.342 229.361C174.342 231.94 172.524 233.68 169.867 233.68ZM181.355 224.901C181.355 226.735 180.065 228.024 178.247 228.024C176.429 228.024 175.14 226.735 175.14 224.901C175.14 223.067 176.429 221.778 178.247 221.778C180.065 221.778 181.355 223.067 181.355 224.901ZM187.944 222.026L179.211 233.494H176.864L185.597 222.026H187.944ZM179.491 224.901C179.491 224.124 178.993 223.58 178.247 223.58C177.502 223.58 177.004 224.124 177.004 224.901C177.004 225.678 177.502 226.222 178.247 226.222C178.993 226.222 179.491 225.678 179.491 224.901ZM189.7 230.573C189.7 232.406 188.41 233.696 186.592 233.696C184.774 233.696 183.484 232.406 183.484 230.573C183.484 228.739 184.774 227.449 186.592 227.449C188.41 227.449 189.7 228.739 189.7 230.573ZM187.835 230.573C187.835 229.796 187.338 229.252 186.592 229.252C185.846 229.252 185.349 229.796 185.349 230.573C185.349 231.35 185.846 231.894 186.592 231.894C187.338 231.894 187.835 231.35 187.835 230.573Z" fill="#1F0229"/>
<path d="M80.8495 151.23H78.239V148.977H83.2581V160.475H80.8495V151.23ZM88.9727 160.662C86.502 160.662 84.8548 159.077 84.8548 156.699H87.3411C87.3411 157.787 87.9782 158.44 89.0348 158.44C90.1692 158.44 90.8684 157.71 90.8684 156.497C90.8684 155.317 90.2158 154.617 89.0814 154.617C88.3045 154.617 87.6052 155.021 87.3255 155.581L85.0258 155.146L86.4709 148.977H92.7176V151.307H88.2734L87.8228 152.986C88.32 152.69 88.9571 152.535 89.6564 152.535C91.894 152.535 93.4479 154.011 93.4479 156.342C93.4479 158.922 91.6298 160.662 88.9727 160.662ZM100.461 151.882C100.461 153.716 99.1713 155.006 97.3533 155.006C95.5352 155.006 94.2455 153.716 94.2455 151.882C94.2455 150.049 95.5352 148.759 97.3533 148.759C99.1713 148.759 100.461 150.049 100.461 151.882ZM107.05 149.008L98.3167 160.475H95.9703L104.703 149.008H107.05ZM98.5964 151.882C98.5964 151.105 98.0991 150.562 97.3533 150.562C96.6074 150.562 96.1102 151.105 96.1102 151.882C96.1102 152.659 96.6074 153.203 97.3533 153.203C98.0991 153.203 98.5964 152.659 98.5964 151.882ZM108.806 157.554C108.806 159.388 107.516 160.677 105.698 160.677C103.88 160.677 102.59 159.388 102.59 157.554C102.59 155.721 103.88 154.431 105.698 154.431C107.516 154.431 108.806 155.721 108.806 157.554ZM106.941 157.554C106.941 156.777 106.444 156.233 105.698 156.233C104.952 156.233 104.455 156.777 104.455 157.554C104.455 158.331 104.952 158.875 105.698 158.875C106.444 158.875 106.941 158.331 106.941 157.554Z" fill="#1F0229"/>
<path d="M237.343 143.928H234.732V141.675H239.751V153.173H237.343V143.928ZM241.547 147.455C241.547 143.897 243.567 141.457 246.566 141.457C249.565 141.457 251.585 143.897 251.585 147.455C251.585 151.014 249.72 153.375 246.566 153.375C243.411 153.375 241.547 151.014 241.547 147.455ZM244.033 147.455C244.033 149.926 244.965 151.169 246.566 151.169C248.166 151.169 249.099 149.926 249.099 147.455C249.099 144.907 248.166 143.664 246.566 143.664C244.965 143.664 244.033 144.907 244.033 147.455ZM258.76 144.58C258.76 146.414 257.471 147.704 255.652 147.704C253.834 147.704 252.545 146.414 252.545 144.58C252.545 142.747 253.834 141.457 255.652 141.457C257.471 141.457 258.76 142.747 258.76 144.58ZM265.349 141.706L256.616 153.173H254.269L263.002 141.706H265.349ZM256.896 144.58C256.896 143.803 256.398 143.26 255.652 143.26C254.907 143.26 254.409 143.803 254.409 144.58C254.409 145.357 254.907 145.901 255.652 145.901C256.398 145.901 256.896 145.357 256.896 144.58ZM267.105 150.252C267.105 152.086 265.815 153.375 263.997 153.375C262.179 153.375 260.889 152.086 260.889 150.252C260.889 148.419 262.179 147.129 263.997 147.129C265.815 147.129 267.105 148.419 267.105 150.252ZM265.24 150.252C265.24 149.475 264.743 148.931 263.997 148.931C263.251 148.931 262.754 149.475 262.754 150.252C262.754 151.029 263.251 151.573 263.997 151.573C264.743 151.573 265.24 151.029 265.24 150.252Z" fill="#1F0229"/>
<circle cx="167.937" cy="167.044" r="165.102" stroke="#FDCF49" stroke-width="3.88475" stroke-dasharray="15.54 15.54"/>
</svg>
