<svg width="336" height="335" viewBox="0 0 336 335" fill="none" xmlns="http://www.w3.org/2000/svg">
<path d="M170.878 172.557V53.4293C236.67 53.4293 290.006 106.765 290.006 172.557C290.006 238.35 236.67 291.685 170.878 291.685C105.085 291.685 51.75 238.35 51.75 172.557C51.75 160.056 53.7176 147.633 57.5805 135.745L170.878 172.557Z" fill="#FDCF49"/>
<path d="M146.5 232.539C146.5 231.202 147.215 230.099 148.334 229.649C147.417 229.198 146.92 228.39 146.92 227.318C146.92 225.437 148.613 224.148 151.084 224.148C153.555 224.148 155.202 225.422 155.202 227.349C155.202 228.421 154.689 229.245 153.741 229.664C154.891 230.099 155.622 231.187 155.622 232.523C155.622 234.683 153.85 236.051 151.053 236.051C148.256 236.051 146.5 234.699 146.5 232.539ZM149.188 227.566C149.188 228.343 149.903 228.825 151.038 228.825C152.172 228.825 152.887 228.343 152.887 227.566C152.887 226.774 152.172 226.277 151.038 226.277C149.903 226.277 149.188 226.774 149.188 227.566ZM148.971 232.368C148.971 233.3 149.748 233.844 151.053 233.844C152.358 233.844 153.135 233.3 153.135 232.368C153.135 231.436 152.343 230.876 151.053 230.876C149.763 230.876 148.971 231.436 148.971 232.368ZM156.743 230.146C156.743 226.587 158.763 224.148 161.762 224.148C164.761 224.148 166.781 226.587 166.781 230.146C166.781 233.704 164.917 236.066 161.762 236.066C158.608 236.066 156.743 233.704 156.743 230.146ZM159.229 230.146C159.229 232.616 160.162 233.86 161.762 233.86C163.363 233.86 164.295 232.616 164.295 230.146C164.295 227.597 163.363 226.354 161.762 226.354C160.162 226.354 159.229 227.597 159.229 230.146ZM173.957 227.271C173.957 229.105 172.667 230.394 170.849 230.394C169.031 230.394 167.741 229.105 167.741 227.271C167.741 225.437 169.031 224.148 170.849 224.148C172.667 224.148 173.957 225.437 173.957 227.271ZM180.545 224.396L171.812 235.864H169.466L178.199 224.396H180.545ZM172.092 227.271C172.092 226.494 171.595 225.95 170.849 225.95C170.103 225.95 169.606 226.494 169.606 227.271C169.606 228.048 170.103 228.592 170.849 228.592C171.595 228.592 172.092 228.048 172.092 227.271ZM182.301 232.943C182.301 234.776 181.012 236.066 179.193 236.066C177.375 236.066 176.086 234.776 176.086 232.943C176.086 231.109 177.375 229.819 179.193 229.819C181.012 229.819 182.301 231.109 182.301 232.943ZM180.437 232.943C180.437 232.166 179.939 231.622 179.193 231.622C178.448 231.622 177.95 232.166 177.95 232.943C177.95 233.72 178.448 234.264 179.193 234.264C179.939 234.264 180.437 233.72 180.437 232.943Z" fill="#1F0229"/>
<path d="M159.341 163.506L46.0439 126.694C57.8278 90.4269 86.2617 61.9931 122.529 50.2092L159.341 163.506Z" fill="#F9F5E5"/>
<path d="M164.483 161.083L127.671 47.7855C139.56 43.9225 151.983 41.955 164.483 41.955V161.083Z" fill="#FF9900"/>
<path d="M85.5977 92.0041H82.9871V89.7509H88.0062V101.25H85.5977V92.0041ZM93.7208 101.436C91.2501 101.436 89.603 99.8512 89.603 97.4738H92.0892C92.0892 98.5615 92.7263 99.2141 93.783 99.2141C94.9173 99.2141 95.6166 98.4838 95.6166 97.2718C95.6166 96.0908 94.9639 95.3916 93.8296 95.3916C93.0526 95.3916 92.3534 95.7956 92.0737 96.355L89.7739 95.9199L91.219 89.7509H97.4657V92.0818H93.0216L92.5709 93.76C93.0682 93.4647 93.7053 93.3093 94.4045 93.3093C96.6422 93.3093 98.1961 94.7855 98.1961 97.1164C98.1961 99.6959 96.378 101.436 93.7208 101.436ZM105.209 92.6567C105.209 94.4903 103.919 95.78 102.101 95.78C100.283 95.78 98.9936 94.4903 98.9936 92.6567C98.9936 90.8231 100.283 89.5334 102.101 89.5334C103.919 89.5334 105.209 90.8231 105.209 92.6567ZM111.798 89.782L103.065 101.25H100.718L109.451 89.782H111.798ZM103.345 92.6567C103.345 91.8797 102.847 91.3359 102.101 91.3359C101.356 91.3359 100.858 91.8797 100.858 92.6567C100.858 93.4336 101.356 93.9775 102.101 93.9775C102.847 93.9775 103.345 93.4336 103.345 92.6567ZM113.554 98.3284C113.554 100.162 112.264 101.452 110.446 101.452C108.628 101.452 107.338 100.162 107.338 98.3284C107.338 96.4948 108.628 95.2051 110.446 95.2051C112.264 95.2051 113.554 96.4948 113.554 98.3284ZM111.689 98.3284C111.689 97.5515 111.192 97.0076 110.446 97.0076C109.7 97.0076 109.203 97.5515 109.203 98.3284C109.203 99.1054 109.7 99.6492 110.446 99.6492C111.192 99.6492 111.689 99.1054 111.689 98.3284Z" fill="#1F0229"/>
<circle cx="168.025" cy="167.044" r="165.102" stroke="#FDCF49" stroke-width="3.88475" stroke-dasharray="15.54 15.54"/>
</svg>
