<svg width="451" height="1048" viewBox="0 0 451 1048" fill="none" xmlns="http://www.w3.org/2000/svg">
<g clip-path="url(#clip0_3812_13114)">
<path d="M281.358 209.766C285.555 202.737 291.563 196.878 295.409 189.653C299.2 182.516 300.707 174.373 304.235 167.107C311.663 151.806 326.977 142.189 341.589 133.485C352.834 126.787 364.148 120.117 376.205 115.021C383.031 112.135 390.276 109.722 397.683 109.999C405.09 110.276 412.734 113.689 416.41 120.123C422.094 130.072 416.735 142.379 415.883 153.8C415.133 163.958 418.113 174.109 417.363 184.267C416.437 196.79 409.922 208.212 402.447 218.309C390.87 233.947 376.381 247.728 359.059 256.588C341.737 265.455 321.428 269.145 302.451 264.833C274.688 258.527 266.895 234.001 281.351 209.773L281.358 209.766Z" stroke="white" stroke-opacity="0.6" stroke-width="3" stroke-miterlimit="10"/>
<path d="M259.089 235.319C255.128 227.094 253.587 217.936 252.439 208.887C250.283 191.971 249.458 174.075 256.615 158.598C264.272 142.047 280.073 130.612 296.699 123.117C304.883 119.427 313.493 116.46 320.874 111.344C336.033 100.821 344.764 82.0665 361.424 74.1322C365.634 72.1249 370.899 71.003 374.778 73.5915C377.103 75.1459 378.475 77.7411 379.746 80.2349C384.72 89.9534 389.836 100.3 389.065 111.195C388.646 117.115 386.504 122.765 384.213 128.246C374.028 152.651 360.538 175.656 344.312 196.526C329.166 216.003 309.932 239.029 288.244 251.464C275.356 258.858 264.644 246.862 259.082 235.312L259.089 235.319Z" stroke="white" stroke-opacity="0.6" stroke-width="3" stroke-miterlimit="10"/>
<path d="M361.128 264.589C386.837 255.918 409.214 237.738 422.96 214.354C429.313 203.548 433.834 191.788 438.328 180.09C441.214 172.581 444.093 165.073 446.979 157.564C449.581 150.799 451.974 142.493 447.405 136.863C444.033 132.707 437.781 131.794 432.692 133.45C427.603 135.113 423.48 138.864 419.865 142.817C395.014 170.006 387.262 210.178 360.364 235.353C352.646 242.577 343.57 248.302 333.892 252.559C326.647 255.749 316.854 263.967 328.485 268.543C337.676 272.159 352.322 267.563 361.121 264.589H361.128Z" stroke="white" stroke-opacity="0.6" stroke-width="3" stroke-miterlimit="10"/>
<path d="M237.666 204.826C232.753 184.659 233.922 163.052 240.971 143.534C244.107 134.856 248.385 126.544 250.453 117.548C253.217 105.512 251.879 92.9547 252.751 80.6343C253.447 70.7941 257.326 59.163 266.963 57.0679C270.032 56.3988 273.377 56.8381 276.209 55.4729C277.581 54.8106 278.743 53.7631 280.129 53.1413C284.981 50.9719 290.611 54.8512 293.078 59.555C295.544 64.2588 296.092 69.7533 298.295 74.5923C299.849 78.0053 302.181 80.9925 304.046 84.2432C312.447 98.8683 310.629 117.481 304.303 133.12C297.977 148.758 287.657 162.39 278.973 176.853C273.411 186.119 268.423 195.972 265.801 206.508C264.537 211.591 263.807 216.768 263.834 222.012C263.848 224.749 266.659 234.671 265.145 236.752C255.934 249.471 238.957 210.219 237.646 204.832L237.666 204.826Z" stroke="white" stroke-opacity="0.6" stroke-width="3" stroke-miterlimit="10"/>
<path d="M282.501 252.715C243.471 296.617 225.19 372.128 213.336 437.022C208.909 461.277 206.097 485.81 201.306 509.998C185.62 589.145 148.895 663.906 131.992 742.148" stroke="white" stroke-opacity="0.6" stroke-width="3" stroke-miterlimit="10"/>
<path d="M95.6141 149.325C95.9588 131.362 92.8837 113.33 86.5985 96.4955C81.185 81.992 72.6019 67.6035 58.7135 60.7573C49.9615 56.4455 39.8442 55.5466 30.146 56.5469C9.54653 58.669 -11.2759 70.8272 -17.8248 90.4738C-19.3995 95.1978 -20.1023 100.375 -18.7101 105.16C-16.8516 111.546 -11.6139 116.284 -7.9711 121.86C0.0510547 134.139 0.105121 150.123 7.0527 163.038C15.2235 178.231 32.5182 187.307 49.7587 187.963C62.4441 188.443 75.3323 184.82 86.3281 178.569C98.7973 171.486 95.3708 162.396 95.6208 149.325H95.6141Z" stroke="white" stroke-opacity="0.6" stroke-width="3" stroke-miterlimit="10"/>
<path d="M144.927 166.06C161.296 154.523 171.846 135.12 172.63 115.115C173.272 98.8345 167.845 82.4658 170.65 66.4147C172.569 55.4324 178.3 44.4501 175.394 33.6841C174.664 30.9942 173.231 28.2639 170.704 27.0744C166.162 24.932 160.945 28.8924 158.633 33.3461C156.322 37.8066 155.43 43.0646 152.166 46.8764C148.989 50.5867 144.123 52.283 140.028 54.9458C129.113 62.0353 124.24 75.6602 123.024 88.6227C121.807 101.585 123.51 114.69 122.24 127.645C120.969 140.601 115.968 154.199 104.959 161.153C101.147 163.559 90.4686 166.567 88.8534 171.196C86.5623 177.758 97.6189 177.475 102.728 177.799C117.563 178.738 132.749 174.643 144.921 166.067L144.927 166.06Z" stroke="white" stroke-opacity="0.6" stroke-width="3" stroke-miterlimit="10"/>
<path d="M-0.598379 41.9357C-2.56506 45.9434 -4.89669 49.8159 -6.18753 54.0872C-9.24906 64.2112 -6.07264 75.2206 -1.29449 84.6552C3.48366 94.0899 9.86354 102.72 13.8375 112.527C17.6086 121.84 19.1292 132.024 23.6573 141C34.099 161.687 58.3885 171.716 81.4277 174.224C83.8201 174.487 86.314 174.67 88.578 173.852C94.005 171.878 95.8567 165.249 96.6745 159.531C100.817 130.342 97.472 99.7804 84.8136 73.1593C74.9802 52.4922 59.3549 34.3731 39.7963 22.3703C33.0109 18.2071 19.9132 9.14419 11.7086 13.7061C3.8013 18.1058 3.07816 34.4812 -0.578105 41.9425L-0.598379 41.9357Z" stroke="white" stroke-opacity="0.6" stroke-width="3" stroke-miterlimit="10"/>
<path d="M21.5345 11.4489C23.0078 14.3347 25.6098 16.6325 28.0901 18.9101C59.5975 47.9372 79.4941 87.1221 82.853 126.76C83.718 136.972 83.5288 147.19 84.7926 157.382C85.5496 163.512 87.7257 170.676 94.0516 173.129C102.229 176.298 109.934 169.175 114.185 162.491C133.061 132.836 138.657 94.7523 123.761 61.5012C114.387 40.5841 96.3224 22.4379 74.3104 11.8071C67.3426 8.4414 10.3156 -10.4955 21.5277 11.4421L21.5345 11.4489Z" stroke="white" stroke-opacity="0.6" stroke-width="3" stroke-miterlimit="10"/>
<path d="M96.1387 173.541C133.783 248.505 150.219 332.687 154.734 416.45C159.248 500.219 153.828 603.25 146.847 686.851" stroke="white" stroke-opacity="0.6" stroke-width="3" stroke-miterlimit="10"/>
<path d="M100.061 978.737C106.616 964.078 110.779 948.359 112.34 932.375C113.692 918.541 113.138 904.368 117.078 891.034C123.478 869.367 140.901 852.647 149.511 831.764C156.189 815.577 157.256 797.695 161.562 780.718C168.827 752.069 185.689 725.941 208.802 707.518C223.833 695.536 241.506 686.615 254.185 672.179C268.945 655.371 275.521 632.683 289.869 615.523C296.641 607.42 305.075 600.655 310.718 591.734C319.126 578.454 320.423 561.991 320.694 546.277C320.89 535.126 320.694 523.968 320.092 512.837C319.856 508.37 325.62 506.349 328.209 509.999C333.555 517.527 336.346 527.226 338.117 536.478C346.862 582.09 340.536 629.378 328.945 674.348C318.402 715.243 302.601 756.469 272.236 785.82C257.03 800.52 238.742 811.671 223.029 825.83C205.653 841.496 191.575 860.804 181.985 882.147C173.699 900.584 168.773 920.379 160.541 938.843C151.559 958.989 137.637 978.271 116.517 985.834C112.739 987.185 108.312 985.807 106.353 982.299C104.278 978.595 106.494 975.358 108.637 972.614C119.085 959.239 131.271 947.169 140.279 932.787C158.257 904.091 162.19 868.59 178.464 838.9C190.872 816.26 209.235 797.526 227.111 778.907C294.64 708.586 336.995 617.159 328.736 524.002" stroke="white" stroke-opacity="0.6" stroke-width="3" stroke-miterlimit="10"/>
<path d="M66.6814 379.191C65.127 400.547 66.3637 422.106 70.3511 443.145C73.7844 461.257 79.333 479.153 88.7947 494.981C97.1142 508.904 108.252 520.9 119.532 532.551C131.17 544.567 143.064 556.347 155.195 567.863C162.657 541.499 159.669 512.323 147.011 488.02C132.541 460.237 106.731 439.813 91.444 412.476C82.7595 396.952 77.6975 379.454 76.4472 361.707C75.9741 354.969 78.2787 337.005 69.8578 335.572C68.8508 350.076 67.7424 364.653 66.6881 379.191H66.6814Z" stroke="white" stroke-opacity="0.6" stroke-width="3" stroke-miterlimit="10"/>
<path d="M104.378 862.447C119.584 858.02 127.41 845.436 128.897 829.669C130.391 813.901 126.985 798.033 127.796 782.218C128.343 771.52 130.803 760.997 131.648 750.312C132.898 734.518 130.587 718.636 127.046 703.193C112.083 637.941 74.3575 578.136 21.9127 536.525C2.19858 520.886 -20.0026 507.228 -34.4857 486.797C-34.9994 486.074 -36.1348 486.541 -35.9726 487.412C-33.2963 502.159 -23.5034 514.831 -14.8122 527.253C16.8372 572.52 37.6529 624.593 52.4807 677.795C67.7005 732.416 76.8513 788.51 87.0767 844.273C87.712 847.734 89.0636 851.066 91.3209 853.769C97.4575 861.115 104.54 858.392 109.487 854.256C120.382 845.145 123.599 829.405 121.74 815.327C119.875 801.25 113.772 788.152 108.845 774.831C102.073 756.543 97.4305 737.465 95.038 718.109C93.6863 707.18 92.9632 695.847 87.9823 686.027C80.8252 671.895 65.7946 662.791 59.4418 648.281C55.0218 638.184 55.2922 626.472 50.5546 616.517C42.627 599.858 21.5275 589.517 20.6691 571.087" stroke="white" stroke-opacity="0.6" stroke-width="3" stroke-miterlimit="10"/>
<path d="M112.15 859.135C98.5857 918.061 95.4228 987.625 107.811 1046.81" stroke="white" stroke-opacity="0.6" stroke-width="3" stroke-miterlimit="10"/>
</g>
<defs>
<clipPath id="clip0_3812_13114">
<rect width="488" height="1047.02" fill="white" transform="translate(-37)"/>
</clipPath>
</defs>
</svg>
