<svg width="390" height="48" viewBox="0 0 390 48" fill="none" xmlns="http://www.w3.org/2000/svg">
<g clip-path="url(#clip0_1823_3103)">
<path d="M71.4215 11.8432H60.9199V9.11316H85.0764V11.8432H74.5748V38.9669H71.416V11.8432H71.4215Z" fill="#1D1D1B"/>
<path d="M115.079 9.11316V38.9669H111.964V25.1891H93.2721V38.9669H90.1133V9.11316H93.2721V22.4202H111.964V9.11316H115.079Z" fill="#1D1D1B"/>
<path d="M145.941 36.2368V38.9669H124.811V9.11316H145.298V11.8432H127.975V22.4645H143.425V25.1503H127.975V36.2368H145.941Z" fill="#1D1D1B"/>
<path d="M170.697 23.2288H179.448V35.8547C177.68 37.0785 175.635 38.0144 173.296 38.6679C170.958 39.3213 168.674 39.648 166.424 39.648C163.238 39.648 160.378 38.9835 157.846 37.6655C155.313 36.342 153.329 34.498 151.894 32.1223C150.459 29.7466 149.738 27.0553 149.738 24.0373C149.738 21.0192 150.459 18.3279 151.894 15.9522C153.329 13.5766 155.335 11.7325 157.912 10.409C160.484 9.0855 163.399 8.42651 166.641 8.42651C169.572 8.42651 172.193 8.91383 174.515 9.89954C176.837 10.8797 178.766 12.3084 180.301 14.1857L173.856 19.8563C171.977 17.6689 169.744 16.5725 167.156 16.5725C164.939 16.5725 163.171 17.2425 161.864 18.5771C160.556 19.9117 159.902 21.7336 159.902 24.0373C159.902 26.3409 160.545 28.0909 161.841 29.4531C163.133 30.8209 164.867 31.5021 167.029 31.5021C168.309 31.5021 169.533 31.264 170.703 30.7766V23.2288H170.697Z" fill="#1D1D1B"/>
<path d="M196.561 31.4633H193.829V38.9724H183.754V9.11316H198.135C200.895 9.11316 203.3 9.56725 205.35 10.481C207.395 11.3892 208.974 12.696 210.088 14.4072C211.197 16.1128 211.751 18.1008 211.751 20.3768C211.751 22.5088 211.263 24.375 210.299 25.9644C209.329 27.5537 207.938 28.8218 206.115 29.7632L212.394 38.9724H201.637L196.555 31.4633H196.561ZM200.573 17.7963C199.891 17.1816 198.866 16.877 197.503 16.877H193.829V23.8711H197.503C198.872 23.8711 199.891 23.5665 200.573 22.9519C201.255 22.3427 201.598 21.4788 201.598 20.3713C201.598 19.2638 201.255 18.4054 200.573 17.7907V17.7963Z" fill="#1D1D1B"/>
<path d="M240.396 31.3802V38.9724H215.553V9.11316H239.837V16.7053H225.456V20.1996H238.091V27.4485H225.456V31.3747H240.396V31.3802Z" fill="#1D1D1B"/>
<path d="M264.635 33.7669H253.28L251.274 38.9724H241.027L254.089 9.11865H263.992L277.049 38.9724H266.636L264.63 33.7669H264.635ZM261.864 26.5181L258.96 19.009L256.057 26.5181H261.859H261.864Z" fill="#1D1D1B"/>
<path d="M283.676 16.9158H274.926V9.11316H302.502V16.9158H293.751V38.9669H283.676V16.9158Z" fill="#1D1D1B"/>
<path d="M330.903 26.1083C331.967 27.3765 332.505 29.0046 332.505 30.9926C332.505 33.551 331.557 35.5224 329.667 36.9013C327.772 38.2802 324.979 38.9724 321.283 38.9724H307.539V9.11316H320.429C323.754 9.11316 326.337 9.78322 328.177 11.1178C330.016 12.4524 330.931 14.3463 330.931 16.7884C330.931 18.4386 330.526 19.8397 329.717 20.9915C328.908 22.1433 327.789 23.0017 326.37 23.5721C328.332 23.9985 329.845 24.8457 330.914 26.1083H330.903ZM310.692 11.7159V22.5476H320.213C322.629 22.5476 324.497 22.0824 325.805 21.1632C327.113 20.2439 327.766 18.8983 327.766 17.1317C327.766 15.3652 327.113 14.0251 325.805 13.1003C324.497 12.1755 322.629 11.7159 320.213 11.7159H310.692ZM327.295 35.0019C328.664 34.0937 329.346 32.6705 329.346 30.7379C329.346 27.011 326.641 25.1503 321.238 25.1503H310.692V36.3697H321.238C323.909 36.3697 325.932 35.9156 327.295 35.0019Z" fill="#1D1D1B"/>
<path d="M360.84 36.2368V38.9669H339.709V9.11316H360.197V11.8432H342.868V22.4645H358.318V25.1503H342.868V36.2368H360.84Z" fill="#1D1D1B"/>
<path d="M389.396 36.2368V38.9669H368.266V9.11316H388.753V11.8432H371.424V22.4645H386.875V25.1503H371.424V36.2368H389.396Z" fill="#1D1D1B"/>
<path d="M51.2224 0.623901H0V47.4617H51.2224V0.623901Z" fill="#FFD43B"/>
<path d="M28.5221 18.3278V9.61698C28.5221 6.88136 27.1366 5.51355 24.3658 5.51355C24.1884 5.51355 24.0222 5.51909 23.8559 5.53016L13.2656 5.87904V9.12966H15.6818V42.2118H19.151V9.12413H20.2427C20.2316 9.28472 20.2261 9.44531 20.2261 9.61144V38.4462C20.2261 41.1929 21.606 42.5662 24.3658 42.5662C27.1366 42.5552 28.5221 41.1818 28.5221 38.4462V22.3869H24.4544V25.6541H25.0363V38.4462C25.0363 39.0166 24.8146 39.299 24.3658 39.299C23.9169 39.299 23.7118 39.0166 23.7118 38.4462V9.61144C23.7118 9.05767 23.928 8.77525 24.3658 8.77525H24.3824C24.8202 8.77525 25.0363 9.05214 25.0363 9.61144V18.3222H28.5221V18.3278Z" fill="#1D1D1B"/>
<path fill-rule="evenodd" clip-rule="evenodd" d="M29.6582 9.97721C29.6582 7.24159 30.9494 5.87378 33.543 5.87378H33.5485H37.9597V12.386H29.6582V9.97721ZM29.6582 13.931V15.2933H37.9597V13.931H29.6582ZM37.9597 16.8383H29.6582V18.2006H37.9597V16.8383ZM37.9597 19.7456H29.6582V21.5565C29.6582 22.8523 30.0018 23.6719 30.6945 24.0263C30.0018 24.3752 29.6582 25.2059 29.6582 26.5128V38.1087C29.6582 40.8332 31.0104 42.1955 33.7092 42.2121H37.9597V19.7456ZM33.7979 38.9393H34.4684V25.6544H34.1249C33.8367 25.6544 33.6538 25.671 33.5818 25.7098C33.288 25.815 33.144 26.0864 33.144 26.5072V38.1032C33.144 38.6625 33.3601 38.9393 33.7979 38.9393Z" fill="#1D1D1B"/>
</g>
<defs>
<clipPath id="clip0_1823_3103">
<rect width="389.397" height="46.8378" fill="white" transform="translate(0 0.623901)"/>
</clipPath>
</defs>
</svg>
