<svg width="390" height="57" viewBox="0 0 390 57" fill="none" xmlns="http://www.w3.org/2000/svg">
<rect x="0.603516" y="0.0319824" width="389.397" height="56.6254" fill="#1D1D1B"/>
<g clip-path="url(#clip0_1823_3224)">
<path d="M78.9022 16.8284H68.9863V14.2512H91.7954V16.8284H81.8796V42.4328H78.897V16.8284H78.9022Z" fill="#FFFEFB"/>
<path d="M120.122 14.2512V42.4328H117.181V29.4267H99.5314V42.4328H96.5488V14.2512H99.5314V26.813H117.181V14.2512H120.122Z" fill="#FFFEFB"/>
<path d="M149.265 39.8556V42.4328H129.312V14.2512H148.658V16.8284H132.3V26.8548H146.889V29.3901H132.3V39.8556H149.265Z" fill="#FFFEFB"/>
<path d="M172.639 27.5762H180.902V39.4949C179.233 40.6502 177.302 41.5337 175.094 42.1505C172.885 42.7674 170.73 43.0758 168.605 43.0758C165.596 43.0758 162.896 42.4485 160.505 41.2043C158.114 39.955 156.24 38.2142 154.885 35.9716C153.53 33.729 152.85 31.1884 152.85 28.3394C152.85 25.4904 153.53 22.9498 154.885 20.7072C156.24 18.4646 158.135 16.7239 160.568 15.4745C162.996 14.2251 165.748 13.603 168.809 13.603C171.577 13.603 174.052 14.063 176.245 14.9935C178.437 15.9188 180.258 17.2675 181.708 19.0396L175.622 24.3926C173.848 22.3278 171.739 21.2927 169.296 21.2927C167.203 21.2927 165.534 21.9252 164.299 23.1851C163.064 24.4449 162.446 26.1648 162.446 28.3394C162.446 30.5141 163.053 32.1659 164.278 33.4519C165.497 34.7431 167.135 35.3861 169.175 35.3861C170.384 35.3861 171.541 35.1613 172.645 34.7013V27.5762H172.639Z" fill="#FFFEFB"/>
<path d="M197.061 35.3495H194.482V42.438H184.969V14.2512H198.547C201.153 14.2512 203.424 14.6799 205.36 15.5424C207.291 16.3997 208.783 17.6334 209.834 19.2487C210.881 20.8588 211.404 22.7355 211.404 24.884C211.404 26.8966 210.944 28.6583 210.033 30.1586C209.117 31.6589 207.804 32.856 206.082 33.7446L212.011 42.438H201.855L197.056 35.3495H197.061ZM200.85 22.448C200.206 21.8677 199.238 21.5802 197.951 21.5802H194.482V28.1826H197.951C199.243 28.1826 200.206 27.895 200.85 27.3148C201.493 26.7398 201.818 25.9243 201.818 24.8788C201.818 23.8333 201.493 23.023 200.85 22.4427V22.448Z" fill="#FFFEFB"/>
<path d="M238.45 35.2711V42.438H214.992V14.2512H237.922V21.4181H224.343V24.7167H236.273V31.5595H224.343V35.2658H238.45V35.2711Z" fill="#FFFEFB"/>
<path d="M261.336 37.524H250.614L248.72 42.4379H239.045L251.378 14.2563H260.729L273.057 42.4379H263.225L261.331 37.524H261.336ZM258.72 30.6812L255.978 23.5927L253.236 30.6812H258.714H258.72Z" fill="#FFFEFB"/>
<path d="M279.317 21.6168H271.055V14.2512H297.092V21.6168H288.83V42.4328H279.317V21.6168Z" fill="#FFFEFB"/>
<path d="M323.908 30.2945C324.913 31.4916 325.421 33.0285 325.421 34.9052C325.421 37.3203 324.526 39.1813 322.742 40.4829C320.952 41.7846 318.315 42.438 314.825 42.438H301.848V14.2512H314.019C317.158 14.2512 319.597 14.8838 321.334 16.1436C323.071 17.4034 323.935 19.1912 323.935 21.4966C323.935 23.0544 323.553 24.3769 322.789 25.4642C322.025 26.5516 320.968 27.3618 319.628 27.9003C321.481 28.3028 322.909 29.1026 323.919 30.2945H323.908ZM304.825 16.7082V26.9332H313.815C316.096 26.9332 317.86 26.4941 319.094 25.6263C320.329 24.7585 320.947 23.4882 320.947 21.8207C320.947 20.1531 320.329 18.888 319.094 18.015C317.86 17.142 316.096 16.7082 313.815 16.7082H304.825ZM320.502 38.6899C321.794 37.8326 322.438 36.4891 322.438 34.6647C322.438 31.1466 319.885 29.3901 314.783 29.3901H304.825V39.9811H314.783C317.305 39.9811 319.215 39.5524 320.502 38.6899Z" fill="#FFFEFB"/>
<path d="M352.177 39.8556V42.4328H332.225V14.2512H351.57V16.8284H335.207V26.8548H349.796V29.3901H335.207V39.8556H352.177Z" fill="#FFFEFB"/>
<path d="M379.14 39.8556V42.4328H359.188V14.2512H378.533V16.8284H362.17V26.8548H376.759V29.3901H362.17V39.8556H379.14Z" fill="#FFFEFB"/>
<path d="M59.8283 6.23743H11.4629V50.4518H59.8283V6.23743Z" fill="#FFD43B"/>
<path d="M38.3957 22.9498V14.7269C38.3957 12.1445 37.0876 10.8533 34.4712 10.8533C34.3038 10.8533 34.1468 10.8585 33.9898 10.869L23.9902 11.1983V14.2668H26.2717V45.496H29.5473V14.2616H30.5781C30.5677 14.4132 30.5624 14.5648 30.5624 14.7216V41.9413C30.5624 44.5342 31.8654 45.8306 34.4712 45.8306C37.0876 45.8201 38.3957 44.5237 38.3957 41.9413V26.7815H34.555V29.8658H35.1044V41.9413C35.1044 42.4798 34.8951 42.7464 34.4712 42.7464C34.0474 42.7464 33.8538 42.4798 33.8538 41.9413V14.7216C33.8538 14.1989 34.0579 13.9323 34.4712 13.9323H34.4869C34.9003 13.9323 35.1044 14.1937 35.1044 14.7216V22.9445H38.3957V22.9498Z" fill="#1D1D1B"/>
<path fill-rule="evenodd" clip-rule="evenodd" d="M39.4668 15.0667C39.4668 12.4843 40.686 11.1931 43.1349 11.1931H43.1401H47.3053V17.3406H39.4668V15.0667ZM39.4668 18.7991V20.0851H47.3053V18.7991H39.4668ZM47.3053 21.5436H39.4668V22.8295H47.3053V21.5436ZM47.3053 24.288H39.4668V25.9974C39.4668 27.2207 39.7912 27.9944 40.4453 28.3289C39.7912 28.6583 39.4668 29.4424 39.4668 30.6761V41.6225C39.4668 44.1944 40.7436 45.4804 43.2919 45.4961H47.3053V24.288ZM43.3756 42.4066H44.0087V29.8658H43.6843C43.4122 29.8658 43.2395 29.8815 43.1715 29.9181C42.8942 30.0174 42.7581 30.2736 42.7581 30.6709V41.6173C42.7581 42.1453 42.9622 42.4066 43.3756 42.4066Z" fill="#1D1D1B"/>
</g>
<defs>
<clipPath id="clip0_1823_3224">
<rect width="367.677" height="44.2144" fill="white" transform="translate(11.4629 6.23743)"/>
</clipPath>
</defs>
</svg>
