<svg width="158" height="158" viewBox="0 0 158 158" fill="none" xmlns="http://www.w3.org/2000/svg">
<rect x="0.190506" y="0.190506" width="157.511" height="157.511" fill="white" stroke="#FFD43B" stroke-width="0.381012"/>
<path d="M24.596 134.192H24.4055H21.0089V133.586H29.3221V134.192H25.7329H25.5424V134.382V143.992H24.7865V134.382H24.598V134.192H24.596Z" fill="#1D1D1B" stroke="black" stroke-width="0.381012"/>
<path d="M39.3792 138.204V133.586H40.1191V143.992H39.3792V139.204V139.014H39.1887H32.4611H32.2706V139.204V143.992H31.5147V133.586H32.2706V138.204V138.394H32.4611H39.1887H39.3792V138.204Z" fill="#1D1D1B" stroke="black" stroke-width="0.381012"/>
<path d="M44.9514 143.387H51.2272V143.992H44.003V133.586H50.9958V134.192H44.9514H44.7609V134.382V138.22V138.41H44.9514H50.3217V139H44.9514H44.7609V139.19V143.196V143.387H44.9514Z" fill="#1D1D1B" stroke="black" stroke-width="0.381012"/>
<path d="M61.6284 133.855C62.378 134.173 63.0074 134.624 63.5193 135.209L61.4813 137.009C60.7997 136.277 59.9886 135.901 59.054 135.901C58.215 135.901 57.526 136.157 57.0129 136.682C56.4996 137.208 56.2526 137.919 56.2526 138.788C56.2526 139.659 56.4964 140.342 57.0027 140.876C57.5091 141.414 58.1867 141.676 59.0081 141.676C59.4933 141.676 59.9592 141.585 60.404 141.399L60.521 141.35V141.223V138.687H63.2874V142.958C62.6893 143.359 62.0001 143.67 61.2125 143.891C60.3861 144.123 59.5817 144.238 58.7907 144.238C57.6712 144.238 56.6729 144.004 55.7914 143.544C54.9098 143.081 54.2222 142.439 53.7243 141.611C53.227 140.785 52.9757 139.847 52.9757 138.788C52.9757 137.729 53.227 136.791 53.7243 135.965C54.2217 135.139 54.9168 134.496 55.8144 134.033L55.8146 134.033C56.7097 133.571 57.7282 133.338 58.8685 133.338C59.9023 133.338 60.8197 133.511 61.6281 133.855L61.6284 133.855Z" fill="#1D1D1B" stroke="black" stroke-width="0.381012"/>
<path d="M68.6534 141.281H68.4629V141.471V143.994H65.2178V133.586H70.2032C71.1758 133.586 72.0138 133.747 72.7223 134.064L72.7225 134.064C73.4282 134.379 73.9666 134.828 74.3455 135.412C74.7221 135.994 74.9133 136.675 74.9133 137.466C74.9133 138.206 74.7449 138.845 74.4183 139.386C74.089 139.927 73.6156 140.362 72.9877 140.688L72.7972 140.787L72.9177 140.964L74.9755 143.994H71.5651L69.7927 141.365L69.6367 141.47V141.281H69.6347H69.2766H68.6534ZM70.8903 136.102V136.183C70.6361 136.064 70.3273 136.011 69.9758 136.011H68.6534H68.4629V136.201V138.728V138.919H68.6534H69.9758C70.4929 138.919 70.9142 138.804 71.2084 138.537C71.5022 138.274 71.6403 137.905 71.6403 137.464C71.6403 137.021 71.5017 136.655 71.2086 136.39L70.8903 136.102Z" fill="#1D1D1B" stroke="black" stroke-width="0.381012"/>
<path d="M80.035 141.63H85.2217V143.994H76.6612V133.586H85.0203V135.948H80.035H79.8444V136.139V137.402V137.592H80.035H84.392V139.83H80.035H79.8444V140.021V141.439V141.63H80.035Z" fill="#1D1D1B" stroke="black" stroke-width="0.381012"/>
<path d="M90.0506 142.113H89.9196L89.8727 142.236L89.1976 143.994H85.9315L90.4666 133.588H93.7812L98.3144 143.994H94.9883L94.3132 142.236L94.1374 142.303V142.113H94.1354H93.8582H90.0506ZM93.1401 139.875H93.4176L93.3179 139.616L92.2727 136.903L92.095 136.441L91.9172 136.903L90.8721 139.616L90.7723 139.875H91.0498H93.1381H93.1401Z" fill="#1D1D1B" stroke="black" stroke-width="0.381012"/>
<path d="M101.182 136.215V136.025H100.991H98.0323V133.586H107.576V136.025H104.617H104.427V136.215V143.992H101.182V136.215Z" fill="#1D1D1B" stroke="black" stroke-width="0.381012"/>
<path d="M117.776 139.579C117.428 139.204 116.947 138.944 116.317 138.806L115.714 138.675L116.286 138.443C116.766 138.25 117.138 137.961 117.406 137.578C117.671 137.2 117.809 136.733 117.809 136.169C117.809 135.342 117.504 134.717 116.896 134.274C116.278 133.824 115.393 133.586 114.219 133.586H109.771V143.994H114.527C115.838 143.994 116.796 143.747 117.432 143.283L117.776 139.579ZM117.776 139.579L117.843 139.659C118.192 140.076 118.375 140.619 118.375 141.301C118.375 142.172 118.058 142.824 117.432 143.282L117.776 139.579ZM110.715 134.146H110.524V134.336V138.25V138.44H110.715H114.142C115.032 138.44 115.749 138.269 116.264 137.905C116.791 137.533 117.051 136.985 117.051 136.293C117.051 135.6 116.791 135.055 116.264 134.681C115.749 134.315 115.032 134.146 114.142 134.146H110.715ZM110.715 139H110.524V139.19V143.244V143.435H110.715H114.511C115.488 143.435 116.26 143.269 116.797 142.908C117.352 142.538 117.619 141.958 117.619 141.209C117.619 140.483 117.353 139.915 116.807 139.538C116.274 139.17 115.499 139 114.511 139H110.715Z" fill="#1D1D1B" stroke="black" stroke-width="0.381012"/>
<path d="M122.295 143.387H128.573V143.992H121.349V133.586H128.342V134.192H122.295H122.105V134.382V138.22V138.41H122.295H127.665V139H122.295H122.105V139.19V143.196V143.387H122.295Z" fill="#1D1D1B" stroke="black" stroke-width="0.381012"/>
<path d="M132.572 143.387H138.85V143.992H131.626V133.586H138.619V134.192H132.572H132.382V134.382V138.22V138.41H132.572H137.943V139H132.572H132.382V139.19V143.196V143.387H132.572Z" fill="#1D1D1B" stroke="black" stroke-width="0.381012"/>
<path d="M84.2233 51.2514V25.4896C84.2233 17.3991 80.1419 13.3539 71.9792 13.3539C71.4568 13.3539 70.967 13.3703 70.4772 13.403L39.2793 14.4348V24.0484H46.3972V121.887H56.6169V24.032H59.833C59.8004 24.5069 59.7841 24.9819 59.7841 25.4732V110.751C59.7841 118.874 63.8491 122.936 71.9792 122.936C80.1419 122.903 84.2233 118.841 84.2233 110.751V63.2561H72.2404V72.9188H73.9546V110.751C73.9546 112.438 73.3016 113.273 71.9792 113.273C70.6568 113.273 70.0528 112.438 70.0528 110.751V25.4732C70.0528 23.8355 70.6895 23.0002 71.9792 23.0002H72.0282C73.3179 23.0002 73.9546 23.8191 73.9546 25.4732V51.235H84.2233V51.2514Z" fill="#1D1D1B"/>
<path fill-rule="evenodd" clip-rule="evenodd" d="M87.5703 26.554C87.5703 18.4636 91.3741 14.4183 99.0145 14.4183H99.0308H112.026V33.6782H87.5703V26.554ZM87.5703 38.2475V42.2764H112.026V46.8457H87.5703V50.8745H112.026V55.4438H87.5703V60.7994C87.5703 64.6317 88.5825 67.0556 90.6232 68.1037C88.5825 69.1355 87.5703 71.5921 87.5703 75.4572V109.752C87.5703 117.809 91.5537 121.838 99.5042 121.887H112.026V38.2475H87.5703ZM99.7654 112.208H101.741V72.9187H100.729C99.8797 72.9187 99.341 72.9678 99.1287 73.0825C98.2635 73.3937 97.839 74.1961 97.839 75.4408V109.735C97.839 111.389 98.4757 112.208 99.7654 112.208Z" fill="#1D1D1B"/>
</svg>
