<svg width="159" height="158" viewBox="0 0 159 158" fill="none" xmlns="http://www.w3.org/2000/svg">
<rect x="0.701172" width="157.892" height="157.892" fill="#1D1D1B"/>
<path d="M25.3011 134.382H21.5215V133.396H30.2157V134.382H26.436V144.183H25.2991V134.382H25.3011Z" fill="#FFE792"/>
<path d="M41.0128 133.396V144.183H39.8918V139.204H33.1642V144.183H32.0273V133.396H33.1642V138.204H39.8918V133.396H41.0128Z" fill="#FFE792"/>
<path d="M52.1208 143.196V144.183H44.5156V133.396H51.8895V134.382H45.6545V138.22H51.2153V139.19H45.6545V143.196H52.1208Z" fill="#FFE792"/>
<path d="M61.0316 138.496H64.181V143.058C63.5448 143.5 62.8088 143.839 61.9671 144.075C61.1254 144.311 60.3036 144.429 59.4939 144.429C58.347 144.429 57.3178 144.189 56.4063 143.712C55.4948 143.234 54.7807 142.568 54.2642 141.71C53.7476 140.851 53.4883 139.879 53.4883 138.788C53.4883 137.698 53.7476 136.725 54.2642 135.867C54.7807 135.009 55.5028 134.342 56.4302 133.864C57.3557 133.386 58.4048 133.148 59.5716 133.148C60.6268 133.148 61.5702 133.324 62.4059 133.68C63.2416 134.034 63.9357 134.55 64.4882 135.229L62.1685 137.278C61.4924 136.487 60.6886 136.091 59.7571 136.091C58.9593 136.091 58.3231 136.333 57.8523 136.815C57.3816 137.298 57.1463 137.956 57.1463 138.788C57.1463 139.621 57.3776 140.253 57.8444 140.745C58.3091 141.239 58.9334 141.485 59.7113 141.485C60.172 141.485 60.6128 141.399 61.0336 141.223V138.496H61.0316Z" fill="#FFE792"/>
<path d="M70.3399 141.471H69.3566V144.185H65.7305V133.396H70.9063C71.8996 133.396 72.7652 133.56 73.5032 133.89C74.2392 134.218 74.8076 134.69 75.2085 135.309C75.6075 135.925 75.8069 136.643 75.8069 137.466C75.8069 138.236 75.6314 138.91 75.2843 139.484C74.9353 140.059 74.4347 140.517 73.7785 140.857L76.0383 144.185H72.1669L70.3379 141.471H70.3399ZM71.7839 136.533C71.5386 136.311 71.1696 136.201 70.6789 136.201H69.3566V138.728H70.6789C71.1716 138.728 71.5386 138.618 71.7839 138.396C72.0292 138.176 72.1529 137.864 72.1529 137.464C72.1529 137.063 72.0292 136.753 71.7839 136.531V136.533Z" fill="#FFE792"/>
<path d="M86.1154 141.441V144.185H77.1738V133.396H85.9139V136.139H80.7381V137.402H85.2856V140.021H80.7381V141.439H86.1154V141.441Z" fill="#FFE792"/>
<path d="M94.8405 142.304H90.7537L90.0317 144.185H86.3438L91.0449 133.398H94.6091L99.3083 144.185H95.5605L94.8385 142.304H94.8405ZM93.8432 139.685L92.7981 136.971L91.753 139.685H93.8412H93.8432Z" fill="#FFE792"/>
<path d="M101.694 136.215H98.5449V133.396H108.47V136.215H105.32V144.183H101.694V136.215Z" fill="#FFE792"/>
<path d="M118.692 139.537C119.075 139.995 119.269 140.583 119.269 141.301C119.269 142.226 118.928 142.938 118.247 143.436C117.565 143.934 116.56 144.185 115.23 144.185H110.283V133.396H114.923C116.119 133.396 117.049 133.638 117.711 134.12C118.373 134.602 118.702 135.287 118.702 136.169C118.702 136.765 118.557 137.271 118.265 137.688C117.974 138.104 117.571 138.414 117.061 138.62C117.767 138.774 118.311 139.08 118.696 139.537H118.692ZM111.418 134.336V138.25H114.845C115.714 138.25 116.386 138.082 116.857 137.75C117.328 137.418 117.563 136.931 117.563 136.293C117.563 135.655 117.328 135.171 116.857 134.836C116.386 134.502 115.714 134.336 114.845 134.336H111.418ZM117.394 142.75C117.886 142.422 118.132 141.908 118.132 141.209C118.132 139.863 117.158 139.19 115.214 139.19H111.418V143.244H115.214C116.175 143.244 116.903 143.08 117.394 142.75Z" fill="#FFE792"/>
<path d="M129.467 143.196V144.183H121.861V133.396H129.235V134.382H122.998V138.22H128.559V139.19H122.998V143.196H129.467Z" fill="#FFE792"/>
<path d="M139.744 143.196V144.183H132.139V133.396H139.512V134.382H133.276V138.22H138.836V139.19H133.276V143.196H139.744Z" fill="#FFE792"/>
<path d="M84.9245 51.2514V25.4896C84.9245 17.3991 80.8431 13.3539 72.6804 13.3539C72.158 13.3539 71.6682 13.3703 71.1784 13.403L39.9805 14.4348V24.0484H47.0984V121.887H57.3181V24.032H60.5342C60.5016 24.5069 60.4852 24.9819 60.4852 25.4732V110.751C60.4852 118.874 64.5503 122.936 72.6804 122.936C80.8431 122.903 84.9245 118.841 84.9245 110.751V63.2561H72.9416V72.9188H74.6557V110.751C74.6557 112.438 74.0027 113.273 72.6804 113.273C71.358 113.273 70.754 112.438 70.754 110.751V25.4732C70.754 23.8355 71.3907 23.0002 72.6804 23.0002H72.7293C74.0191 23.0002 74.6557 23.8191 74.6557 25.4732V51.235H84.9245V51.2514Z" fill="#FFE792"/>
<path fill-rule="evenodd" clip-rule="evenodd" d="M88.2695 26.554C88.2695 18.4636 92.0734 14.4183 99.7137 14.4183H99.73H112.725V33.6782H88.2695V26.554ZM88.2695 38.2475V42.2764H112.725V38.2475H88.2695ZM112.725 46.8457H88.2695V50.8745H112.725V46.8457ZM112.725 55.4438H88.2695V60.7994C88.2695 64.6317 89.2817 67.0556 91.3224 68.1037C89.2817 69.1355 88.2695 71.5921 88.2695 75.4572V109.752C88.2695 117.809 92.2529 121.838 100.203 121.887H112.725V55.4438ZM100.465 112.208H102.44V72.9187H101.428C100.579 72.9187 100.04 72.9678 99.828 73.0825C98.9627 73.3937 98.5382 74.1961 98.5382 75.4408V109.735C98.5382 111.389 99.1749 112.208 100.465 112.208Z" fill="#FFE792"/>
</svg>
