<svg width="159" height="158" viewBox="0 0 159 158" fill="none" xmlns="http://www.w3.org/2000/svg">
<rect x="0.404297" width="157.892" height="157.892" fill="#1D1D1B"/>
<path d="M88.2508 62.4244V36.8797C88.2508 28.8573 84.2039 24.8462 76.1099 24.8462C75.5919 24.8462 75.1063 24.8624 74.6206 24.8949L43.6855 25.918V35.4506H50.7435V132.465H60.8771V35.4343H64.0661C64.0337 35.9053 64.0176 36.3762 64.0176 36.8634V121.422C64.0176 129.477 68.0483 133.505 76.1099 133.505C84.2039 133.472 88.2508 129.445 88.2508 121.422V74.3279H76.3689V83.9092H78.0687V121.422C78.0687 123.095 77.4211 123.923 76.1099 123.923C74.7987 123.923 74.1997 123.095 74.1997 121.422V36.8634C74.1997 35.2395 74.8311 34.4112 76.1099 34.4112H76.1585C77.4373 34.4112 78.0687 35.2232 78.0687 36.8634V62.4081H88.2508V62.4244Z" fill="#FFF6D9"/>
<path fill-rule="evenodd" clip-rule="evenodd" d="M91.5684 37.9352C91.5684 29.9129 95.3401 25.9017 102.916 25.9017H102.932H115.818V44.9995H91.5684V37.9352ZM91.5684 49.5303V53.5251H115.818V49.5303H91.5684ZM115.818 58.0559H91.5684V62.0509H115.818V58.0559ZM115.818 66.5817H91.5684V71.8919C91.5684 75.692 92.572 78.0954 94.5955 79.1348C92.572 80.1578 91.5684 82.5938 91.5684 86.4263V120.432C91.5684 128.422 95.5182 132.416 103.402 132.465H115.818V66.5817ZM103.661 122.868H105.619V83.9092H104.616C103.774 83.9092 103.24 83.9579 103.029 84.0716C102.171 84.3801 101.751 85.1758 101.751 86.41V120.416C101.751 122.056 102.382 122.868 103.661 122.868Z" fill="#FFF6D9"/>
</svg>
