<svg width="158" height="158" viewBox="0 0 158 158" fill="none" xmlns="http://www.w3.org/2000/svg">
<rect x="0.109375" width="157.892" height="157.892" fill="#FFD43B"/>
<path d="M87.954 62.4243V36.8795C87.954 28.8572 83.907 24.8461 75.8131 24.8461C75.295 24.8461 74.8094 24.8623 74.3238 24.8948L43.3887 25.9179V35.4505H50.4466V132.465H60.5802V35.4342H63.7693C63.7369 35.9052 63.7207 36.3761 63.7207 36.8633V121.422C63.7207 129.477 67.7515 133.505 75.8131 133.505C83.907 133.472 87.954 129.445 87.954 121.422V74.3278H76.0721V83.9091H77.7718V121.422C77.7718 123.095 77.1243 123.923 75.8131 123.923C74.5018 123.923 73.9029 123.095 73.9029 121.422V36.8633C73.9029 35.2393 74.5342 34.4111 75.8131 34.4111H75.8616C77.1405 34.4111 77.7718 35.2231 77.7718 36.8633V62.408H87.954V62.4243Z" fill="#1D1D1B"/>
<path fill-rule="evenodd" clip-rule="evenodd" d="M91.2715 37.9348C91.2715 29.9125 95.0433 25.9014 102.619 25.9014H102.635H115.521V44.9992H91.2716V49.53H115.521V53.5248H91.2718V58.0556H115.521V62.0506H91.2718V66.5814H115.521V132.465H103.105C95.2213 132.416 91.2715 128.421 91.2715 120.431V86.426C91.2715 82.5935 92.2751 80.1575 94.2986 79.1344C92.2751 78.0951 91.2715 75.6917 91.2715 71.8916V37.9348ZM103.364 122.867H105.323V83.9089H104.319C103.477 83.9089 102.943 83.9576 102.733 84.0712C101.875 84.3798 101.454 85.1755 101.454 86.4097V120.415C101.454 122.055 102.085 122.867 103.364 122.867Z" fill="#1D1D1B"/>
</svg>
