<svg width="881" height="106" viewBox="0 0 881 106" fill="none" xmlns="http://www.w3.org/2000/svg">
<g clip-path="url(#clip0_1823_3075)">
<path d="M161.59 25.3907H137.83V19.2122H192.484V25.3907H168.724V86.775H161.577V25.3907H161.59Z" fill="#FFFEFB"/>
<path d="M260.365 19.2122V86.775H253.318V55.5941H211.028V86.775H203.881V19.2122H211.028V49.3278H253.318V19.2122H260.365Z" fill="#FFFEFB"/>
<path d="M330.19 80.5964V86.775H282.383V19.2122H328.736V25.3907H289.542V49.4281H324.498V55.5063H289.542V80.5964H330.19Z" fill="#FFFEFB"/>
<path d="M386.198 51.1578H405.996V79.7319C401.996 82.5016 397.37 84.6196 392.079 86.0984C386.788 87.5772 381.622 88.3167 376.531 88.3167C369.322 88.3167 362.852 86.8128 357.122 83.83C351.393 80.8347 346.904 76.6614 343.657 71.285C340.409 65.9085 338.779 59.8177 338.779 52.9875C338.779 46.1573 340.409 40.0665 343.657 34.69C346.904 29.3136 351.443 25.1403 357.273 22.145C363.091 19.1497 369.686 17.6584 377.02 17.6584C383.653 17.6584 389.584 18.7612 394.837 20.992C400.09 23.2103 404.454 26.4436 407.927 30.6922L393.345 43.5255C389.095 38.5751 384.042 36.0937 378.186 36.0937C373.171 36.0937 369.172 37.6101 366.213 40.6304C363.254 43.6508 361.774 47.774 361.774 52.9875C361.774 58.201 363.229 62.1613 366.162 65.2443C369.084 68.3398 373.008 69.8813 377.898 69.8813C380.794 69.8813 383.565 69.3424 386.211 68.2396V51.1578H386.198Z" fill="#FFFEFB"/>
<path d="M444.712 69.7934H438.531V86.7875H415.736V19.2122H448.273C454.517 19.2122 459.958 20.2399 464.597 22.3077C469.224 24.3631 472.797 27.3207 475.317 31.1933C477.825 35.0533 479.079 39.5525 479.079 44.7033C479.079 49.5283 477.975 53.7518 475.794 57.3486C473.6 60.9454 470.452 63.8154 466.327 65.9459L480.533 86.7875H456.197L444.699 69.7934H444.712ZM453.789 38.8632C452.247 37.4721 449.928 36.7828 446.843 36.7828H438.531V52.6113H446.843C449.94 52.6113 452.247 51.922 453.789 50.5309C455.332 49.1524 456.109 47.1973 456.109 44.6908C456.109 42.1843 455.332 40.2417 453.789 38.8506V38.8632Z" fill="#FFFEFB"/>
<path d="M543.89 69.6054V86.7875H487.682V19.2122H542.623V36.3943H510.087V44.3023H538.674V60.7073H510.087V69.5929H543.89V69.6054Z" fill="#FFFEFB"/>
<path d="M598.731 75.0069H573.04L568.501 86.7875H545.318L574.871 19.2247H597.276L626.816 86.7875H603.257L598.718 75.0069H598.731ZM592.462 58.6019L585.892 41.6078L579.322 58.6019H592.449H592.462Z" fill="#FFFEFB"/>
<path d="M641.811 36.8705H622.014V19.2122H684.403V36.8705H664.605V86.775H641.811V36.8705Z" fill="#FFFEFB"/>
<path d="M748.661 57.6745C751.069 60.5444 752.285 64.229 752.285 68.7281C752.285 74.5182 750.141 78.9797 745.865 82.1003C741.577 85.2209 735.258 86.7875 726.895 86.7875H695.801V19.2122H724.964C732.487 19.2122 738.33 20.7286 742.493 23.749C746.655 26.7693 748.724 31.0554 748.724 36.5823C748.724 40.3169 747.809 43.4877 745.978 46.0944C744.148 48.7012 741.615 50.6437 738.405 51.9346C742.844 52.8996 746.267 54.8171 748.686 57.6745H748.661ZM702.935 25.1025V49.6161H724.475C729.942 49.6161 734.167 48.5633 737.126 46.4829C740.085 44.4025 741.565 41.3571 741.565 37.3593C741.565 33.3614 740.085 30.3285 737.126 28.2356C734.167 26.1427 729.942 25.1025 724.475 25.1025H702.935ZM740.499 77.8017C743.596 75.7463 745.138 72.5255 745.138 68.1517C745.138 59.7173 739.019 55.5063 726.795 55.5063H702.935V80.8972H726.795C732.838 80.8972 737.415 79.8695 740.499 77.8017Z" fill="#FFFEFB"/>
<path d="M816.392 80.5964V86.775H768.584V19.2122H814.937V25.3907H775.731V49.4281H810.687V55.5063H775.731V80.5964H816.392Z" fill="#FFFEFB"/>
<path d="M880.999 80.5964V86.775H833.191V19.2122H879.545V25.3907H840.338V49.4281H875.294V55.5063H840.338V80.5964H880.999Z" fill="#FFFEFB"/>
<path d="M115.889 0H0V106H115.889V0Z" fill="#FFD43B"/>
<path d="M64.5329 40.0663V20.3526C64.5329 14.1616 61.3984 11.0661 55.1294 11.0661C54.7282 11.0661 54.352 11.0786 53.9759 11.1037L30.0156 11.8932V19.2498H35.4822V94.119H43.3311V19.2373H45.8011C45.776 19.6007 45.7634 19.9641 45.7634 20.3401V85.5969C45.7634 91.813 48.8854 94.9211 55.1294 94.9211C61.3984 94.896 64.5329 91.788 64.5329 85.5969V49.2526H55.33V56.6468H56.6465V85.5969C56.6465 86.8878 56.145 87.5269 55.1294 87.5269C54.1138 87.5269 53.6499 86.8878 53.6499 85.5969V20.3401C53.6499 19.0869 54.1389 18.4477 55.1294 18.4477H55.167C56.1575 18.4477 56.6465 19.0743 56.6465 20.3401V40.0538H64.5329V40.0663Z" fill="#1D1D1B"/>
<path fill-rule="evenodd" clip-rule="evenodd" d="M67.1035 21.1674C67.1035 14.9764 70.0249 11.8808 75.8927 11.8808H75.9053H85.8856V94.1192H76.2689C70.1628 94.0816 67.1035 90.9986 67.1035 84.8326V58.5895C67.1035 55.6318 67.8809 53.752 69.4481 52.9624C67.8809 52.1603 67.1035 50.3055 67.1035 47.3729V43.2746H85.8855V39.778H67.1035V36.6951H85.8855V33.1985H67.1035L67.1035 30.1154H85.8855V26.6189H67.1035V21.1674ZM76.4695 86.7125H77.9866V56.647H77.2092C76.5572 56.647 76.1435 56.6846 75.9805 56.7723C75.316 57.0104 74.99 57.6245 74.99 58.577V84.8201C74.99 86.0858 75.479 86.7125 76.4695 86.7125Z" fill="#1D1D1B"/>
</g>
<defs>
<clipPath id="clip0_1823_3075">
<rect width="881" height="106" fill="white"/>
</clipPath>
</defs>
</svg>
