<svg width="473" height="119" viewBox="0 0 473 119" fill="none" xmlns="http://www.w3.org/2000/svg">
<path d="M0.162109 111.128V96.431C0.162109 92.5614 3.32319 89.4366 7.19279 89.4911L15.8948 89.6001C19.7099 89.6001 23.2707 88.8189 26.5226 87.2565C29.7927 85.6942 32.6268 83.6049 35.0248 81.007C37.4229 78.391 39.3123 75.3934 40.7111 71.978C42.0918 68.5807 42.8004 65.0018 42.8004 61.2412V55.3006C42.8004 51.4673 45.9069 48.3607 49.7402 48.3607H64.9461C68.7794 48.3607 71.8859 51.4673 71.8859 55.3006V61.2412H71.6861C71.6134 66.4552 70.9049 71.4875 69.5424 76.3563C68.1798 81.2251 66.2541 85.7487 63.7471 89.9635C61.24 94.1601 58.2606 97.9933 54.7907 101.427C51.3207 104.861 47.4693 107.822 43.2727 110.292C39.0579 112.763 34.5525 114.671 29.72 116.033C24.8876 117.396 19.8734 118.068 14.6595 118.068H7.10195C3.26869 118.068 0.162109 114.961 0.162109 111.128Z" fill="#22244E"/>
<path d="M238.733 0.0545654H223.945C220.112 0.0545654 217.005 3.16165 217.005 6.99442V104.77C217.005 108.603 220.112 111.71 223.945 111.71H238.733C242.566 111.71 245.673 108.603 245.673 104.77V6.99442C245.673 3.16165 242.566 0.0545654 238.733 0.0545654Z" fill="#22244E"/>
<path d="M201.254 59.1704C201.254 67.5091 199.765 75.2846 196.767 82.4788C193.77 89.673 189.718 95.8862 184.577 101.136C179.436 106.387 173.404 110.511 166.483 113.545C159.561 116.56 152.149 118.086 144.228 118.086C136.307 118.086 128.986 116.579 122.082 113.545C115.16 110.529 109.111 106.387 103.933 101.136C98.7555 95.8862 94.6679 89.673 91.6885 82.4788C88.709 75.2846 87.2012 67.5091 87.2012 59.1704C87.2012 50.8317 88.6909 42.8382 91.6885 35.6077C94.6679 28.3771 98.7555 22.1458 103.933 16.8955C109.111 11.6452 115.16 7.53942 122.082 4.54185C129.004 1.54427 136.38 0.0545654 144.228 0.0545654C152.076 0.0545654 159.561 1.47161 166.483 4.26935C173.404 7.08526 179.418 11.082 184.577 16.2596C189.718 21.4373 193.788 27.6504 196.767 34.9173C199.747 42.1841 201.254 50.2685 201.254 59.1522V59.1704ZM172.587 59.1704C172.587 54.5741 171.842 50.432 170.352 46.7078C168.862 43.0017 166.828 39.7861 164.248 37.1155C161.668 34.445 158.671 32.3921 155.237 30.9569C151.803 29.5398 148.134 28.8131 144.246 28.8131C140.358 28.8131 136.688 29.5217 133.255 30.9569C129.821 32.3739 126.824 34.4268 124.298 37.1155C121.755 39.7861 119.757 42.9835 118.303 46.7078C116.85 50.432 116.123 54.5741 116.123 59.1704C116.123 63.476 116.85 67.4728 118.303 71.1607C119.757 74.8486 121.755 78.046 124.298 80.7529C126.842 83.4598 129.821 85.6036 133.255 87.1659C136.688 88.7283 140.358 89.5095 144.246 89.5095C148.134 89.5095 151.803 88.7828 155.237 87.3295C158.671 85.8761 161.686 83.8232 164.248 81.189C166.81 78.5547 168.844 75.3573 170.352 71.5967C171.842 67.8361 172.587 63.7122 172.587 59.1886V59.1704Z" fill="#22244E"/>
<path d="M360.907 30.5753L350.642 40.876C347.59 43.9463 342.631 43.3831 340.033 39.9132C339.96 39.8042 339.869 39.7133 339.797 39.6043C337.98 37.279 335.963 35.3169 333.693 33.7182C331.422 32.1195 328.987 30.9023 326.335 30.0666C323.701 29.2309 320.976 28.8131 318.196 28.8131C314.308 28.8131 310.638 29.6124 307.205 31.2111C303.771 32.8098 300.774 35.0444 298.248 37.933C295.705 40.8215 293.707 44.237 292.253 48.1974C290.8 52.1578 290.073 56.5361 290.073 61.3322C290.073 65.22 290.8 68.8716 292.253 72.287C293.707 75.6843 295.705 78.6818 298.248 81.2434C300.792 83.8231 303.771 85.8397 307.205 87.2931C310.638 88.7464 314.308 89.4731 318.196 89.4731C320.976 89.4731 323.646 89.0916 326.226 88.3286C328.787 87.5656 331.204 86.4755 333.474 85.0403C335.727 83.6233 337.744 81.8792 339.524 79.8264C339.542 79.8082 339.56 79.79 339.579 79.7537C342.304 76.5926 347.027 76.1748 349.97 79.136L360.362 89.5639C362.905 92.1255 363.141 96.2676 360.743 98.9564C359.145 100.755 357.419 102.463 355.584 104.043C352.15 107.023 348.426 109.566 344.429 111.655C340.433 113.744 336.236 115.325 331.821 116.397C327.407 117.469 322.865 118.014 318.214 118.014C310.366 118.014 302.972 116.542 296.068 113.581C289.147 110.638 283.097 106.587 277.919 101.427C272.742 96.2858 268.654 90.2725 265.675 83.3871C262.695 76.5018 261.188 69.1441 261.188 61.2959C261.188 52.7392 262.677 44.7638 265.675 37.3153C268.654 29.8849 272.742 23.3993 277.919 17.8764C283.097 12.3536 289.147 7.99354 296.068 4.79612C302.99 1.59871 310.366 0 318.214 0C322.865 0 327.443 0.58134 331.93 1.78037C336.418 2.96123 340.687 4.68713 344.756 6.93986C348.826 9.19258 352.568 11.9721 356.02 15.2241C358.036 17.1498 359.908 19.239 361.597 21.4917C363.65 24.235 363.323 28.1046 360.907 30.5208V30.5753Z" fill="#22244E"/>
<path d="M421.531 88.6739C422.639 89.019 423.747 89.2552 424.873 89.3461C425.982 89.4551 427.09 89.5096 428.216 89.5096C430.996 89.5096 433.666 89.128 436.246 88.365C438.808 87.602 441.242 86.512 443.495 85.0768C445.748 83.6597 447.764 81.9157 449.544 79.8628C449.544 79.8446 449.581 79.8265 449.599 79.8083C452.324 76.6472 457.048 76.2294 459.991 79.1906L470.382 89.6186C472.926 92.1801 473.162 96.3222 470.764 99.0109C469.165 100.809 467.439 102.517 465.622 104.098C462.189 107.077 458.465 109.621 454.468 111.71C450.471 113.799 446.274 115.38 441.86 116.451C437.445 117.523 432.903 118.068 428.253 118.068C420.404 118.068 413.01 116.597 406.107 113.69C399.185 110.765 393.136 106.714 387.976 101.5C382.798 96.2859 378.711 90.0909 375.731 82.8967C372.734 75.7025 371.244 67.7998 371.244 59.1886C371.244 50.5774 372.734 42.2932 375.731 35.0082C378.711 27.705 382.798 21.4918 387.976 16.3505C393.154 11.2092 399.203 7.21244 406.107 4.3602C413.029 1.50796 420.404 0.0909424 428.253 0.0909424C432.903 0.0909424 437.463 0.65412 441.914 1.76231C446.365 2.87051 450.58 4.46922 454.577 6.55844C458.574 8.64766 462.316 11.1911 465.786 14.225C467.766 15.9508 469.619 17.8039 471.345 19.7659C473.561 22.3093 473.525 26.1063 471.381 28.7042L421.585 88.7102L421.531 88.6739ZM436.137 29.9759C434.811 29.4854 433.521 29.1765 432.231 29.0312C430.941 28.8858 429.615 28.8132 428.216 28.8132C424.328 28.8132 420.659 29.5217 417.225 30.9569C413.792 32.3739 410.794 34.4086 408.269 37.061C405.725 39.6953 403.727 42.8927 402.274 46.5988C400.82 50.323 400.075 54.5015 400.075 59.1523C400.075 60.1878 400.13 61.3687 400.239 62.6949C400.348 64.0211 400.511 65.3473 400.766 66.7098C401.002 68.0723 401.311 69.3622 401.656 70.6157C402.001 71.8693 402.455 72.9774 403.018 73.9403L436.173 29.9577L436.137 29.9759Z" fill="#22244E"/>
<path d="M60.4584 0.0545654H54.6449C48.3339 0.0545654 43.2178 5.17068 43.2178 11.4817V17.4042C43.2178 23.7152 48.3339 28.8313 54.6449 28.8313H60.4584C66.7694 28.8313 71.8855 23.7152 71.8855 17.4042V11.4817C71.8855 5.17068 66.7694 0.0545654 60.4584 0.0545654Z" fill="#22244E"/>
</svg>
