<svg width="626" height="157" viewBox="0 0 626 157" fill="none" xmlns="http://www.w3.org/2000/svg">
<path d="M234.498 152.232L225.35 141.872C219.73 144.848 213.117 146.501 205.843 146.501C182.258 146.501 166.056 129.308 166.056 104.4C166.056 79.4923 182.368 62.1891 205.953 62.1891C229.649 62.1891 245.96 79.3821 245.96 104.29C245.96 115.421 242.654 125.12 236.923 132.284L245.74 142.313L234.498 152.232ZM227.114 104.29C227.114 88.7501 219.179 79.3821 206.063 79.3821C192.838 79.3821 184.903 88.7501 184.903 104.29C184.903 119.94 192.838 129.308 206.063 129.308C208.708 129.308 211.023 128.977 213.227 128.206L202.537 116.083L213.778 106.164L224.359 118.066C226.122 114.319 227.114 109.69 227.114 104.29ZM292.896 90.0727H309.869V145.179H293.888L292.786 139.007C289.37 143.525 282.537 146.611 275.924 146.611C263.36 146.611 255.645 138.235 255.645 124.679V90.0727H272.618V118.507C272.618 127.545 275.703 131.512 282.647 131.512C289.921 131.512 292.896 127.765 292.896 118.728V90.0727ZM330.982 81.4762C325.581 81.4762 321.283 77.1779 321.283 71.7775C321.283 66.3771 325.581 62.1891 330.982 62.1891C336.272 62.1891 340.57 66.3771 340.57 71.7775C340.57 77.1779 336.272 81.4762 330.982 81.4762ZM322.605 145.179V90.0727H339.578V145.179H322.605ZM349.335 117.405C349.335 100.433 361.018 88.3093 377.549 88.3093C393.861 88.3093 404.662 97.2364 405.764 111.674H388.681C387.469 106.164 384.052 103.519 378.211 103.519C371.047 103.519 366.418 108.919 366.418 117.405C366.418 126.222 370.716 131.402 377.99 131.402C383.942 131.402 387.579 128.647 388.681 123.246H405.764C404.662 137.133 393.42 146.611 377.99 146.611C360.577 146.611 349.335 135.039 349.335 117.405ZM432.031 145.179H415.058V62.0789H432.031V109.911L449.885 90.0727H471.156L450.436 111.895L470.495 145.179H450.877L438.534 124.569L432.031 131.402V145.179ZM526.732 113.327H498.077V145.179H480.223V63.6219H532.133V80.1536H498.077V97.2364H526.732V113.327ZM550.652 81.4762C545.251 81.4762 540.953 77.1779 540.953 71.7775C540.953 66.3771 545.251 62.1891 550.652 62.1891C555.942 62.1891 560.24 66.3771 560.24 71.7775C560.24 77.1779 555.942 81.4762 550.652 81.4762ZM542.276 145.179V90.0727H559.248V145.179H542.276ZM588.954 145.179H571.981V62.0789H588.954V145.179ZM618.659 145.179H601.687V62.0789H618.659V145.179Z" fill="white"/>
<path d="M214.441 106.104L202.042 117.125L233.728 154.321L246.127 143.3L214.441 106.104Z" fill="white"/>
<path d="M84.5221 134.547C91.5639 137.919 98.6044 141.29 105.646 144.663C106.076 144.869 106.512 145.066 106.929 145.297C107.221 145.46 107.368 145.719 107.185 146.057C106.13 148.006 105.262 150.049 104.274 152.03C103.949 152.68 103.781 152.702 103.094 152.403C102.077 151.96 101.076 151.495 100.166 150.854C100.025 150.754 99.8128 150.669 99.9022 150.464C100.169 149.853 99.6996 149.698 99.3222 149.506C98.6242 149.151 97.9132 148.824 97.2072 148.486C85.9493 143.093 74.6926 137.701 63.4352 132.307C63.0215 132.109 62.6116 131.824 62.3002 132.462C62.2121 132.643 62.0122 132.571 61.8317 132.539C60.5784 132.315 59.6555 131.393 58.4912 130.974C58.0795 130.826 58.1154 130.437 58.3142 130.04C59.1716 128.331 60.003 126.61 60.835 124.888C61.4746 123.564 61.4777 123.543 62.7983 124.174C70.039 127.632 77.2746 131.102 84.5108 134.567L84.5215 134.545L84.5221 134.547Z" fill="#FDCF49"/>
<path d="M125.492 129.87C132.044 116.19 138.596 102.511 145.133 88.824C145.572 87.9068 146.094 87.0144 146.356 86.0224C146.752 84.5271 147.222 83.0586 147.398 81.4969C147.582 79.8567 147.695 78.2289 147.6 76.5881C147.438 73.7863 146.868 71.0455 145.652 68.5305C145.025 67.2344 145.282 66.2951 145.838 65.1575C147.96 60.8265 150.027 56.4677 152.091 52.1074C152.547 51.1419 152.484 50.2056 151.747 49.3342C151.246 48.7428 150.586 48.4758 149.927 48.1615C143.157 44.9237 136.392 41.6783 129.624 38.4358C123.074 35.2949 116.511 32.1833 109.978 29.0041C108.295 28.1853 106.805 28.8713 106.102 30.3513C103.994 34.7861 101.844 39.2022 99.7388 43.6381C99.3014 44.5606 98.8444 45.3666 97.657 45.335C97.5354 45.3317 97.4119 45.4202 97.2863 45.4527C95.4552 45.9423 93.7463 46.7365 92.0857 47.6174C90.4697 48.4749 88.9975 49.5764 87.6556 50.8054C86.5708 51.8 85.5154 52.8391 84.6793 54.0918C83.9612 55.1679 83.1311 56.1629 82.5667 57.3445C78.9898 64.8349 75.4005 72.3208 71.8153 79.8073L71.8106 79.805C68.5164 86.6839 65.2522 93.5786 61.9109 100.435C60.6774 102.965 59.7636 105.557 59.4044 108.358C59.1991 109.964 59.144 111.564 59.228 113.171C59.3437 115.386 59.8339 117.533 60.5545 119.625C60.9718 120.835 61.6121 121.906 62.8237 122.486C77.6726 129.602 92.5238 136.71 107.373 143.824C107.976 144.112 108.613 144.194 109.259 144.173C110.447 144.132 111.498 143.615 112.558 143.151C114.599 142.257 116.475 141.095 118.222 139.704C119.455 138.723 120.546 137.607 121.568 136.423C122.372 135.491 123.127 134.506 123.724 133.43C124.365 132.272 124.918 131.063 125.491 129.868L125.492 129.87ZM138.547 56.7743C137.909 58.2018 136.916 58.2399 135.881 57.8904C134.637 57.4714 133.407 56.9505 132.373 56.0701C131.957 55.7161 131.774 55.2303 131.466 54.8178C130.88 54.0351 130.184 53.4252 129.296 53.0219C128.822 52.8061 128.354 52.5733 127.889 52.3363C127.494 52.1356 127.086 51.9374 127.421 51.3653C127.473 51.2774 127.43 51.1076 127.385 50.9933C127.108 50.2947 127.264 49.7413 127.877 49.3053C128.461 48.8885 128.462 48.8833 128.12 48.1624C128.555 48.0494 129.084 48.1504 129.167 47.6141C129.249 47.0789 128.858 46.7945 128.422 46.5875C127.402 46.1016 126.381 45.6158 125.359 45.1376C124.937 44.9402 124.48 44.7358 124.093 45.1452C123.69 45.5719 124.152 45.9263 124.311 46.3512C123.559 46.3544 123.473 46.781 123.573 47.3902C123.673 48.007 123.249 48.5468 122.636 48.6528C122.421 48.6902 122.263 48.7793 122.192 48.9796C122.011 49.4925 121.703 49.3972 121.321 49.2114C120.385 48.7586 119.482 48.2305 118.444 48.0043C117.839 47.8725 117.234 47.7967 116.638 47.9328C115.766 48.1319 114.961 47.9707 114.195 47.5793C113.215 47.0782 112.139 46.748 111.319 45.9528C110.78 45.4298 110.591 44.6071 110.911 43.9394C111.824 42.0418 112.791 40.1673 113.636 38.2381C114.252 36.8309 115.538 36.6669 116.711 37.201C117.383 37.5069 118.037 37.8564 118.716 38.1482C119.489 38.4805 120.045 39.0348 120.447 39.747C121.023 40.7671 121.872 41.4818 122.906 41.9814C125.999 43.4729 129.103 44.9461 132.198 46.434C133.423 47.0221 134.67 47.2852 136.036 46.9692C136.578 46.8439 137.157 47.0112 137.68 47.2543C138.468 47.6202 139.26 47.9819 140.039 48.3666C141.306 48.9909 141.709 50.1668 141.104 51.4244C140.247 53.2055 139.348 54.9667 138.544 56.7714L138.547 56.7743Z" fill="#FDCF49"/>
<rect x="35.9287" y="28.1769" width="69.6994" height="5.17659" rx="2.5883" transform="rotate(26.3455 35.9287 28.1769)" fill="#FDCF49"/>
<rect x="38.5039" y="41.7525" width="69.6994" height="5.17659" rx="2.5883" transform="rotate(26.3455 38.5039 41.7525)" fill="#FDCF49"/>
<rect x="44.6709" y="56.6982" width="69.6994" height="5.17659" rx="2.5883" transform="rotate(26.3455 44.6709 56.6982)" fill="#FDCF49"/>
<rect x="50.8398" y="71.6454" width="69.6994" height="5.17659" rx="2.5883" transform="rotate(26.3455 50.8398 71.6454)" fill="#FDCF49"/>
<rect x="45.958" y="81.8326" width="7.01573" height="5.17659" rx="2.5883" transform="rotate(26.3455 45.958 81.8326)" fill="#FDCF49"/>
<rect x="30.7227" y="49.6887" width="11.9852" height="5.17659" rx="2.5883" transform="rotate(26.3455 30.7227 49.6887)" fill="#FDCF49"/>
<rect x="55.377" y="86.0869" width="69.6994" height="5.17659" rx="2.5883" transform="rotate(26.3455 55.377 86.0869)" fill="#FDCF49"/>
<path d="M103.564 113.189L102.563 108.241C100.241 108.155 97.847 107.471 95.5458 106.142C88.0843 101.834 86.0993 93.4357 90.6487 85.5559C95.1982 77.676 103.519 75.1812 110.98 79.4891C118.477 83.8171 120.497 92.2356 115.947 100.115C113.914 103.637 111.097 106.101 107.975 107.321L108.932 112.104L103.564 113.189ZM109.985 96.6732C112.823 91.757 112.024 87.3439 107.875 84.9484C103.691 82.5328 99.4694 84.0471 96.631 88.9633C93.7725 93.9143 94.5719 98.3274 98.7559 100.743C99.5927 101.226 100.385 101.544 101.223 101.703L100.056 95.9149L105.424 94.8301L106.597 100.528C107.839 99.6649 108.999 98.3816 109.985 96.6732Z" fill="#3A0050"/>
</svg>
