<svg width="59" height="133" viewBox="0 0 59 133" fill="none" xmlns="http://www.w3.org/2000/svg">
<mask id="path-1-outside-1_3751_7501" maskUnits="userSpaceOnUse" x="-8.12305" y="-8" width="75" height="149" fill="black">
<rect fill="white" x="-8.12305" y="-8" width="75" height="149"/>
<path d="M30.471 26.6745H0.449688V0.76322H58.1693V133H30.471V26.6745Z"/>
</mask>
<path d="M30.471 26.6745H0.449688V0.76322H58.1693V133H30.471V26.6745Z" fill="#FDCF49"/>
<path d="M30.471 26.6745H38.2405V18.905H30.471V26.6745ZM0.449687 26.6745H-7.31981V34.444H0.449687V26.6745ZM0.449687 0.763222V-7.00628H-7.31981V0.763222H0.449687ZM58.1693 0.763222H65.9388V-7.00628H58.1693V0.763222ZM58.1693 133V140.77H65.9388V133H58.1693ZM30.471 133H22.7015V140.77H30.471V133ZM30.471 18.905H0.449687V34.444H30.471V18.905ZM8.21918 26.6745V0.763222H-7.31981V26.6745H8.21918ZM0.449687 8.53271H58.1693V-7.00628H0.449687V8.53271ZM50.3998 0.763222V133H65.9388V0.763222H50.3998ZM58.1693 125.23H30.471V140.77H58.1693V125.23ZM38.2405 133V26.6745H22.7015V133H38.2405Z" fill="#1F0229" mask="url(#path-1-outside-1_3751_7501)"/>
</svg>
