<svg width="99" height="136" viewBox="0 0 99 136" fill="none" xmlns="http://www.w3.org/2000/svg">
<mask id="path-1-outside-1_3751_7507" maskUnits="userSpaceOnUse" x="-8" y="-7.71777" width="114" height="151" fill="black">
<rect fill="white" x="-8" y="-7.71777" width="114" height="151"/>
<path d="M98.1534 134.925L3.80069 135.282V113.838L47.4031 77.5627C61.5203 65.9473 67.4173 57.7271 67.4173 46.8265C67.4173 33.4242 60.8055 26.2762 49.0114 26.2762C36.6812 26.2762 29.5333 34.6751 29.5333 49.507H0.762818C0.762818 19.8431 19.7048 0.54367 48.8327 0.54367C79.0327 0.54367 97.0812 16.8052 97.0812 45.0396C97.0812 63.0881 86.1806 77.7414 69.7404 91.5011L49.9049 108.12H98.1534V134.925Z"/>
</mask>
<path d="M98.1534 134.925L3.80069 135.282V113.838L47.4031 77.5627C61.5203 65.9473 67.4173 57.7271 67.4173 46.8265C67.4173 33.4242 60.8055 26.2762 49.0114 26.2762C36.6812 26.2762 29.5333 34.6751 29.5333 49.507H0.762818C0.762818 19.8431 19.7048 0.54367 48.8327 0.54367C79.0327 0.54367 97.0812 16.8052 97.0812 45.0396C97.0812 63.0881 86.1806 77.7414 69.7404 91.5011L49.9049 108.12H98.1534V134.925Z" fill="#FDD86E"/>
<path d="M98.1534 134.925L98.1829 142.694L105.923 142.665V134.925H98.1534ZM3.80069 135.282H-3.9688V143.081L3.83012 143.052L3.80069 135.282ZM3.80069 113.838L-1.1684 107.866L-3.9688 110.196V113.838H3.80069ZM47.4031 77.5627L42.4666 71.563L42.4503 71.5764L42.434 71.59L47.4031 77.5627ZM29.5333 49.507V57.2765H37.3027V49.507H29.5333ZM0.762817 49.507H-7.00668V57.2765H0.762817V49.507ZM69.7404 91.5011L64.7537 85.5431L64.7507 85.5457L69.7404 91.5011ZM49.9049 108.12L44.9151 102.165L28.5337 115.89H49.9049V108.12ZM98.1534 108.12H105.923V100.351H98.1534V108.12ZM98.124 127.155L3.77126 127.513L3.83012 143.052L98.1829 142.694L98.124 127.155ZM11.5702 135.282V113.838H-3.9688V135.282H11.5702ZM8.76978 119.811L52.3722 83.5354L42.434 71.59L-1.1684 107.866L8.76978 119.811ZM52.3396 83.5624C66.7666 71.692 75.1868 61.4569 75.1868 46.8265H59.6478C59.6478 53.9974 56.2739 60.2025 42.4666 71.563L52.3396 83.5624ZM75.1868 46.8265C75.1868 38.949 73.2459 31.6796 68.4029 26.3177C63.4462 20.83 56.5115 18.5067 49.0114 18.5067V34.0457C53.3053 34.0457 55.5736 35.2964 56.8714 36.7333C58.2828 38.2959 59.6478 41.3017 59.6478 46.8265H75.1868ZM49.0114 18.5067C40.9637 18.5067 33.7541 21.3277 28.7047 27.3261C23.8176 33.1315 21.7638 40.9519 21.7638 49.507H37.3027C37.3027 43.2301 38.8229 39.4352 40.5923 37.3332C42.1994 35.4241 44.7289 34.0457 49.0114 34.0457V18.5067ZM29.5333 41.7375H0.762817V57.2765H29.5333V41.7375ZM8.53231 49.507C8.53231 36.3502 12.703 26.1858 19.4192 19.3442C26.1216 12.5167 36.0291 8.31316 48.8327 8.31316V-7.22582C32.5085 -7.22582 18.3809 -1.77962 8.33038 8.45854C-1.70632 18.6826 -7.00668 32.9999 -7.00668 49.507H8.53231ZM48.8327 8.31316C62.5965 8.31316 72.5707 12.0097 79.0326 17.9317C85.4005 23.7675 89.3117 32.6356 89.3117 45.0396H104.851C104.851 29.2092 99.7377 15.8294 89.5313 6.47578C79.419 -2.79156 65.2689 -7.22582 48.8327 -7.22582V8.31316ZM89.3117 45.0396C89.3117 59.5772 80.6386 72.2482 64.7537 85.5431L74.727 97.4592C91.7227 83.2345 104.851 66.599 104.851 45.0396H89.3117ZM64.7507 85.5457L44.9151 102.165L54.8946 114.076L74.7301 97.4566L64.7507 85.5457ZM49.9049 115.89H98.1534V100.351H49.9049V115.89ZM90.3839 108.12V134.925H105.923V108.12H90.3839Z" fill="#1F0229" mask="url(#path-1-outside-1_3751_7507)"/>
</svg>
