<svg width="98" height="135" viewBox="0 0 98 135" fill="none" xmlns="http://www.w3.org/2000/svg">
<mask id="path-1-outside-1_3751_7508" maskUnits="userSpaceOnUse" x="-7.89258" y="-8.54346" width="113" height="152" fill="black">
<rect fill="white" x="-7.89258" y="-8.54346" width="113" height="152"/>
<path d="M45.9694 70.2695H26.67V51.6849C27.0274 51.3275 27.3848 51.1488 27.7422 50.7914L56.5126 25.5949H6.6558V0.219763H92.7884V23.2719L64.9115 47.7535C82.7813 53.1145 97.2559 67.4103 97.2559 89.9263C97.2559 117.803 74.7399 134.78 47.9351 134.78C22.2026 134.78 0.580058 119.054 0.580058 89.2115H29.1718C29.1718 102.257 37.0345 109.226 48.6499 109.226C59.9079 109.226 67.5919 101.542 67.5919 89.7476C67.5919 79.2044 61.5162 70.2695 45.9694 70.2695Z"/>
</mask>
<path d="M45.9694 70.2695H26.67V51.6849C27.0274 51.3275 27.3848 51.1488 27.7422 50.7914L56.5126 25.5949H6.6558V0.219763H92.7884V23.2719L64.9115 47.7535C82.7813 53.1145 97.2559 67.4103 97.2559 89.9263C97.2559 117.803 74.7399 134.78 47.9351 134.78C22.2026 134.78 0.580058 119.054 0.580058 89.2115H29.1718C29.1718 102.257 37.0345 109.226 48.6499 109.226C59.9079 109.226 67.5919 101.542 67.5919 89.7476C67.5919 79.2044 61.5162 70.2695 45.9694 70.2695Z" fill="#FEEBB7"/>
<path d="M26.67 70.2695H18.9005V78.039H26.67V70.2695ZM26.67 51.6849L21.1761 46.191L18.9005 48.4667V51.6849H26.67ZM27.7422 50.7914L22.6234 44.9465L22.4301 45.1158L22.2483 45.2975L27.7422 50.7914ZM56.5126 25.5949L61.6315 31.4398L77.177 17.8254H56.5126V25.5949ZM6.6558 25.5949H-1.11369V33.3644H6.6558V25.5949ZM6.6558 0.219765V-7.54973H-1.11369V0.219765H6.6558ZM92.7884 0.219765H100.558V-7.54973H92.7884V0.219765ZM92.7884 23.2719L97.9153 29.1097L100.558 26.7889V23.2719H92.7884ZM64.9115 47.7535L59.7846 41.9157L49.2505 51.1668L62.6789 55.1953L64.9115 47.7535ZM0.580058 89.2115V81.442H-7.18944V89.2115H0.580058ZM29.1718 89.2115H36.9413V81.442H29.1718V89.2115ZM45.9694 62.5H26.67V78.039H45.9694V62.5ZM34.4395 70.2695V51.6849H18.9005V70.2695H34.4395ZM32.1639 57.1787C31.9 57.4426 31.6559 57.6126 31.8678 57.4537C32.0133 57.3446 32.6148 56.9065 33.2361 56.2853L22.2483 45.2975C22.5122 45.0337 22.7563 44.8636 22.5444 45.0225C22.3989 45.1317 21.7974 45.5698 21.1761 46.191L32.1639 57.1787ZM32.861 56.6363L61.6315 31.4398L51.3938 19.75L22.6234 44.9465L32.861 56.6363ZM56.5126 17.8254H6.6558V33.3644H56.5126V17.8254ZM14.4253 25.5949V0.219765H-1.11369V25.5949H14.4253ZM6.6558 7.98926H92.7884V-7.54973H6.6558V7.98926ZM85.0189 0.219765V23.2719H100.558V0.219765H85.0189ZM87.6616 17.434L59.7846 41.9157L70.0383 53.5914L97.9153 29.1097L87.6616 17.434ZM62.6789 55.1953C77.9353 59.7722 89.4864 71.496 89.4864 89.9263H105.025C105.025 63.3247 87.6273 46.4567 67.144 40.3117L62.6789 55.1953ZM89.4864 89.9263C89.4864 112.459 71.5835 127.01 47.9351 127.01V142.549C77.8962 142.549 105.025 123.147 105.025 89.9263H89.4864ZM47.9351 127.01C36.5997 127.01 26.7136 123.55 19.7687 117.379C12.951 111.32 8.34955 102.115 8.34955 89.2115H-7.18944C-7.18944 106.151 -0.979612 119.729 9.44704 128.994C19.7465 138.147 33.538 142.549 47.9351 142.549V127.01ZM0.580058 96.981H29.1718V81.442H0.580058V96.981ZM21.4023 89.2115C21.4023 97.3139 23.88 104.491 29.0975 109.64C34.2897 114.765 41.2989 116.995 48.6499 116.995V101.456C44.3855 101.456 41.6556 100.202 40.0127 98.5806C38.3949 96.984 36.9413 94.1542 36.9413 89.2115H21.4023ZM48.6499 116.995C56.0954 116.995 62.9221 114.417 67.891 109.348C72.8504 104.289 75.3614 97.3616 75.3614 89.7476H59.8224C59.8224 93.9278 58.4915 96.7393 56.7943 98.4706C55.1067 100.192 52.4624 101.456 48.6499 101.456V116.995ZM75.3614 89.7476C75.3614 83.0367 73.4136 76.0061 68.1741 70.6314C62.879 65.1997 55.2398 62.5 45.9694 62.5V78.039C52.2458 78.039 55.4179 79.8068 57.0473 81.4783C58.7324 83.2069 59.8224 85.9154 59.8224 89.7476H75.3614Z" fill="#1F0229" mask="url(#path-1-outside-1_3751_7508)"/>
</svg>
