<svg width="65" height="64" viewBox="0 0 65 64" fill="none" xmlns="http://www.w3.org/2000/svg">
<g clip-path="url(#clip0_4414_7332)">
<path d="M60.7064 26.9857C57.7995 26.4316 52.4507 26.0982 50.422 28.1551C48.3604 30.3575 48.9568 34.2317 48.1491 37.0494C46.5572 44.023 40.039 48.8083 32.9245 48.6862C25.594 49.0713 18.7706 44.4644 17.0002 37.2748C16.0328 34.1989 16.9157 29.578 13.9994 27.5962C12.6751 26.765 10.9047 26.6664 9.34564 26.6148C2.17008 26.225 0.211823 28.6857 0.97728 35.5983C3.62116 66.0005 44.2279 74.2844 59.8752 48.921C61.8099 45.7042 63.1107 42.1117 63.7447 38.4159C64.327 34.6826 65.3836 28.31 60.8144 27.0186L60.7064 26.9904V26.9857Z" fill="white"/>
<path d="M58.1654 0.786499H55.0473C51.6756 0.786499 48.9424 3.51974 48.9424 6.89137V10.0612C48.9424 13.4328 51.6756 16.1661 55.0473 16.1661H58.1654C61.5371 16.1661 64.2703 13.4328 64.2703 10.0612V6.89137C64.2703 3.51974 61.5371 0.786499 58.1654 0.786499Z" fill="white"/>
<path d="M10.0551 0.786499H6.9369C3.56527 0.786499 0.832031 3.51974 0.832031 6.89137V10.0612C0.832031 13.4328 3.56527 16.1661 6.9369 16.1661H10.0551C13.4267 16.1661 16.1599 13.4328 16.1599 10.0612V6.89137C16.1599 3.51974 13.4267 0.786499 10.0551 0.786499Z" fill="white"/>
</g>
<defs>
<clipPath id="clip0_4414_7332">
<rect width="63.4578" height="63.1572" fill="white" transform="translate(0.822266 0.786499)"/>
</clipPath>
</defs>
</svg>
