<svg width="546" height="194" viewBox="0 0 546 194" fill="none" xmlns="http://www.w3.org/2000/svg">
<g clip-path="url(#clip0_1830_3233)">
<path d="M543.31 113.635C537.442 123.999 531.393 128.107 527.476 128.107C525.699 128.107 525.518 125.785 526.233 123.999L540.289 83.0873C543.671 74.153 543.845 64.5075 533.886 64.5075C528.546 64.5075 520.365 71.8306 517.518 72.012C516.275 72.1934 516.983 69.5081 517.699 67.0114C517.879 66.83 517.879 66.4743 517.879 66.2929V66.1114C517.699 65.2187 516.99 64.5075 515.921 64.5075H515.213C511.657 64.5075 508.629 67.367 508.629 70.7637C508.449 73.0861 509.164 74.8716 511.122 75.5901C507.177 87.6452 501.251 103.663 495.253 113.766L495.108 113.65C488.525 120.262 479.094 128.833 467.177 128.303C454.899 127.766 449.211 117.583 454.899 98.6407C477.851 98.1037 491.899 93.6401 495.997 81.8463C498.844 73.6305 494.573 65.4074 484.08 64.6962C477.851 64.3405 461.489 64.6962 448.496 89.3508C443.495 98.7351 441.818 107.227 443.235 114.056C439.694 119.383 434.816 123.382 428.398 126.692C426.975 117.221 421.641 110.609 411.495 111.146C431.6 101.319 444.406 88.9879 444.406 75.7715C444.406 64.6962 433.016 61.1181 423.593 63.622C414.516 65.9445 406.335 75.5901 399.398 90.5991C394.419 101.319 390.682 108.286 386.411 114.005L386.578 114.267C380.659 124.413 374.957 130.067 371.821 129.37C368.265 128.652 370.043 123.295 372.89 115.435L382.495 88.4581C387.654 74.1675 383.918 64.5147 368.793 64.5147C364.348 64.5147 360.077 66.8372 356.514 70.2338L358.473 65.2332C358.654 64.8776 346.91 66.4816 346.73 66.663C345.711 72.8249 335.969 96.6811 329.046 113.737L328.945 113.65C322.361 120.262 312.93 128.833 301.013 128.303C288.735 127.766 283.048 117.583 288.735 98.6407C311.687 98.1037 325.736 93.6401 329.834 81.8463C332.681 73.6305 328.41 65.4074 317.917 64.6962C311.687 64.3405 295.326 64.6962 282.332 89.3508C277.368 98.6625 275.677 107.096 277.035 113.897C271.211 124.246 265.227 128.122 261.346 128.122C259.568 128.122 259.388 125.799 260.103 124.014L282.52 65.0518C282.701 64.5147 275.583 64.8704 271.666 65.7703C270.972 67.8606 260.443 99.156 255.579 113.788C249.733 124.05 243.72 128.129 239.825 128.129C238.047 128.129 237.867 125.807 238.582 124.021L252.638 83.1091C256.02 74.1748 256.194 64.5292 246.235 64.5292C240.895 64.5292 232.714 71.8523 229.867 72.0338C228.624 72.2152 229.332 69.5298 230.047 67.0332C230.228 66.8517 230.228 66.4961 230.228 66.3147V66.1332C230.047 65.2405 229.339 64.5292 228.27 64.5292H227.561C224.006 64.5292 220.978 67.3888 220.978 70.7854C220.797 73.1079 221.513 74.8933 223.471 75.6118C219.525 87.667 213.599 103.685 207.601 113.788L207.457 113.672C200.873 120.283 191.442 128.855 179.526 128.325C167.247 127.788 161.56 117.605 167.247 98.6625C190.199 98.1254 204.248 93.6619 208.346 81.868C211.193 73.6523 206.922 65.4292 196.429 64.7179C190.199 64.3623 173.838 64.7179 160.845 89.3726C155.844 98.7569 154.167 107.256 155.583 114.085C148.899 124.108 141.578 127.251 137.719 127.251C136.295 127.251 135.226 126.714 134.518 126.002C138.435 123.143 142.171 118.317 145.726 110.638C159.428 79.727 155.331 64.1881 137.719 64.1881C133.983 64.1881 130.601 65.2623 127.226 67.4033C123.67 67.7589 120.288 67.5848 119.045 67.4033C118.865 67.2219 118.691 67.4033 118.511 67.5848L102.164 113.933C97.3508 122.011 89.6182 127.614 82.9263 127.614C72.4332 127.614 69.2245 114.034 70.8288 88.6613C74.9191 84.1905 78.6553 79.9084 82.2181 75.6191C106.767 45.2454 122.782 14.3346 121.358 3.61484C118.691 3.97047 111.392 2.00362 108.372 0.0440216C112.288 15.7643 100.718 44.1712 78.4819 73.1152C76.35 75.9747 73.8568 78.8343 71.3636 81.6938C72.0718 73.4781 72.9679 64.1881 74.565 53.9982C79.7249 21.4835 69.7593 10.4008 50.1894 9.33396C8.54195 6.96793 -8.71539 65.3929 12.0975 77.361C12.6323 73.4273 17.0767 67.1783 26.8616 64.6744C19.5699 62.889 16.7226 56.9884 16.3685 49.6653C15.6602 36.4417 28.8201 10.0017 49.4595 11.6056C64.5777 12.854 68.6753 22.5068 64.0502 54.1289C61.7376 69.8492 60.314 82.5358 60.1333 92.7184C40.7441 110.05 17.0839 123.629 0 127.2C3.55553 130.771 5.34053 137.027 5.69463 140.598C23.4868 131.482 43.0566 116.117 60.1333 99.5044C60.6681 124.34 68.6753 130.589 82.5505 130.589C88.91 130.589 94.5902 127.381 99.0852 122.541L78.2868 181.51C81.1341 179.006 85.2244 175.079 93.405 175.254C92.6968 172.038 99.2731 150.599 107.107 127.548C110.135 129.515 113.336 130.589 116.357 130.589C119.204 130.589 124.718 131.301 130.767 128.448C132.371 129.523 135.392 130.234 138.42 130.234C143.544 130.234 149.896 126.677 156.48 117.141C159.493 125.044 167.37 130.118 179.692 130.764C191.927 131.424 201.09 124.224 207.89 116.887C208.346 116.938 208.851 116.734 209.22 116.11C215.623 105.39 222.026 88.9516 226.123 75.728C233.776 75.0095 238.756 68.5791 243.2 68.5791C247.29 68.5791 246.582 73.7611 244.27 80.1915L230.929 115.929C227.547 124.863 232.172 130.582 239.471 130.582C241.993 130.582 247.052 129.472 252.913 122.192C252.493 124.986 253.18 130.582 261.173 130.582C264.027 130.582 270.676 128.985 277.982 117.126C280.996 125.037 288.873 130.11 301.194 130.764C311.832 131.344 320.143 125.973 326.603 119.739C324.992 123.731 323.684 127.033 322.896 129.152H331.792C333.57 124.152 344.598 98.9601 352.251 80.3729C355.098 73.9426 361.682 67.1493 368.793 67.1493C375.904 67.1493 377.154 73.9353 372.71 85.555L362.57 112.358C357.945 124.689 360.793 130.764 368.265 132.368C375.022 133.797 381.251 128.797 389.078 114.862L388.767 114.68C393.125 109.607 397.129 102.698 401.884 91.9926C407.224 79.8431 415.224 68.5863 424.655 67.6936C431.593 66.9824 435.683 71.0903 433.732 79.4875C431.239 90.0258 420.211 103.605 402.064 113.076L402.773 114.506C403.127 114.325 403.481 114.151 403.842 114.151C415.94 111.11 419.856 120.044 420.211 131.126C402.064 140.953 379.474 152.392 372.71 169.36C367.376 182.94 371.286 192.23 380.182 193.659C407.224 197.949 430.704 158.996 428.753 129.697C434.498 126.815 440.518 122.062 444.138 117.119C447.152 125.037 455.022 130.118 467.358 130.771C479.592 131.431 488.756 124.232 495.556 116.894C496.011 116.945 496.517 116.742 496.886 116.117C503.289 105.398 509.692 88.9589 513.789 75.7352C521.442 75.0167 526.421 68.5863 530.866 68.5863C534.956 68.5863 534.248 73.7684 531.935 80.1988L518.595 115.936C515.213 124.87 519.838 130.589 527.137 130.589C530.338 130.589 537.63 128.804 545.464 114.869L543.332 113.621L543.31 113.635ZM459.343 87.3694C467.524 70.3935 476.6 66.8227 482.649 66.8227C488.698 66.8227 491.726 71.6491 487.455 79.6834C482.122 89.8661 472.51 93.974 455.968 95.9408C456.857 93.2627 457.927 90.4032 459.35 87.3622L459.343 87.3694ZM293.18 87.3694C301.36 70.3935 310.437 66.8227 316.486 66.8227C322.535 66.8227 325.555 71.6491 321.292 79.6834C315.958 89.8661 306.347 93.974 289.805 95.9408C290.694 93.2627 291.763 90.4032 293.187 87.3622L293.18 87.3694ZM171.677 87.3694C179.858 70.3935 188.935 66.8227 194.983 66.8227C201.032 66.8227 204.053 71.6491 199.789 79.6834C194.456 89.8661 184.844 93.974 168.302 95.9408C169.191 93.2627 170.261 90.4032 171.685 87.3622L171.677 87.3694ZM116.169 128.107C113.322 128.107 110.655 127.033 107.808 125.248C115.461 102.916 123.822 79.5093 127.197 70.575C127.197 70.3935 127.378 70.3935 127.378 70.2193C130.579 68.0783 133.961 66.6485 137.871 66.6485C148.725 66.6485 147.121 80.0463 135.739 108.098C127.912 127.396 121.148 127.933 116.169 128.107ZM379.994 189.392C373.591 187.788 372.341 180.813 375.723 171.705C381.952 154.017 402.765 143.298 420.196 134.363C419.307 157.944 399.918 194.574 379.987 189.392H379.994Z" fill="#FF7CD3"/>
<path d="M136.011 166.608L135.982 152.963L129.247 164.256H127.549L120.813 153.137V166.608H117.186V146.017H120.322L128.466 159.662L136.459 146.017H139.596L139.624 166.608H136.026H136.011Z" fill="#59FFF5"/>
<path d="M164.306 161.85H154.059L152.035 166.618H148.111L157.34 146.028H161.09L170.348 166.618H166.366L164.314 161.85H164.306ZM163.049 158.852L159.183 149.853L155.345 158.852H163.049Z" fill="#59FFF5"/>
<path d="M185.851 157.993L182.599 161.346V166.608H178.791V146.017H182.599V156.577L192.731 146.017H197.01L188.395 155.227L197.53 166.608H193.078L185.844 157.993H185.851Z" fill="#59FFF5"/>
<path d="M221.382 163.41V166.618H206.004V146.028H220.97V149.236H209.812V154.592H219.713V157.742H209.812V163.417H221.382V163.41Z" fill="#59FFF5"/>
<path d="M235.329 165.534C233.652 164.62 232.33 163.357 231.376 161.739C230.422 160.12 229.938 158.313 229.938 156.31C229.938 154.307 230.414 152.499 231.376 150.881C232.33 149.262 233.652 148 235.329 147.085C237.005 146.171 238.891 145.721 240.98 145.721C243.068 145.721 244.955 146.178 246.631 147.085C248.308 148 249.63 149.255 250.584 150.866C251.538 152.478 252.022 154.285 252.022 156.31C252.022 158.335 251.545 160.142 250.584 161.753C249.623 163.364 248.308 164.62 246.631 165.534C244.955 166.449 243.068 166.899 240.98 166.899C238.891 166.899 237.005 166.442 235.329 165.534ZM244.673 162.624C245.764 162.007 246.624 161.143 247.253 160.033C247.874 158.923 248.192 157.689 248.192 156.31C248.192 154.931 247.881 153.697 247.253 152.587C246.624 151.476 245.771 150.62 244.673 149.996C243.582 149.379 242.346 149.067 240.98 149.067C239.614 149.067 238.386 149.379 237.287 149.996C236.196 150.612 235.336 151.476 234.707 152.587C234.078 153.697 233.768 154.938 233.768 156.31C233.768 157.681 234.078 158.923 234.707 160.033C235.329 161.143 236.189 162.007 237.287 162.624C238.378 163.241 239.607 163.553 240.98 163.553C242.353 163.553 243.574 163.241 244.673 162.624Z" fill="#59FFF5"/>
<path d="M280.019 146.017L271.087 166.608H267.336L258.375 146.017H262.501L269.323 161.897L276.203 146.017H280.012H280.019Z" fill="#59FFF5"/>
<path d="M303.419 163.41V166.618H288.041V146.028H303.008V149.236H291.849V154.592H301.75V157.742H291.849V163.417H303.419V163.41Z" fill="#59FFF5"/>
<path d="M326.944 166.608L322.752 160.576C322.579 160.598 322.312 160.605 321.965 160.605H317.34V166.608H313.531V146.017H321.965C323.743 146.017 325.289 146.308 326.604 146.903C327.92 147.491 328.931 148.332 329.632 149.436C330.333 150.532 330.687 151.838 330.687 153.348C330.687 154.857 330.312 156.229 329.56 157.347C328.808 158.464 327.732 159.299 326.322 159.843L331.042 166.608H326.944ZM325.564 150.314C324.704 149.61 323.446 149.254 321.784 149.254H317.332V157.463H321.784C323.446 157.463 324.704 157.107 325.564 156.389C326.424 155.67 326.85 154.661 326.85 153.348C326.85 152.034 326.424 151.025 325.564 150.321V150.314Z" fill="#59FFF5"/>
<path d="M342.568 166.234C341.094 165.784 339.93 165.189 339.07 164.442L340.386 161.473C341.224 162.141 342.257 162.685 343.479 163.106C344.7 163.527 345.921 163.738 347.157 163.738C348.682 163.738 349.816 163.491 350.568 163.005C351.32 162.511 351.695 161.865 351.695 161.06C351.695 160.472 351.486 159.985 351.067 159.601C350.647 159.216 350.113 158.919 349.47 158.701C348.826 158.483 347.945 158.244 346.832 157.968C345.271 157.598 344.006 157.22 343.038 156.85C342.069 156.48 341.238 155.892 340.552 155.101C339.858 154.31 339.511 153.236 339.511 151.878C339.511 150.739 339.822 149.708 340.436 148.772C341.05 147.843 341.975 147.103 343.218 146.551C344.461 146 345.979 145.731 347.771 145.731C349.021 145.731 350.25 145.891 351.464 146.203C352.671 146.515 353.719 146.965 354.6 147.553L353.401 150.521C352.505 149.991 351.565 149.592 350.59 149.316C349.614 149.041 348.667 148.903 347.75 148.903C346.246 148.903 345.126 149.157 344.396 149.665C343.666 150.173 343.298 150.848 343.298 151.697C343.298 152.285 343.508 152.764 343.927 153.141C344.346 153.511 344.881 153.809 345.524 154.027C346.167 154.245 347.049 154.484 348.161 154.76C349.686 155.115 350.937 155.478 351.912 155.863C352.888 156.248 353.726 156.828 354.42 157.612C355.114 158.396 355.46 159.456 355.46 160.791C355.46 161.93 355.15 162.961 354.535 163.883C353.921 164.805 352.989 165.538 351.739 166.089C350.488 166.641 348.964 166.909 347.171 166.909C345.589 166.909 344.064 166.684 342.59 166.234H342.568Z" fill="#59FFF5"/>
<path d="M327.471 28.5027C327.471 28.5027 327.435 28.4446 327.42 28.4084C327.579 27.6753 327.673 26.9278 327.681 26.173C327.695 24.6706 327.341 23.4949 326.625 22.682C325.686 21.6151 324.248 21.2885 322.969 21.1143C320.887 20.824 318.777 20.7514 316.689 20.8893C316.053 20.5264 315.402 20.1635 314.694 19.8297C313.69 19.3579 312.461 18.7846 311.095 18.9079C309.52 19.0604 308.262 20.149 307.345 21.0853C305.885 20.9619 304.519 21.5062 303.377 22.0723C301.939 22.7836 300.566 23.6473 299.294 24.6271C298.702 25.0843 298.102 25.6141 297.784 26.3472C297.401 27.2326 297.516 28.1979 297.683 29.0253C298.073 30.9994 298.759 32.9009 299.728 34.6645C300.053 35.2597 300.407 35.833 300.783 36.3992C300.776 36.45 300.754 36.5008 300.754 36.5516C300.768 38.2717 300.79 40.2313 301.636 41.9659C302.048 42.815 302.633 43.548 303.124 44.1069C300.263 46.11 297.104 46.981 293.758 47.8809C293.057 48.0696 292.349 48.2656 291.641 48.4688C292.053 47.4745 292.212 46.3641 292.082 45.3044C291.937 44.1142 291.431 42.9674 290.665 42.0457C291.207 41.9949 291.735 41.8352 292.19 41.5667C293.556 40.7611 294.12 39.2297 294.431 38.1483C295.486 34.4468 294.994 30.7381 293.108 28.2342L292.935 28.0092C292.638 27.6318 292.364 27.2689 292.349 26.8262C292.349 26.5649 292.349 26.1367 292.017 25.781C291.721 25.469 291.33 25.4109 291.2 25.3891C290.702 25.3238 290.239 25.3891 289.805 25.527C289.473 24.7359 288.837 24.0827 288.049 23.7416C287.992 23.7198 287.927 23.7126 287.861 23.7053C287.861 23.7053 287.861 23.6981 287.847 23.6908C286.712 22.682 285.13 23.6328 284.609 23.9376C282.976 24.9101 281.22 25.6722 279.262 26.2455C278.756 26.3907 278.178 26.5576 277.672 26.9133C276.942 27.4213 276.537 28.2487 276.646 29.0253C276.703 29.3954 276.862 29.7148 276.978 29.9397C277.094 30.1647 277.238 30.3752 277.39 30.5784C277.036 30.6583 276.682 30.7526 276.335 30.8687C275.28 31.2099 275.179 31.9066 275.186 32.1969C275.2 32.5453 275.367 32.8138 275.46 32.959L279.666 39.4764C280.396 40.6087 281.227 41.8933 282.456 42.7642C283.482 43.4972 284.74 43.8674 285.997 43.8674C287.254 43.8674 288.382 43.519 289.379 42.8586C290.03 43.5843 290.463 44.5133 290.579 45.4786C290.716 46.5818 290.441 47.743 289.827 48.672C289.748 48.7954 289.719 48.926 289.719 49.0567C287.739 49.7171 285.78 50.5518 283.916 51.8074C282.246 52.9396 279.385 55.3637 278.973 58.92C278.922 59.3337 279.218 59.7111 279.638 59.7619C279.666 59.7619 279.695 59.7619 279.724 59.7619C280.1 59.7619 280.425 59.4788 280.469 59.0942C280.808 56.1403 283.301 54.05 284.754 53.063C287.674 51.0816 290.962 50.1962 294.141 49.3397C297.531 48.4253 301.021 47.46 304.158 45.2101C305.791 46.8213 307.504 47.9317 309.274 48.5051C309.636 48.6212 310.098 48.7519 310.589 48.7519C310.683 48.7519 310.785 48.7519 310.879 48.7373C311.384 48.6865 311.825 48.4906 312.223 48.3164C312.418 48.2293 312.62 48.1422 312.83 48.0406C312.916 48.135 313.025 48.2148 313.155 48.2511C314.694 48.7011 316.291 48.9696 317.896 49.0567C318.091 49.0639 318.3 49.0785 318.517 49.0785C318.9 49.0785 319.305 49.0567 319.71 48.9769C320.374 48.8462 320.96 48.5849 321.531 48.3309C322.383 47.9535 323.345 47.5253 324.06 46.7124C325.115 45.5004 325.267 43.8166 325.375 42.59C325.375 42.59 325.375 42.5828 325.375 42.5755C326.43 42.2634 327.5 41.9078 328.317 41.0296C329.104 40.1804 329.516 38.9176 329.502 37.3862C329.487 35.6806 329.032 34.0694 328.598 32.509L327.464 28.4809L327.471 28.5027ZM290.81 26.8334H290.846V26.8552C290.846 26.8552 290.846 27.0221 290.846 27.0294C290.882 27.835 291.359 28.4592 291.749 28.9527L291.908 29.1559C293.513 31.2824 293.91 34.4976 292.985 37.7418C292.609 39.07 292.111 39.8756 291.431 40.2748C290.73 40.6885 289.755 40.674 288.873 40.2385C287.305 39.4619 285.238 36.8056 285.151 34.9331C285.115 34.1347 285.527 33.5323 286.048 32.7703L286.221 32.5163C286.293 32.4074 286.351 32.2985 286.423 32.1897C286.438 32.1606 286.46 32.1316 286.474 32.1026C286.843 31.5074 287.182 30.8978 287.5 30.3026C287.869 29.6131 288.223 28.9672 288.628 28.343C289.097 27.6173 289.957 26.8262 290.81 26.8262V26.8334ZM281.899 29.3228C281.899 29.3228 281.965 29.1849 282.42 28.9382L283.721 28.2414C283.721 28.3938 283.721 28.5898 283.778 28.7785C283.525 28.9309 283.258 29.0761 282.991 29.1995C282.702 29.3374 282.369 29.4752 282.109 29.4317C282.008 29.4172 281.914 29.3374 281.899 29.3228ZM283.627 30.5712C285.007 29.918 286.221 28.9672 287.197 27.7987C286.828 28.3938 286.488 29.0035 286.17 29.5986C285.881 30.1357 285.592 30.651 285.289 31.1518C284.646 31.2607 283.843 31.0357 283.056 30.8034C283.258 30.7381 283.453 30.6583 283.627 30.5784V30.5712ZM287.898 26.8334C288.071 26.5431 288.208 26.2383 288.302 25.9262C288.367 26.0423 288.418 26.1585 288.461 26.2818C288.259 26.4488 288.071 26.6375 287.898 26.8334ZM278.756 29.9325C278.597 29.722 278.438 29.5115 278.308 29.272C278.228 29.1196 278.142 28.9527 278.127 28.8366C278.098 28.6406 278.264 28.3648 278.525 28.1834C278.828 27.9729 279.24 27.8495 279.811 27.6898C281.762 27.1165 283.634 26.3036 285.376 25.2657C286.387 24.6634 286.734 24.7504 286.843 24.8448C287.045 25.0262 286.9 25.6432 286.525 26.1875C286.142 26.7391 285.708 27.2471 285.217 27.6971C285.188 27.4286 285.101 27.131 284.841 26.8915C284.595 26.6592 284.046 26.3472 283.121 26.8479L281.697 27.61C281.329 27.806 280.461 28.2777 280.389 29.2067C280.353 29.6131 280.505 30.0051 280.772 30.3171C280.194 30.2881 279.623 30.3026 279.059 30.3534C278.965 30.2083 278.857 30.0704 278.756 29.9325ZM283.323 41.5594C282.333 40.8482 281.618 39.745 280.924 38.6781L276.783 32.3348C277.419 32.1316 278.084 31.9792 278.756 31.8921C278.77 31.8921 278.778 31.8921 278.792 31.8921C279.464 31.805 280.143 31.7832 280.815 31.8268C281.307 31.8558 281.892 32.03 282.499 32.2114C283.077 32.3856 283.692 32.5598 284.313 32.6396C283.909 33.3073 283.591 34.0476 283.627 35.0057C283.735 37.5023 286.17 40.6014 288.187 41.603C288.259 41.6393 288.338 41.6683 288.418 41.7046C286.879 42.6553 284.79 42.6191 283.316 41.5594H283.323ZM325.491 23.6908C325.953 24.2134 326.177 25.0408 326.17 26.1585C326.156 27.6536 325.773 29.1559 325.093 30.4913C324.956 30.3244 324.804 30.172 324.653 30.0268C324.465 28.1906 323.699 26.0641 322.694 24.6198C322.311 24.0682 321.885 23.4949 321.285 23.0884C320.728 22.711 320.114 22.5296 319.536 22.4425C319.471 22.4134 319.413 22.3772 319.355 22.3481C320.497 22.3699 321.632 22.457 322.759 22.6094C323.814 22.7546 324.877 22.9868 325.491 23.6836V23.6908ZM322.297 42.3723C322.094 43.0327 321.878 43.5335 321.516 43.8311C321.018 44.2303 320.237 44.2375 319.449 44.194C317.903 44.0996 316.71 43.8746 315.699 43.4827C315.077 43.2432 314.297 42.8368 313.625 42.1981C313.733 42.1763 313.834 42.1546 313.943 42.1255C315.2 41.8352 316.458 41.5449 317.701 41.2038C318.452 40.9933 319.24 40.7393 319.861 40.1514C320.396 39.6434 320.757 38.8305 320.635 38.0467C320.837 38.0031 321.039 37.9741 321.234 37.9305C321.885 37.7854 322.557 37.5894 323.186 37.3064C323.106 39.0265 322.817 40.732 322.311 42.3795L322.297 42.3723ZM304.129 35.3831C303.926 34.8097 303.847 34.3888 303.876 34.0186C303.926 33.3944 304.367 32.8138 304.931 32.5453C305.321 34.0839 306.008 35.55 306.969 36.8274C307.323 37.2991 307.785 37.8144 308.458 38.0322C308.682 38.1047 308.906 38.1338 309.122 38.1338C310.141 38.1338 311.03 37.4515 311.507 37.0886L311.876 36.8056C312.093 37.4152 312.468 38.1192 313.22 38.4604C313.69 38.6708 314.188 38.6708 314.521 38.6708C316.06 38.6708 317.607 38.5402 319.131 38.3079C319.146 38.5402 319.03 38.845 318.813 39.0482C318.445 39.3966 317.881 39.5781 317.289 39.745C316.067 40.0861 314.832 40.3691 313.495 40.674C312.331 40.9425 311.124 41.2183 309.946 41.2981C309.549 41.3272 309.094 41.3417 308.725 41.211C308.335 41.0732 307.973 40.7538 307.663 40.4708C305.95 38.8886 304.765 37.183 304.129 35.3903V35.3831ZM306.564 26.1875C306.687 25.8173 306.846 25.3964 307.113 25.1133C307.858 24.315 309.339 24.5763 310.445 24.9464C312.013 25.4617 313.523 26.1512 314.94 26.9931C314.665 27.102 314.398 27.2326 314.152 27.385C313.632 27.327 313.083 27.3778 312.548 27.5737C311.832 27.8423 311.16 28.3358 310.561 29.0325C309.845 29.8672 309.477 30.7308 309.462 31.5873C309.455 32.5308 309.888 33.3436 310.214 33.8735C310.589 34.4831 311.009 34.9258 311.457 35.2234L310.604 35.8766C310.033 36.3121 309.39 36.7403 308.927 36.5806C308.653 36.4935 308.393 36.1887 308.176 35.9056C306.109 33.1694 305.495 29.4462 306.571 26.1802L306.564 26.1875ZM318.474 23.8723C319.384 23.894 319.984 24.0392 320.432 24.344C320.822 24.6125 321.14 25.0408 321.451 25.4907C322.094 26.4125 322.629 27.7044 322.925 28.9527C322.672 28.8438 322.427 28.7422 322.196 28.6551C321.126 28.2632 320.013 27.9656 318.893 27.7624C318.691 27.4648 318.459 27.2399 318.192 27.0657C317.925 26.8915 317.592 26.7971 317.231 26.7391C317.18 26.6592 317.108 26.5867 317.021 26.5286C316.024 25.8464 314.976 25.244 313.885 24.7142C315.345 24.119 316.934 23.8215 318.459 23.865L318.474 23.8723ZM323.359 35.4556C322.723 35.9492 321.906 36.2105 320.887 36.4427C318.799 36.9145 316.66 37.154 314.521 37.1612C314.246 37.1612 314 37.1612 313.841 37.0814C313.516 36.9362 313.328 36.4354 313.177 35.8911C313.227 35.8476 313.278 35.7968 313.321 35.7314C313.552 35.3831 314.008 35.1218 314.694 34.9476C314.918 34.8895 315.149 34.846 315.374 34.7952C315.872 34.6936 316.385 34.592 316.891 34.3742C318.033 33.8952 318.965 32.9082 319.384 31.7397C319.645 31.0139 319.702 30.2155 319.572 29.4535C320.288 29.6204 320.996 29.8309 321.69 30.0849C322.47 30.368 323.431 30.7962 323.988 31.5292C324.833 32.6396 324.537 34.5557 323.366 35.4629L323.359 35.4556ZM317.766 28.8075C317.766 28.8075 317.787 28.8583 317.802 28.8801C318.163 29.5986 318.228 30.4696 317.961 31.2244C317.686 32.0009 317.065 32.6541 316.313 32.9735C315.937 33.1259 315.518 33.213 315.07 33.3073C314.817 33.3582 314.564 33.409 314.311 33.4743C314.008 33.5541 313.74 33.6485 313.495 33.7573C313.625 33.3944 313.82 33.0243 314.037 32.6687C314.217 32.3638 314.456 32.0808 314.687 31.7905C315.215 31.1445 315.822 30.4042 315.923 29.4172C315.966 28.9962 315.908 28.6188 315.764 28.314C316.111 28.2197 316.472 28.1761 316.833 28.2051C317.086 28.2197 317.267 28.2705 317.397 28.3503C317.527 28.4301 317.65 28.5898 317.773 28.8075H317.766ZM313.849 28.8583C314.015 28.9672 314.21 29.0035 314.398 28.9672C314.412 29.0108 314.427 29.1124 314.412 29.2648C314.355 29.8018 313.964 30.2809 313.509 30.8324C313.227 31.1736 312.953 31.5147 312.729 31.8921C312.389 32.4582 312.078 33.0533 311.926 33.6848C311.753 33.5033 311.601 33.2856 311.478 33.0824C311.117 32.4945 310.951 32.03 310.951 31.6163C310.958 31.0066 311.355 30.4188 311.681 30.0341C312.114 29.5261 312.577 29.1849 313.054 29.0035C313.321 28.9019 313.596 28.8656 313.841 28.8583H313.849ZM311.218 20.4248C312.165 20.316 313.155 20.8022 314.037 21.2087C314.875 21.6006 315.634 22.036 316.436 22.5005C315.034 22.6965 313.661 23.1029 312.396 23.7416C312.288 23.7924 312.208 23.8723 312.136 23.9666C311.731 23.8069 311.319 23.6473 310.907 23.5166C309.614 23.0957 308.501 23.0013 307.59 23.2118C307.771 22.8417 308.089 22.486 308.385 22.1812C309.122 21.4191 310.12 20.5337 311.218 20.4321V20.4248ZM299.142 28.7495C299.02 28.118 298.933 27.4721 299.142 26.9641C299.33 26.5286 299.786 26.1585 300.19 25.8391C301.39 24.9174 302.676 24.1118 304.028 23.4368C304.692 23.1102 305.43 22.7836 306.188 22.6457C305.993 23.0739 305.885 23.5457 305.95 24.061C305.95 24.0827 305.964 24.1045 305.972 24.1263C305.538 24.6126 305.3 25.2004 305.133 25.7085C304.57 27.4213 304.418 29.243 304.642 31.0212C303.413 31.4276 302.474 32.5816 302.373 33.8952C302.315 34.6573 302.517 35.3613 302.705 35.8839C302.944 36.5588 303.254 37.2193 303.623 37.8652C303.464 37.6838 303.319 37.4733 303.175 37.2628C302.431 36.1959 301.664 35.0928 301.043 33.9533C300.147 32.3203 299.511 30.5712 299.15 28.7422L299.142 28.7495ZM311.608 46.9592C311.29 47.0971 310.994 47.235 310.72 47.264C310.402 47.2931 310.047 47.1987 309.737 47.0971C307.879 46.4947 306.058 45.1956 304.331 43.236C303.861 42.7061 303.334 42.0602 302.98 41.3272C302.589 40.5143 302.416 39.5926 302.329 38.6636C302.561 38.9611 302.828 39.2515 303.168 39.491C303.594 39.7813 304.064 39.9337 304.526 39.9337C304.692 39.9337 304.859 39.9119 305.018 39.8684C305.502 40.4562 306.037 41.0296 306.636 41.5812C307.085 42.0021 307.59 42.4158 308.219 42.6408C308.645 42.7932 309.086 42.8368 309.491 42.8368C309.686 42.8368 309.874 42.8295 310.047 42.815C310.669 42.7715 311.276 42.6771 311.89 42.561C312.627 43.5045 313.661 44.2738 314.918 44.7964C314.188 45.7472 312.981 46.3423 311.601 46.9592H311.608ZM320.924 46.9592C320.403 47.1914 319.912 47.4019 319.413 47.5035C318.936 47.5979 318.409 47.5834 317.961 47.5616C316.826 47.5035 315.699 47.3439 314.6 47.0826C315.301 46.6108 315.959 46.0302 316.421 45.2681C317.281 45.4786 318.228 45.6238 319.348 45.6891C319.558 45.7036 319.775 45.7109 319.999 45.7109C320.851 45.7109 321.74 45.573 322.456 44.9923C323.041 44.5206 323.359 43.8674 323.597 43.1924C323.663 43.1634 323.735 43.1416 323.807 43.1126C323.691 44.165 323.489 45.0794 322.925 45.7254C322.434 46.2915 321.668 46.6253 320.924 46.9592ZM327.211 40.0135C326.633 40.6377 325.729 40.9062 324.768 41.1893C324.551 41.2546 324.335 41.3199 324.118 41.3852C324.515 39.7087 324.71 37.9959 324.703 36.2685C325.766 35.1798 326.192 33.5686 325.874 32.1316C326.127 31.7324 326.365 31.3187 326.568 30.8905L327.146 32.9372C327.558 34.396 327.984 35.9056 327.999 37.408C327.999 38.1991 327.876 39.295 327.211 40.0063V40.0135Z" fill="#FF7CD3"/>
<path d="M305.081 56.8361C305.334 56.8216 305.572 56.6837 305.695 56.4587C305.825 56.2337 305.832 55.9652 305.717 55.7329C303.917 52.2057 299.805 50.1372 295.903 50.7976C294.833 50.9791 293.07 52.1476 292.817 53.3742C292.615 54.3685 292.73 55.3628 292.853 56.2119C293.164 58.3239 293.677 60.4142 294.364 62.4246C294.617 63.1721 294.956 64.0068 295.715 64.5293C296.178 64.8487 296.683 64.9213 297.103 64.7326C297.449 64.5801 297.645 64.3043 297.76 64.1447L298.324 63.3391C299.993 64.6963 302.125 65.4583 304.271 65.4583C304.532 65.4583 304.792 65.4438 305.052 65.422C305.24 65.4075 305.673 65.3712 306.006 65.0301C306.367 64.66 306.367 64.1592 306.367 63.9487C306.353 61.5319 305.572 58.9263 304.271 56.8579L305.074 56.8216L305.081 56.8361Z" fill="#FF7CD3"/>
<path d="M281.527 52.2592C282.502 49.2762 279.041 44.2611 276.324 42.4684C275.37 41.8443 274.748 42.1128 274.459 42.3233C274.09 42.5918 273.968 42.9983 273.895 43.216L273.418 44.7256C272.327 43.8619 270.745 43.5934 269.147 44.0071C267.789 44.3627 266.618 45.1103 265.44 45.9159C264.212 46.7578 264.277 47.5852 264.428 48.0134C264.602 48.5069 265.014 48.7754 265.259 48.9351C268.006 50.735 270.853 52.5858 273.968 53.8849C274.777 54.2188 275.659 54.5381 276.598 54.5889C276.8 54.6034 276.996 54.6034 277.191 54.6034C280.11 54.6034 281.158 53.3478 281.512 52.2592H281.527Z" fill="#FF7CD3"/>
<path d="M293.088 15.7494C292.33 15.3066 290.747 14.3849 289.576 15.7203C289.063 16.2647 288.846 16.9542 288.673 17.513C288.572 17.8323 288.434 18.2751 288.514 18.7613C288.651 19.5742 289.345 20.0822 289.677 20.3218C290.227 20.7209 290.877 21.1564 291.672 21.2943C291.831 21.3233 291.983 21.3378 292.142 21.3378C292.966 21.3378 293.724 20.9532 294.122 20.3072C294.346 19.9298 294.425 19.5234 294.476 19.2331C294.599 18.6017 294.823 17.4186 294.122 16.5477C293.84 16.1921 293.479 15.9816 293.081 15.7566L293.088 15.7494ZM293.002 18.95C292.966 19.1533 292.922 19.3855 292.836 19.5234C292.698 19.7556 292.308 19.8718 291.939 19.8065C291.455 19.7194 290.978 19.3928 290.566 19.0952C290.407 18.9791 290.039 18.7105 290.003 18.5001C289.981 18.3767 290.053 18.1517 290.111 17.9702C290.256 17.513 290.4 17.0485 290.675 16.7582C290.682 16.7437 290.696 16.7364 290.704 16.7219C290.805 16.5985 290.92 16.5332 291.079 16.5332C291.347 16.5332 291.737 16.7146 292.424 17.1138C292.626 17.2299 292.836 17.3533 292.944 17.484C293.175 17.7743 293.103 18.3549 292.995 18.9428L293.002 18.95Z" fill="#FF7CD3"/>
<path d="M301.797 9.63129C300.879 9.24663 299.961 9.2684 299.267 9.69661C298.407 10.2337 297.966 11.1409 298.075 12.1207C298.198 13.2094 298.949 14.1529 299.997 14.5158C300.337 14.6319 300.684 14.6899 301.03 14.6899C301.601 14.6899 302.151 14.5303 302.613 14.2182C303.444 13.6521 303.885 12.607 303.683 11.6635C303.502 10.8143 302.779 10.0305 301.804 9.61677L301.797 9.63129ZM301.768 12.9699C301.428 13.2021 300.937 13.2457 300.488 13.0932C299.997 12.9191 299.621 12.4618 299.571 11.9538C299.542 11.6707 299.6 11.2715 300.062 10.9812C300.178 10.9087 300.337 10.8724 300.517 10.8724C300.727 10.8724 300.965 10.9232 301.211 11.0248C301.717 11.2425 302.129 11.6417 302.201 11.9973C302.273 12.3312 302.086 12.7521 301.768 12.9699Z" fill="#FF7CD3"/>
</g>
<defs>
<clipPath id="clip0_1830_3233">
<rect width="545.449" height="194" fill="white"/>
</clipPath>
</defs>
</svg>
