<svg width="184" height="184" viewBox="0 0 184 184" fill="none" xmlns="http://www.w3.org/2000/svg">
<rect x="0.148438" width="183.075" height="183.075" rx="16.2733" fill="#A0FFF9"/>
<g clip-path="url(#clip0_1830_3334)">
<path d="M115.643 72.4415C115.751 72.2979 115.86 72.1544 115.971 72.0121C115.678 71.6363 115.377 71.2643 115.065 70.8989C108.236 62.8822 98.0271 58.787 87.173 60.0098C83.1666 60.4613 79.284 61.722 75.7742 63.7096C68.8431 67.6364 63.8501 73.6525 61.3281 80.6945C61.4884 80.7597 61.6461 80.8354 61.7999 80.9202C63.6011 75.8606 66.7004 71.3374 70.8906 67.7577C77.2013 62.368 85.2298 59.7618 93.4981 60.4183C101.766 61.0747 109.284 64.9167 114.667 71.2356C115.003 71.6298 115.326 72.0317 115.64 72.4389L115.643 72.4415Z" fill="#193E3C"/>
<path d="M65.1803 109.273C65.2871 109.216 65.3901 109.151 65.4905 109.084C64.7932 108.076 64.1572 107.036 63.5889 105.965C63.4625 106.093 63.3309 106.216 63.1953 106.333C63.7492 107.365 64.3644 108.37 65.0369 109.345C65.0851 109.323 65.1334 109.299 65.1816 109.273H65.1803Z" fill="#193E3C"/>
<path d="M118.388 106.176C115.635 111.289 111.427 115.633 106.019 118.684C102.569 120.631 98.7545 121.865 94.8171 122.305C86.0171 123.289 77.6498 120.717 71.2244 115.361C71.0732 115.46 70.9246 115.562 70.7773 115.665C75.7665 119.863 81.9181 122.403 88.5455 122.93C96.9533 123.598 105.116 120.948 111.534 115.468C114.577 112.87 117.052 109.781 118.886 106.354C118.723 106.287 118.557 106.227 118.389 106.175L118.388 106.176Z" fill="#193E3C"/>
<path d="M94.8536 65.6684C102.72 67.2136 106.131 72.2536 102.203 85.095C100.979 89.1171 100.093 92.8195 99.341 96.099C100.511 95.0863 101.682 94.0723 102.709 93.04C113.353 82.6129 119.643 71.7955 118.946 65.2234C119.019 65.286 119.098 65.35 119.184 65.4152C122.068 67.5724 122.893 71.5554 120.988 74.6144C117.582 80.0824 111.531 87.3162 104.08 94.2628C102.396 95.7923 100.64 97.3127 98.7297 98.8839C96.647 109.041 97.1774 114.707 101.429 115.304C104.167 115.687 107.661 113.824 110.073 110.777C110.525 111.18 110.566 111.869 110.173 112.33C107.776 115.129 104.524 116.989 101.113 116.511C95.4922 115.723 92.6028 112.742 93.7888 102.68C87.7753 107.664 77.8687 111.6 69.9992 114.39C66.8335 115.513 63.2545 114.364 61.4638 111.519C61.3843 111.393 61.2996 111.27 61.2109 111.152C68.331 110.68 85.3368 105.837 94.172 99.9384C94.8197 95.8354 96.1126 90.7928 97.9386 84.573C101.6 72.063 100.487 67.9339 94.4313 66.5689C86.1618 64.7471 79.3349 74.6783 78.8762 80.0602C78.6064 83.0396 79.4262 85.5818 82.2805 86.7185C80.9472 86.8659 79.8185 87.2052 78.8879 87.6503C76.018 89.0231 72.7427 86.7407 72.9969 83.5668C73.6955 74.8662 82.5268 63.2384 94.851 65.6723L94.8536 65.6684Z" fill="#193E3C"/>
<path d="M70.5553 61.4609L68.7828 60.858L68.7984 62.7255L68.1102 63.2201L68.1259 60.6884L65.8359 59.9158L66.5189 59.4238L68.1832 59.9837L68.1741 58.2323L68.8297 57.7599L68.8205 60.1533L71.2525 60.9585L70.5553 61.4609Z" fill="#193E3C"/>
<path d="M73.5387 55.343C73.8202 55.3273 74.0705 55.3847 74.2907 55.5126C74.5097 55.6405 74.6869 55.8363 74.8199 56.0986C74.9515 56.357 75.0049 56.6141 74.9815 56.8685C74.9567 57.123 74.8564 57.3605 74.6778 57.5798C74.5006 57.799 74.2568 57.9883 73.9479 58.1462L73.1425 58.5573L73.6677 59.5895L73.0043 59.9275L71.1836 56.3518L72.6524 55.6014C72.9613 55.4435 73.2572 55.3573 73.5387 55.3417V55.343ZM74.1943 57.08C74.2816 56.8816 74.2673 56.6676 74.1513 56.4392C74.0353 56.2108 73.871 56.0738 73.6586 56.0281C73.4462 55.9824 73.1959 56.032 72.9066 56.1808L72.1311 56.5762L72.8545 57.9961L73.6299 57.6007C73.9193 57.4532 74.1069 57.2796 74.1943 57.0813V57.08Z" fill="#193E3C"/>
<path d="M80.8013 55.9916L80.9981 56.5841L78.1451 57.5328L76.8809 53.7247L79.6569 52.8008L79.8537 53.3933L77.7841 54.0823L78.1125 55.0728L79.9489 54.4621L80.1418 55.0441L78.3054 55.6549L78.6534 56.7054L80.8 55.9916H80.8013Z" fill="#193E3C"/>
<path d="M85.9159 55.5767L84.9149 54.5522C84.8823 54.5613 84.8315 54.5718 84.7637 54.5835L83.8709 54.7336L84.0638 55.8872L83.3301 56.0099L82.668 52.0518L84.2945 51.779C84.6373 51.7216 84.9449 51.7281 85.2173 51.7986C85.4897 51.8691 85.7125 51.9983 85.8833 52.1862C86.054 52.3741 86.1635 52.6142 86.2117 52.904C86.2612 53.2015 86.2326 53.4703 86.1231 53.7092C86.0136 53.948 85.8324 54.1437 85.5796 54.2938L86.7057 55.4422L85.9145 55.5753L85.9159 55.5767ZM85.126 52.4877C84.9371 52.3793 84.6829 52.3532 84.3636 52.4067L83.5047 52.5503L83.768 54.1281L84.6269 53.9845C84.9475 53.931 85.1782 53.8214 85.3202 53.6557C85.4623 53.4899 85.5131 53.2811 85.4714 53.0292C85.4297 52.7761 85.3137 52.596 85.126 52.489V52.4877Z" fill="#193E3C"/>
<path d="M88.9102 51.2883L89.6544 51.2609L89.8055 55.2712L89.0613 55.2986L88.9102 51.2883Z" fill="#193E3C"/>
<path d="M95.5328 54.907L95.4794 55.5295L92.4844 55.2724L92.8258 51.2751L95.7414 51.5257L95.6879 52.1482L93.514 51.9616L93.4254 53.0017L95.353 53.1674L95.3009 53.7782L93.3732 53.6124L93.2794 54.7152L95.5328 54.9083V54.907Z" fill="#193E3C"/>
<path d="M102.276 52.8883L101.301 56.7812L100.707 56.6324L99.224 53.4586L98.5645 56.0947L97.8477 55.9146L98.8225 52.0217L99.4169 52.1705L100.9 55.3443L101.56 52.7082L102.276 52.8883Z" fill="#193E3C"/>
<path d="M106.909 58.3081L106.662 58.8875L103.52 57.5394L103.715 57.0813L107.018 55.3613L104.885 54.4465L105.133 53.8671L108.17 55.1695L107.973 55.6275L104.67 57.3476L106.907 58.3068L106.909 58.3081Z" fill="#193E3C"/>
<path d="M111.54 61.0042L111.211 61.5353L108.654 59.9536L110.76 56.5397L113.25 58.0796L112.921 58.6107L111.065 57.4636L110.518 58.351L112.164 59.369L111.842 59.891L110.196 58.8731L109.615 59.814L111.539 61.0042H111.54Z" fill="#193E3C"/>
<path d="M115.139 64.6647L115.28 63.2383C115.251 63.2187 115.211 63.1861 115.159 63.1417L114.472 62.5532L113.712 63.4419L113.146 62.9577L115.753 59.9092L117.006 60.9832C117.269 61.209 117.462 61.4504 117.583 61.7049C117.704 61.9594 117.747 62.2139 117.713 62.4657C117.678 62.7176 117.566 62.9551 117.374 63.1796C117.179 63.4093 116.953 63.558 116.701 63.6285C116.448 63.699 116.182 63.6846 115.903 63.5867L115.747 65.1893L115.138 64.6673L115.139 64.6647ZM116.996 62.0768C116.959 61.8628 116.815 61.6501 116.569 61.4387L115.908 60.8723L114.869 62.0873L115.53 62.6536C115.777 62.8651 116.009 62.9721 116.228 62.976C116.445 62.9799 116.638 62.8833 116.804 62.6889C116.97 62.4944 117.034 62.2895 116.995 62.0755L116.996 62.0768Z" fill="#193E3C"/>
<path d="M70.131 124.35L71.768 122.254L69.3738 123.171L69.1131 122.964L69.4142 120.446L67.7942 122.51L67.2363 122.072L69.7126 118.916L70.1949 119.295L69.8052 122.371L72.6751 121.246L73.1573 121.624L70.6862 124.784L70.1323 124.348L70.131 124.35Z" fill="#193E3C"/>
<path d="M76.2179 126.862L74.4324 125.952L73.6595 126.599L72.9766 126.25L76.403 123.495L77.056 123.828L76.8474 128.226L76.1541 127.873L76.2179 126.862ZM76.2635 126.23L76.3861 124.323L74.9224 125.544L76.2635 126.23Z" fill="#193E3C"/>
<path d="M81.1456 127.968L80.348 128.408L80.0495 129.389L79.3379 129.172L80.5044 125.333L81.216 125.55L80.6178 127.519L83.111 126.126L83.9113 126.37L81.779 127.597L82.8438 130.24L82.011 129.987L81.1469 127.968H81.1456Z" fill="#193E3C"/>
<path d="M88.5081 130.486L88.4312 131.106L85.4492 130.733L85.9471 126.751L88.8496 127.116L88.7727 127.735L86.6079 127.464L86.4788 128.499L88.3986 128.739L88.323 129.347L86.4033 129.107L86.2664 130.205L88.5107 130.486H88.5081Z" fill="#193E3C"/>
<path d="M92.1579 130.978C91.8203 130.819 91.5493 130.587 91.3446 130.283C91.14 129.979 91.0279 129.632 91.0058 129.243C90.9836 128.854 91.0579 128.496 91.2273 128.171C91.3968 127.846 91.6405 127.585 91.9585 127.39C92.2765 127.194 92.6388 127.084 93.0468 127.062C93.4547 127.039 93.8275 127.108 94.165 127.267C94.5026 127.426 94.7737 127.657 94.9783 127.959C95.1829 128.261 95.295 128.609 95.3172 129.003C95.3393 129.395 95.265 129.754 95.0956 130.077C94.9262 130.399 94.6824 130.66 94.3644 130.856C94.0464 131.052 93.6841 131.161 93.2762 131.183C92.8682 131.207 92.4955 131.138 92.1579 130.978ZM93.95 130.309C94.1572 130.177 94.3149 130 94.4244 129.777C94.5339 129.555 94.5821 129.309 94.5665 129.042C94.5521 128.774 94.4765 128.537 94.3436 128.328C94.2093 128.119 94.0321 127.961 93.8131 127.853C93.5929 127.745 93.3491 127.698 93.0833 127.713C92.8161 127.728 92.5802 127.802 92.373 127.934C92.1657 128.066 92.008 128.243 91.8985 128.466C91.7891 128.688 91.7408 128.933 91.7565 129.201C91.7721 129.469 91.8464 129.706 91.9794 129.915C92.1136 130.124 92.2908 130.283 92.5111 130.39C92.7314 130.498 92.9751 130.545 93.241 130.53C93.5082 130.515 93.7441 130.441 93.9513 130.309H93.95Z" fill="#193E3C"/>
<path d="M100.829 125.788L100.06 130.098L99.3469 130.268L96.7129 126.772L97.4988 126.584L99.5137 129.286L100.105 125.962L100.829 125.788Z" fill="#193E3C"/>
<path d="M106.687 127.089L106.931 127.665L104.162 128.838L102.6 125.142L105.294 124L105.537 124.576L103.529 125.428L103.936 126.389L105.717 125.633L105.956 126.198L104.174 126.954L104.605 127.973L106.688 127.089H106.687Z" fill="#193E3C"/>
<path d="M111.759 124.849L110.435 124.305C110.407 124.327 110.365 124.355 110.308 124.393L109.547 124.884L110.179 125.868L109.553 126.271L107.385 122.896L108.772 122.002C109.063 121.815 109.349 121.698 109.628 121.655C109.907 121.612 110.161 121.644 110.393 121.749C110.625 121.855 110.819 122.031 110.978 122.279C111.141 122.534 111.22 122.791 111.214 123.054C111.209 123.317 111.119 123.568 110.945 123.807L112.434 124.417L111.76 124.851L111.759 124.849ZM109.815 122.323C109.6 122.299 109.355 122.374 109.083 122.551L108.352 123.022L109.216 124.367L109.948 123.896C110.221 123.72 110.39 123.528 110.457 123.319C110.522 123.11 110.487 122.899 110.349 122.684C110.21 122.468 110.033 122.348 109.817 122.323H109.815Z" fill="#193E3C"/>
<path d="M114.898 122.32C114.626 122.449 114.379 122.517 114.157 122.523L113.957 121.922C114.166 121.907 114.386 121.85 114.618 121.749C114.85 121.649 115.054 121.518 115.232 121.355C115.452 121.154 115.584 120.969 115.628 120.799C115.672 120.63 115.642 120.487 115.537 120.371C115.46 120.286 115.366 120.245 115.255 120.245C115.144 120.245 115.028 120.272 114.907 120.325C114.786 120.379 114.627 120.46 114.43 120.567C114.155 120.72 113.925 120.833 113.736 120.906C113.547 120.981 113.351 121.005 113.146 120.982C112.942 120.958 112.752 120.85 112.574 120.656C112.426 120.493 112.334 120.302 112.301 120.087C112.268 119.871 112.304 119.643 112.411 119.4C112.518 119.158 112.702 118.917 112.961 118.681C113.141 118.517 113.341 118.377 113.556 118.262C113.772 118.147 113.982 118.074 114.185 118.044L114.402 118.63C114.202 118.672 114.014 118.739 113.837 118.827C113.66 118.916 113.505 119.022 113.373 119.143C113.156 119.342 113.028 119.526 112.989 119.695C112.95 119.865 112.986 120.011 113.097 120.132C113.174 120.217 113.268 120.259 113.377 120.256C113.487 120.255 113.603 120.226 113.724 120.173C113.845 120.119 114.004 120.038 114.201 119.931C114.467 119.781 114.696 119.669 114.886 119.596C115.077 119.523 115.275 119.497 115.478 119.518C115.681 119.54 115.87 119.646 116.045 119.839C116.195 120.003 116.285 120.191 116.317 120.405C116.35 120.619 116.311 120.848 116.203 121.092C116.095 121.336 115.911 121.576 115.65 121.813C115.422 122.022 115.172 122.19 114.899 122.321L114.898 122.32Z" fill="#193E3C"/>
<path d="M128.008 96.095C127.265 96.0598 126.524 96.0233 125.781 95.988C124.895 95.945 123.998 95.9032 123.127 96.0742C122.257 96.2451 121.4 96.6523 120.861 97.357C120.538 97.7798 120.347 98.2836 120.066 98.7325C120.059 98.7429 120.053 98.7534 120.046 98.7638C120.07 98.2118 120.097 97.6572 120.143 97.1091C120.222 96.142 120.358 95.2624 120.552 94.4651C120.896 94.6021 121.275 94.5421 121.578 94.4677C124.461 93.7656 126.649 90.7823 126.456 87.8186C126.451 87.7351 126.404 87.6607 126.332 87.6189C126.261 87.5771 126.172 87.5745 126.098 87.6124C124.789 88.2662 123.306 89.0075 122.206 90.1559C121.561 90.8306 121.037 91.6462 120.631 92.6159C120.581 92.2831 120.509 91.9516 120.444 91.6488C120.406 91.4753 120.371 91.3134 120.345 91.1673C119.995 89.3141 119.372 87.538 118.49 85.8884C118.375 85.6744 118.149 85.4434 117.901 85.4108C117.754 85.3912 117.617 85.4408 117.515 85.5491C117.471 85.5961 117.446 85.6588 117.447 85.724C117.485 88.0117 117.861 90.2564 118.564 92.4188C118.738 92.9512 118.931 93.4798 119.144 94.0018C119.332 94.4599 119.655 94.73 119.989 94.7065C119.831 95.4321 119.718 96.2164 119.647 97.0673C119.584 97.8516 119.551 98.6503 119.52 99.4242C119.508 99.7269 119.495 100.032 119.481 100.339C118.929 98.7273 117.996 97.2526 116.767 96.0442C115.986 95.2768 115.112 94.6439 114.166 94.1636C113.985 94.071 113.829 94.071 113.703 94.161C113.614 94.2236 113.517 94.3528 113.556 94.6073C113.629 95.0745 113.749 95.5339 113.895 95.9815C114.089 96.5792 114.331 97.16 114.571 97.7172C115.015 98.7495 115.511 99.8366 116.228 100.772C116.725 101.421 117.527 102.269 118.519 102.625C118.88 102.755 119.13 102.722 119.303 102.638C119.234 103.213 119.14 103.783 119.009 104.343C118.89 104.843 118.74 105.333 118.563 105.815C118.481 104.869 117.098 103.271 116.806 102.953C116.766 102.909 116.697 102.862 116.652 102.903C116.633 102.922 116.629 102.95 116.625 102.978C116.553 103.6 117.101 106.974 118.256 106.423C118.288 106.407 118.317 106.39 118.344 106.371C118.241 106.612 118.129 106.85 118.012 107.085C118.172 107.13 118.216 107.214 118.37 107.283C118.989 106.333 119.228 105.52 119.456 104.603C119.541 104.733 119.65 104.857 119.79 104.971C120.529 105.573 121.885 105.78 122.541 105.691C123.049 105.623 123.525 105.446 123.984 105.275L126.264 104.424C126.688 104.266 126.764 104.027 126.752 103.853C126.738 103.63 126.567 103.493 126.486 103.427C125.568 102.685 124.131 101.807 122.491 101.836C121.789 101.849 121.072 102.06 120.472 102.434C120.263 102.564 119.992 102.755 119.758 102.986C119.919 101.806 119.969 100.612 120.016 99.4464C120.02 99.3485 120.025 99.2493 120.029 99.1501C120.062 99.1579 120.101 99.1645 120.147 99.171C120.441 99.2154 120.781 99.1697 121.079 99.1553C122.319 99.0966 123.554 98.8865 124.743 98.5302C125.717 98.2392 126.679 97.8399 127.454 97.1821C127.779 96.9055 128.09 96.5153 128.008 96.0977V96.095ZM121.46 93.9835C121.367 94.0057 121.264 94.0279 121.161 94.0396C121.711 93.7669 122.245 93.4602 122.753 93.1196C123.494 92.6237 124.08 92.1252 124.545 91.5966C124.975 91.1072 125.333 90.5591 125.662 90.0019C125.015 91.9033 123.41 93.5098 121.46 93.9835ZM122.564 90.4991C123.027 90.0162 123.556 89.613 124.119 89.2541C123.127 90.4456 122.115 91.6319 121.097 92.7972C121.479 91.8903 121.965 91.1255 122.566 90.4978L122.564 90.4991ZM120.959 93.1444C122.136 91.8015 123.307 90.4286 124.449 89.0518C124.944 88.7569 125.458 88.4881 125.971 88.231C125.971 88.2466 125.971 88.2623 125.97 88.2779C125.476 88.7203 124.972 89.1758 124.511 89.6678C124.269 89.9275 124.034 90.2016 123.808 90.4665C123.481 90.8502 123.14 91.2456 122.774 91.6018C122.602 91.7689 122.421 91.9372 122.237 92.1082C121.735 92.5741 121.224 93.053 120.809 93.5724C120.857 93.4263 120.908 93.284 120.96 93.1444H120.959ZM120.699 93.9196C121.137 93.301 121.737 92.7424 122.321 92.1995C122.506 92.0273 122.688 91.8576 122.86 91.6906C123.232 91.3304 123.572 90.9324 123.902 90.5474C124.127 90.2838 124.362 90.0097 124.603 89.7526C125.031 89.2946 125.501 88.8652 125.965 88.4502C125.946 88.8039 125.894 89.1562 125.81 89.5008C125.411 90.2002 124.988 90.905 124.453 91.5131C123.994 92.0338 123.415 92.5245 122.684 93.0152C122.111 93.4002 121.505 93.7408 120.879 94.037C120.809 94.0266 120.742 94.007 120.682 93.9757C120.688 93.9561 120.694 93.9391 120.699 93.9196ZM116.418 96.3978C117.634 97.5932 118.544 99.0614 119.065 100.663C119.101 100.774 119.135 100.886 119.168 100.998C119.213 101.157 119.241 101.315 119.255 101.464C118.323 99.3863 117.077 97.4183 115.597 95.6801C115.88 95.9045 116.156 96.1407 116.418 96.3978ZM113.951 94.5851C113.927 94.593 113.908 94.5917 113.901 94.5904L114.052 94.3855L113.951 94.5864V94.5851ZM119.137 102.157C119.035 102.252 118.835 102.209 118.687 102.156C117.808 101.84 117.08 101.063 116.622 100.468C115.94 99.5782 115.46 98.5237 115.028 97.5188C114.623 96.5792 114.246 95.654 114.073 94.6752C114.263 94.7757 114.451 94.8853 114.635 94.9988C114.829 95.4151 114.976 95.8223 115.121 96.2177C115.315 96.7541 115.516 97.3074 115.83 97.8829C116.473 99.0601 117.136 100.278 117.962 101.367C118.276 101.78 118.708 102.038 119.174 102.106C119.163 102.124 119.151 102.144 119.138 102.157H119.137ZM119.226 101.989C118.778 101.934 118.361 101.69 118.06 101.293C117.239 100.21 116.577 98.9974 115.937 97.8242C115.628 97.2578 115.429 96.7071 115.236 96.176C115.112 95.8327 114.982 95.4817 114.824 95.1228C114.923 95.1868 115.021 95.2546 115.117 95.3225C116.826 97.2291 118.244 99.4411 119.259 101.786C119.253 101.862 119.243 101.931 119.226 101.989ZM123.81 104.805C123.376 104.967 122.928 105.134 122.474 105.195C121.893 105.273 120.711 105.078 120.104 104.582C120.058 104.545 120.02 104.506 119.984 104.468C120.811 104.698 121.681 104.682 122.434 104.631C123.444 104.562 124.452 104.417 125.441 104.198L123.81 104.806V104.805ZM122.425 104.506C121.668 104.558 120.792 104.575 119.967 104.336C120.26 104.238 120.548 104.124 120.831 104.011C121.413 103.779 122.017 103.54 122.643 103.457C124.119 103.261 125.297 103.397 126.237 103.873C124.992 104.204 123.71 104.417 122.425 104.505V104.506ZM125.886 103.589C124.998 103.248 123.926 103.162 122.627 103.334C121.986 103.419 121.374 103.662 120.785 103.896C120.474 104.02 120.152 104.146 119.829 104.249C119.803 104.197 119.783 104.143 119.771 104.088C121.244 103.074 123.146 102.654 124.905 102.966C125.267 103.158 125.597 103.374 125.886 103.589ZM120.737 102.854C121.261 102.528 121.888 102.342 122.502 102.332C123.234 102.319 123.926 102.509 124.543 102.789C122.885 102.594 121.14 103.016 119.756 103.949C119.766 103.639 120.126 103.235 120.737 102.855V102.854ZM119.954 94.2093C119.878 94.2145 119.719 94.0944 119.603 93.8126C118.639 91.4479 118.094 88.9657 117.973 86.4235C118.048 86.9168 118.207 87.3997 118.364 87.8721L118.4 87.983C119.074 90.0058 119.606 92.0951 119.989 94.1936C119.977 94.2015 119.964 94.2093 119.954 94.2093ZM118.519 87.9426L118.482 87.8303C118.301 87.2835 118.116 86.721 118.067 86.1508C118.554 87.0656 118.959 88.0209 119.281 89.0075C119.52 89.7422 119.713 90.4926 119.856 91.2586C119.883 91.4074 119.92 91.5744 119.958 91.7519C120.109 92.454 120.298 93.3271 120.157 93.8791C120.139 93.9535 120.115 94.0096 120.092 94.0579C119.71 91.9907 119.182 89.934 118.52 87.9426H118.519Z" fill="#193E3C"/>
<path d="M122.614 85.4982C122.403 85.5061 122.191 85.5961 121.985 85.7658C121.641 86.049 121.455 86.4418 121.486 86.8137C121.492 86.8855 121.507 86.9547 121.529 87.0212C121.649 87.3905 121.992 87.6842 122.385 87.7285C122.843 87.7807 123.303 87.5041 123.479 87.0708C123.615 86.7354 123.536 86.2199 123.294 85.8715C123.119 85.6196 122.878 85.4852 122.616 85.4943L122.614 85.4982ZM122.631 85.9955C122.721 85.9929 122.806 86.0477 122.884 86.1586C122.931 86.2265 122.968 86.3048 122.995 86.387C123.056 86.5736 123.063 86.7733 123.017 86.8842C122.926 87.1073 122.673 87.2613 122.44 87.2352C122.207 87.2091 122.001 87.0016 121.981 86.772C121.96 86.5253 122.132 86.2891 122.3 86.1495C122.383 86.0816 122.508 85.9994 122.631 85.9955Z" fill="#193E3C"/>
<path d="M121.335 79.6778C121.41 79.5917 121.472 79.4873 121.515 79.3659C121.632 79.0357 121.603 78.7238 121.434 78.4876C121.262 78.2475 120.957 78.1131 120.597 78.1196C120.305 78.1248 120.038 78.2684 119.898 78.4955C119.835 78.5986 119.795 78.7212 119.781 78.8583C119.765 79.0057 119.782 79.1532 119.827 79.2889C119.9 79.5121 120.046 79.7078 120.242 79.8266C120.593 80.0393 121.073 79.9741 121.335 79.6791V79.6778ZM120.501 79.3998C120.348 79.3072 120.257 79.1062 120.276 78.9092C120.283 78.8478 120.299 78.7943 120.322 78.7552C120.371 78.6742 120.486 78.6181 120.606 78.6155C120.799 78.6116 120.954 78.6703 121.03 78.776C121.101 78.8765 121.107 79.0253 121.047 79.1963C121.024 79.2576 120.996 79.3085 120.963 79.3463C120.859 79.4638 120.648 79.4873 120.502 79.3985L120.501 79.3998Z" fill="#193E3C"/>
<path d="M121.307 83.2248C121.218 83.1557 121.132 83.0721 121.102 82.9638C121.062 82.8242 121.124 82.6689 121.229 82.5671C121.333 82.4653 121.472 82.4079 121.613 82.3674C122.162 82.2108 122.207 83.0343 121.863 83.2862C121.81 83.3253 121.747 83.3553 121.682 83.3632C121.547 83.3801 121.416 83.307 121.309 83.2235L121.307 83.2248Z" fill="#193E3C"/>
<path d="M68.2561 93.853C68.1297 93.763 67.9746 93.7643 67.7934 93.8556C66.8472 94.3372 65.9727 94.9688 65.192 95.7362C63.9629 96.9446 63.0285 98.4206 62.4785 100.031C62.4641 99.7243 62.4511 99.419 62.4394 99.1162C62.4081 98.3436 62.3768 97.5436 62.3116 96.7593C62.2413 95.9084 62.1266 95.1241 61.9702 94.3985C62.3038 94.422 62.6283 94.1519 62.8147 93.6938C63.0285 93.1718 63.2214 92.6433 63.3947 92.1108C64.0985 89.9497 64.4725 87.7037 64.5116 85.416C64.5116 85.3508 64.4882 85.2881 64.4439 85.2412C64.3422 85.1328 64.2041 85.0832 64.0581 85.1028C63.8092 85.1354 63.5824 85.3664 63.469 85.5805C62.5866 87.2287 61.9636 89.0061 61.6144 90.8593C61.587 91.0041 61.5518 91.1673 61.5153 91.3408C61.4501 91.6436 61.3798 91.9751 61.3276 92.3079C60.9223 91.3382 60.3984 90.5226 59.7532 89.8479C58.6532 88.6995 57.17 87.9582 55.8615 87.3044C55.7872 87.2666 55.6986 87.2692 55.6269 87.3109C55.5552 87.3527 55.5083 87.4271 55.5031 87.5106C55.3102 90.4756 57.4985 93.4589 60.3814 94.1597C60.6851 94.2341 61.0644 94.2941 61.4071 94.1571C61.6013 94.9532 61.7369 95.834 61.8164 96.8011C61.862 97.3492 61.8894 97.9051 61.9128 98.4558C61.9063 98.4454 61.8998 98.4363 61.8933 98.4245C61.6117 97.9756 61.4215 97.4732 61.0982 97.049C60.5587 96.3443 59.7024 95.9358 58.8318 95.7662C57.9611 95.5952 57.0645 95.637 56.1782 95.6801C55.4353 95.7153 54.6937 95.7518 53.9508 95.7871C53.8687 96.206 54.1802 96.5962 54.5047 96.8715C55.2802 97.5293 56.2421 97.9286 57.2156 98.2196C58.4056 98.5759 59.6398 98.786 60.8806 98.8447C61.1777 98.8591 61.5179 98.9048 61.8125 98.8604C61.8594 98.8539 61.8972 98.846 61.9298 98.8395C61.9337 98.9374 61.9389 99.0379 61.9428 99.1358C61.9897 100.301 62.0392 101.495 62.2009 102.675C61.9676 102.444 61.6965 102.253 61.4866 102.123C60.8871 101.75 60.1703 101.538 59.4678 101.525C57.8269 101.497 56.3893 102.375 55.4731 103.116C55.391 103.183 55.2203 103.32 55.2072 103.543C55.1955 103.716 55.2724 103.955 55.6947 104.113L57.9755 104.964C58.4356 105.135 58.91 105.312 59.4183 105.38C60.0738 105.469 61.4306 105.263 62.1696 104.66C62.309 104.546 62.4185 104.422 62.5032 104.292C62.7313 105.208 62.9881 106.056 63.5328 106.944C63.6866 106.882 63.7818 106.817 63.9356 106.752C63.8222 106.525 63.714 106.294 63.615 106.06C63.6423 106.078 63.671 106.097 63.7036 106.112C64.857 106.663 65.4057 103.29 65.334 102.667C65.3314 102.641 65.3262 102.611 65.3067 102.593C65.2624 102.551 65.1933 102.598 65.1529 102.642C64.8622 102.961 63.4781 104.558 63.396 105.504C63.2187 105.023 63.0676 104.532 62.9503 104.032C62.8173 103.472 62.7248 102.902 62.6557 102.328C62.8277 102.41 63.0793 102.444 63.4403 102.315C64.4321 101.959 65.2337 101.11 65.7316 100.462C66.4497 99.526 66.9436 98.4389 67.3881 97.4066C67.6279 96.8494 67.8703 96.2686 68.0645 95.6709C68.2105 95.222 68.3304 94.7639 68.4034 94.2967C68.4438 94.0422 68.346 93.913 68.2561 93.8504V93.853ZM59.3948 90.1937C59.9956 90.8201 60.4818 91.5849 60.8636 92.4932C59.8457 91.3278 58.8331 90.1415 57.8412 88.95C58.403 89.3089 58.9334 89.7122 59.3961 90.195L59.3948 90.1937ZM55.9879 87.9256C56.5014 88.184 57.0149 88.4515 57.5102 88.7464C58.6519 90.1233 59.8236 91.4961 61.0005 92.839C61.0526 92.9786 61.1035 93.1209 61.1517 93.2671C60.7359 92.7477 60.225 92.27 59.7232 91.8028C59.5382 91.6306 59.357 91.4622 59.1863 91.2965C58.82 90.9402 58.4812 90.5448 58.1527 90.1611C57.926 89.8962 57.6914 89.6221 57.4489 89.3624C56.9889 88.8704 56.4845 88.415 55.9905 87.9726C55.9905 87.9569 55.9892 87.9412 55.9892 87.9256H55.9879ZM60.4987 93.6781C58.5489 93.2031 56.9445 91.5966 56.2968 89.6965C56.6265 90.2538 56.9823 90.8019 57.4137 91.2912C57.879 91.8198 58.4655 92.3183 59.2058 92.8142C59.7141 93.1548 60.2485 93.4615 60.7985 93.7343C60.6955 93.7225 60.5926 93.7016 60.4987 93.6781ZM61.08 93.733C60.4544 93.4367 59.8484 93.0961 59.2749 92.7111C58.5437 92.2204 57.9651 91.7297 57.5063 91.209C56.9706 90.6009 56.5483 89.8962 56.1495 89.1967C56.0648 88.8522 56.0114 88.5011 55.9944 88.1461C56.4584 88.5611 56.9276 88.9905 57.3564 89.4486C57.5975 89.7056 57.8308 89.9797 58.0576 90.2433C58.3873 90.6283 58.7288 91.0263 59.0989 91.3865C59.271 91.5536 59.4534 91.7232 59.6385 91.8955C60.2224 92.4384 60.8219 92.9969 61.2599 93.6155C61.2651 93.6351 61.2716 93.652 61.2768 93.6716C61.2168 93.7042 61.1504 93.7225 61.08 93.733ZM61.8685 93.7538C61.845 93.7055 61.8216 93.6494 61.8033 93.575C61.6626 93.023 61.8516 92.15 62.0027 91.4479C62.0405 91.2704 62.077 91.1033 62.1044 90.9546C62.2478 90.1898 62.4407 89.4381 62.6792 88.7034C62.9998 87.7168 63.4064 86.7615 63.8939 85.8467C63.8443 86.417 63.6593 86.9794 63.4781 87.5263L63.4416 87.6385C62.7795 89.6313 62.2517 91.688 61.8698 93.7538H61.8685ZM63.5576 87.6776L63.5941 87.5667C63.7518 87.0956 63.9095 86.6114 63.9851 86.1181C63.8626 88.6603 63.3191 91.1438 62.3533 93.5072C62.2373 93.7891 62.0796 93.9091 62.0027 93.9039C61.9923 93.9039 61.9793 93.8948 61.9676 93.8883C62.3494 91.7898 62.8825 89.7004 63.5563 87.6776H63.5576ZM61.8555 104.276C61.2481 104.772 60.0647 104.968 59.4847 104.89C59.0312 104.828 58.5828 104.661 58.1488 104.499L56.5184 103.891C57.5076 104.111 58.5151 104.255 59.5251 104.325C60.2784 104.375 61.1465 104.391 61.9754 104.161C61.9389 104.201 61.8998 104.238 61.8555 104.275V104.276ZM59.5343 104.201C58.2492 104.113 56.9667 103.9 55.722 103.569C56.6617 103.093 57.8399 102.956 59.3166 103.153C59.9422 103.236 60.5456 103.475 61.1282 103.707C61.4097 103.819 61.6991 103.934 61.9923 104.032C61.1673 104.271 60.2915 104.254 59.5343 104.202V104.201ZM62.1305 103.943C61.8072 103.84 61.4853 103.715 61.1738 103.591C60.5834 103.356 59.9735 103.115 59.3322 103.029C58.0328 102.856 56.9615 102.943 56.0726 103.283C56.362 103.068 56.6917 102.852 57.054 102.661C58.8135 102.35 60.7151 102.769 62.1878 103.783C62.1761 103.838 62.1565 103.891 62.1305 103.943ZM57.4164 102.482C58.0328 102.203 58.7262 102.012 59.4574 102.025C60.0712 102.036 60.6981 102.222 61.2221 102.547C61.8333 102.928 62.193 103.331 62.2035 103.641C60.8193 102.708 59.0742 102.286 57.4164 102.481V102.482ZM62.7913 100.693C62.8238 100.58 62.8577 100.468 62.8942 100.357C63.4155 98.7573 64.3253 97.2878 65.5413 96.0924C65.8032 95.8354 66.0795 95.5991 66.3624 95.3747C64.8805 97.113 63.6345 99.0796 62.7039 101.159C62.7183 101.01 62.7456 100.852 62.7913 100.693ZM62.6987 101.481C63.714 99.1358 65.132 96.9237 66.8407 95.0171C66.9371 94.9492 67.0349 94.8814 67.1339 94.8174C66.9762 95.1763 66.8472 95.5274 66.7221 95.8706C66.5292 96.4017 66.3298 96.9511 66.0209 97.5188C65.381 98.692 64.7202 99.9057 63.8978 100.988C63.5967 101.384 63.1796 101.628 62.7313 101.683C62.7144 101.624 62.7039 101.555 62.6987 101.481ZM66.9319 97.2135C66.4992 98.217 66.0196 99.2715 65.3379 100.163C64.8805 100.759 64.1519 101.536 63.2735 101.85C63.1236 101.904 62.9255 101.948 62.8238 101.852C62.8095 101.838 62.7991 101.819 62.7873 101.801C63.2539 101.733 63.6853 101.476 63.9994 101.062C64.827 99.9723 65.4904 98.7547 66.1317 97.5776C66.4445 97.002 66.6465 96.4487 66.8407 95.9123C66.9853 95.5156 67.1326 95.1098 67.3268 94.6935C67.5119 94.5799 67.6983 94.4703 67.8886 94.3698C67.7152 95.3486 67.3372 96.2751 66.9332 97.2135H66.9319ZM68.0085 94.2798L67.9068 94.0788L68.058 94.2837C68.0515 94.285 68.0319 94.2863 68.0085 94.2785V94.2798Z" fill="#193E3C"/>
<path d="M58.5272 86.6636C58.2848 87.012 58.2053 87.5275 58.3421 87.8629C58.5181 88.2949 58.9781 88.5715 59.4356 88.5206C59.8292 88.4763 60.172 88.1813 60.2919 87.8133C60.314 87.7455 60.3284 87.6763 60.3349 87.6058C60.3662 87.2326 60.1798 86.8411 59.8357 86.5579C59.6285 86.3869 59.4174 86.2969 59.2062 86.2904C58.9442 86.2812 58.7031 86.4156 58.5285 86.6675L58.5272 86.6636ZM59.519 86.9403C59.6871 87.0786 59.8592 87.3148 59.8383 87.5628C59.8201 87.7911 59.6128 87.9999 59.3796 88.026C59.1463 88.0521 58.8934 87.8981 58.8022 87.675C58.7566 87.5641 58.7644 87.3644 58.8243 87.1778C58.8504 87.0969 58.8882 87.0173 58.9351 86.9494C59.012 86.8372 59.098 86.7823 59.188 86.7863C59.3118 86.7902 59.4356 86.8724 59.519 86.9403Z" fill="#193E3C"/>
<path d="M62.386 86.3008C62.5828 86.1821 62.7288 85.9863 62.8018 85.7632C62.8461 85.6261 62.8631 85.4787 62.8474 85.3325C62.8331 85.1955 62.794 85.0728 62.7301 84.9697C62.5907 84.7426 62.3235 84.5991 62.0315 84.5939C61.6731 84.5873 61.3682 84.7217 61.1948 84.9619C61.0254 85.1994 60.9967 85.5113 61.114 85.8402C61.1583 85.9615 61.2183 86.0672 61.2939 86.1521C61.5558 86.447 62.0355 86.5122 62.386 86.2995V86.3008ZM61.6666 85.8219C61.6327 85.784 61.6054 85.7331 61.5832 85.6718C61.5219 85.5008 61.5285 85.3521 61.6001 85.2516C61.6757 85.1459 61.8308 85.0872 62.0237 85.0911C62.1436 85.0937 62.257 85.1485 62.3078 85.2307C62.3313 85.2699 62.3469 85.3221 62.3535 85.3847C62.373 85.5805 62.2818 85.7827 62.1293 85.8754C61.9833 85.9641 61.7709 85.9406 61.6679 85.8232L61.6666 85.8219Z" fill="#193E3C"/>
<path d="M59.2637 84.4464C59.3524 84.3772 59.4384 84.2937 59.4684 84.1854C59.5088 84.0457 59.4462 83.8904 59.3419 83.7886C59.2377 83.6869 59.0982 83.6294 58.9574 83.589C58.4087 83.4324 58.3631 84.2558 58.7072 84.5077C58.7606 84.5469 58.8232 84.5769 58.8884 84.5847C59.0239 84.6017 59.1543 84.5286 59.2611 84.4451L59.2637 84.4464Z" fill="#193E3C"/>
</g>
<defs>
<clipPath id="clip0_1830_3334">
<rect width="81.3665" height="80.2669" fill="white" transform="translate(50.5957 51.2609)"/>
</clipPath>
</defs>
</svg>
