<svg width="184" height="184" viewBox="0 0 184 184" fill="none" xmlns="http://www.w3.org/2000/svg">
<rect x="0.0742188" width="183.075" height="183.075" rx="16.2733" fill="#FF96DB"/>
<g clip-path="url(#clip0_1830_3296)">
<path d="M115.569 72.4415C115.677 72.2979 115.786 72.1544 115.897 72.0121C115.604 71.6363 115.303 71.2643 114.991 70.8989C108.162 62.8822 97.9529 58.787 87.0988 60.0098C83.0924 60.4613 79.2098 61.722 75.6999 63.7096C68.7689 67.6364 63.7758 73.6525 61.2539 80.6945C61.4142 80.7597 61.5719 80.8354 61.7257 80.9202C63.5269 75.8606 66.6262 71.3374 70.8164 67.7577C77.1271 62.368 85.1555 59.7618 93.4238 60.4183C101.692 61.0747 109.21 64.9167 114.592 71.2356C114.929 71.6298 115.252 72.0317 115.566 72.4389L115.569 72.4415Z" fill="#193E3C"/>
<path d="M65.1061 109.273C65.2129 109.216 65.3159 109.151 65.4162 109.084C64.719 108.076 64.0829 107.036 63.5147 105.965C63.3883 106.093 63.2566 106.216 63.1211 106.333C63.675 107.365 64.2902 108.37 64.9627 109.345C65.0109 109.323 65.0591 109.299 65.1074 109.273H65.1061Z" fill="#193E3C"/>
<path d="M118.314 106.176C115.561 111.289 111.352 115.633 105.945 118.684C102.495 120.631 98.6803 121.865 94.7429 122.305C85.9429 123.289 77.5755 120.717 71.1502 115.361C70.999 115.46 70.8504 115.562 70.7031 115.665C75.6922 119.863 81.8439 122.403 88.4713 122.93C96.8791 123.598 105.042 120.948 111.459 115.468C114.503 112.87 116.978 109.781 118.811 106.354C118.648 106.287 118.483 106.227 118.315 106.175L118.314 106.176Z" fill="#193E3C"/>
<path d="M94.7794 65.6684C102.646 67.2136 106.057 72.2536 102.129 85.095C100.905 89.1171 100.019 92.8195 99.2667 96.099C100.437 95.0863 101.608 94.0723 102.635 93.04C113.279 82.6129 119.569 71.7955 118.871 65.2234C118.944 65.286 119.024 65.35 119.11 65.4152C121.994 67.5724 122.819 71.5554 120.914 74.6144C117.508 80.0824 111.457 87.3162 104.006 94.2628C102.322 95.7923 100.566 97.3127 98.6555 98.8839C96.5728 109.041 97.1032 114.707 101.355 115.304C104.093 115.687 107.587 113.824 109.998 110.777C110.451 111.18 110.492 111.869 110.099 112.33C107.702 115.129 104.45 116.989 101.039 116.511C95.418 115.723 92.5286 112.742 93.7146 102.68C87.701 107.664 77.7945 111.6 69.925 114.39C66.7593 115.513 63.1803 114.364 61.3896 111.519C61.3101 111.393 61.2253 111.27 61.1367 111.152C68.2568 110.68 85.2625 105.837 94.0978 99.9384C94.7455 95.8354 96.0384 90.7928 97.8644 84.573C101.525 72.063 100.412 67.9339 94.3571 66.5689C86.0875 64.7471 79.2607 74.6783 78.802 80.0602C78.5322 83.0396 79.352 85.5818 82.2062 86.7185C80.8729 86.8659 79.7443 87.2052 78.8137 87.6503C75.9438 89.0231 72.6685 86.7407 72.9227 83.5668C73.6213 74.8662 82.4526 63.2384 94.7768 65.6723L94.7794 65.6684Z" fill="#193E3C"/>
<path d="M70.4811 61.4609L68.7085 60.858L68.7242 62.7255L68.036 63.2201L68.0517 60.6884L65.7617 59.9158L66.4447 59.4238L68.109 59.9837L68.0999 58.2323L68.7555 57.7599L68.7463 60.1533L71.1783 60.9585L70.4811 61.4609Z" fill="#193E3C"/>
<path d="M73.4645 55.343C73.746 55.3273 73.9962 55.3847 74.2165 55.5126C74.4355 55.6405 74.6127 55.8363 74.7456 56.0986C74.8773 56.357 74.9307 56.6141 74.9073 56.8685C74.8825 57.123 74.7821 57.3605 74.6036 57.5798C74.4263 57.799 74.1826 57.9883 73.8737 58.1462L73.0683 58.5573L73.5935 59.5895L72.9301 59.9275L71.1094 56.3518L72.5782 55.6014C72.8871 55.4435 73.183 55.3573 73.4645 55.3417V55.343ZM74.1201 57.08C74.2074 56.8816 74.193 56.6676 74.077 56.4392C73.961 56.2108 73.7968 56.0738 73.5844 56.0281C73.3719 55.9824 73.1217 56.032 72.8324 56.1808L72.0569 56.5762L72.7802 57.9961L73.5557 57.6007C73.8451 57.4532 74.0327 57.2796 74.1201 57.0813V57.08Z" fill="#193E3C"/>
<path d="M80.727 55.9916L80.9238 56.5841L78.0709 57.5328L76.8066 53.7247L79.5827 52.8008L79.7795 53.3933L77.7098 54.0823L78.0383 55.0728L79.8747 54.4621L80.0676 55.0441L78.2312 55.6549L78.5792 56.7054L80.7257 55.9916H80.727Z" fill="#193E3C"/>
<path d="M85.8416 55.5767L84.8407 54.5522C84.8081 54.5613 84.7573 54.5718 84.6895 54.5835L83.7967 54.7336L83.9896 55.8872L83.2558 56.0099L82.5938 52.0518L84.2203 51.779C84.5631 51.7216 84.8707 51.7281 85.143 51.7986C85.4154 51.8691 85.6383 51.9983 85.809 52.1862C85.9798 52.3741 86.0893 52.6142 86.1375 52.904C86.187 53.2015 86.1583 53.4703 86.0489 53.7092C85.9394 53.948 85.7582 54.1437 85.5054 54.2938L86.6314 55.4422L85.8403 55.5753L85.8416 55.5767ZM85.0518 52.4877C84.8628 52.3793 84.6087 52.3532 84.2894 52.4067L83.4305 52.5503L83.6938 54.1281L84.5526 53.9845C84.8733 53.931 85.104 53.8214 85.246 53.6557C85.3881 53.4899 85.4389 53.2811 85.3972 53.0292C85.3555 52.7761 85.2395 52.596 85.0518 52.489V52.4877Z" fill="#193E3C"/>
<path d="M88.8359 51.2883L89.5801 51.2609L89.7313 55.2712L88.9871 55.2986L88.8359 51.2883Z" fill="#193E3C"/>
<path d="M95.4586 54.907L95.4052 55.5295L92.4102 55.2724L92.7516 51.2751L95.6672 51.5257L95.6137 52.1482L93.4398 51.9616L93.3512 53.0017L95.2788 53.1674L95.2266 53.7782L93.299 53.6124L93.2052 54.7152L95.4586 54.9083V54.907Z" fill="#193E3C"/>
<path d="M102.202 52.8883L101.227 56.7812L100.633 56.6324L99.1497 53.4586L98.4903 56.0947L97.7734 55.9146L98.7483 52.0217L99.3426 52.1705L100.826 55.3443L101.485 52.7082L102.202 52.8883Z" fill="#193E3C"/>
<path d="M106.835 58.3081L106.588 58.8875L103.445 57.5394L103.641 57.0813L106.943 55.3613L104.811 54.4465L105.059 53.8671L108.096 55.1695L107.899 55.6275L104.596 57.3476L106.833 58.3068L106.835 58.3081Z" fill="#193E3C"/>
<path d="M111.466 61.0042L111.137 61.5353L108.58 59.9536L110.686 56.5397L113.176 58.0796L112.847 58.6107L110.991 57.4636L110.444 58.351L112.09 59.369L111.768 59.891L110.122 58.8731L109.541 59.814L111.464 61.0042H111.466Z" fill="#193E3C"/>
<path d="M115.065 64.6647L115.206 63.2383C115.177 63.2187 115.137 63.1861 115.085 63.1417L114.398 62.5532L113.638 63.4419L113.072 62.9577L115.679 59.9092L116.931 60.9832C117.195 61.209 117.388 61.4504 117.509 61.7049C117.63 61.9594 117.673 62.2139 117.639 62.4657C117.604 62.7176 117.492 62.9551 117.3 63.1796C117.105 63.4093 116.879 63.558 116.626 63.6285C116.374 63.699 116.108 63.6846 115.829 63.5867L115.672 65.1893L115.064 64.6673L115.065 64.6647ZM116.922 62.0768C116.884 61.8628 116.741 61.6501 116.495 61.4387L115.834 60.8723L114.795 62.0873L115.456 62.6536C115.702 62.8651 115.934 62.9721 116.153 62.976C116.371 62.9799 116.564 62.8833 116.729 62.6889C116.896 62.4944 116.96 62.2895 116.921 62.0755L116.922 62.0768Z" fill="#193E3C"/>
<path d="M70.0568 124.35L71.6938 122.254L69.2996 123.171L69.0389 122.964L69.34 120.446L67.7199 122.51L67.1621 122.072L69.6384 118.916L70.1207 119.295L69.731 122.371L72.6009 121.246L73.0831 121.624L70.612 124.784L70.0581 124.348L70.0568 124.35Z" fill="#193E3C"/>
<path d="M76.1437 126.862L74.3582 125.952L73.5853 126.599L72.9023 126.25L76.3288 123.495L76.9817 123.828L76.7732 128.226L76.0798 127.873L76.1437 126.862ZM76.1893 126.23L76.3118 124.323L74.8482 125.544L76.1893 126.23Z" fill="#193E3C"/>
<path d="M81.0714 127.968L80.2737 128.408L79.9753 129.389L79.2637 129.172L80.4301 125.333L81.1418 125.55L80.5435 127.519L83.0368 126.126L83.837 126.37L81.7048 127.597L82.7696 130.24L81.9368 129.987L81.0727 127.968H81.0714Z" fill="#193E3C"/>
<path d="M88.4339 130.486L88.357 131.106L85.375 130.733L85.8729 126.751L88.7754 127.116L88.6985 127.735L86.5337 127.464L86.4046 128.499L88.3244 128.739L88.2488 129.347L86.329 129.107L86.1922 130.205L88.4365 130.486H88.4339Z" fill="#193E3C"/>
<path d="M92.0837 130.978C91.7461 130.819 91.475 130.587 91.2704 130.283C91.0658 129.979 90.9537 129.632 90.9316 129.243C90.9094 128.854 90.9837 128.496 91.1531 128.171C91.3225 127.846 91.5663 127.585 91.8843 127.39C92.2023 127.194 92.5646 127.084 92.9726 127.062C93.3805 127.039 93.7532 127.108 94.0908 127.267C94.4284 127.426 94.6995 127.657 94.9041 127.959C95.1087 128.261 95.2208 128.609 95.2429 129.003C95.2651 129.395 95.1908 129.754 95.0214 130.077C94.8519 130.399 94.6082 130.66 94.2902 130.856C93.9722 131.052 93.6099 131.161 93.2019 131.183C92.794 131.207 92.4213 131.138 92.0837 130.978ZM93.8758 130.309C94.083 130.177 94.2407 130 94.3502 129.777C94.4596 129.555 94.5079 129.309 94.4922 129.042C94.4779 128.774 94.4023 128.537 94.2694 128.328C94.1351 128.119 93.9579 127.961 93.7389 127.853C93.5186 127.745 93.2749 127.698 93.0091 127.713C92.7419 127.728 92.506 127.802 92.2987 127.934C92.0915 128.066 91.9338 128.243 91.8243 128.466C91.7149 128.688 91.6666 128.933 91.6823 129.201C91.6979 129.469 91.7722 129.706 91.9051 129.915C92.0394 130.124 92.2166 130.283 92.4369 130.39C92.6572 130.498 92.9009 130.545 93.1668 130.53C93.4339 130.515 93.6698 130.441 93.8771 130.309H93.8758Z" fill="#193E3C"/>
<path d="M100.755 125.788L99.9856 130.098L99.2727 130.268L96.6387 126.772L97.4246 126.584L99.4395 129.286L100.031 125.962L100.755 125.788Z" fill="#193E3C"/>
<path d="M106.613 127.089L106.856 127.665L104.088 128.838L102.525 125.142L105.219 124L105.463 124.576L103.455 125.428L103.861 126.389L105.643 125.633L105.881 126.198L104.1 126.954L104.531 127.973L106.614 127.089H106.613Z" fill="#193E3C"/>
<path d="M111.684 124.849L110.36 124.305C110.333 124.327 110.291 124.355 110.234 124.393L109.473 124.884L110.105 125.868L109.479 126.271L107.311 122.896L108.697 122.002C108.989 121.815 109.275 121.698 109.554 121.655C109.832 121.612 110.087 121.644 110.319 121.749C110.551 121.855 110.745 122.031 110.904 122.279C111.067 122.534 111.146 122.791 111.14 123.054C111.134 123.317 111.045 123.568 110.871 123.807L112.36 124.417L111.686 124.851L111.684 124.849ZM109.741 122.323C109.526 122.299 109.281 122.374 109.009 122.551L108.278 123.022L109.142 124.367L109.874 123.896C110.147 123.72 110.316 123.528 110.382 123.319C110.448 123.11 110.412 122.899 110.274 122.684C110.136 122.468 109.959 122.348 109.743 122.323H109.741Z" fill="#193E3C"/>
<path d="M114.824 122.32C114.551 122.449 114.305 122.517 114.082 122.523L113.883 121.922C114.091 121.907 114.312 121.85 114.544 121.749C114.776 121.649 114.98 121.518 115.158 121.355C115.378 121.154 115.509 120.969 115.554 120.799C115.598 120.63 115.568 120.487 115.463 120.371C115.386 120.286 115.292 120.245 115.181 120.245C115.07 120.245 114.954 120.272 114.833 120.325C114.712 120.379 114.553 120.46 114.356 120.567C114.081 120.72 113.85 120.833 113.661 120.906C113.472 120.981 113.277 121.005 113.072 120.982C112.868 120.958 112.677 120.85 112.5 120.656C112.351 120.493 112.26 120.302 112.226 120.087C112.194 119.871 112.23 119.643 112.337 119.4C112.444 119.158 112.628 118.917 112.887 118.681C113.067 118.517 113.266 118.377 113.481 118.262C113.698 118.147 113.908 118.074 114.111 118.044L114.327 118.63C114.128 118.672 113.94 118.739 113.763 118.827C113.586 118.916 113.431 119.022 113.299 119.143C113.081 119.342 112.954 119.526 112.915 119.695C112.875 119.865 112.912 120.011 113.023 120.132C113.1 120.217 113.193 120.259 113.303 120.256C113.412 120.255 113.528 120.226 113.65 120.173C113.771 120.119 113.93 120.038 114.127 119.931C114.392 119.781 114.622 119.669 114.812 119.596C115.002 119.523 115.201 119.497 115.404 119.518C115.607 119.54 115.796 119.646 115.971 119.839C116.121 120.003 116.211 120.191 116.243 120.405C116.276 120.619 116.237 120.848 116.129 121.092C116.02 121.336 115.837 121.576 115.576 121.813C115.348 122.022 115.098 122.19 114.825 122.321L114.824 122.32Z" fill="#193E3C"/>
<path d="M127.934 96.095C127.191 96.0598 126.45 96.0233 125.707 95.988C124.82 95.945 123.924 95.9032 123.053 96.0742C122.183 96.2451 121.326 96.6523 120.787 97.357C120.463 97.7798 120.273 98.2836 119.992 98.7325C119.985 98.7429 119.979 98.7534 119.972 98.7638C119.996 98.2118 120.023 97.6572 120.069 97.1091C120.148 96.142 120.284 95.2624 120.478 94.4651C120.822 94.6021 121.201 94.5421 121.503 94.4677C124.386 93.7656 126.575 90.7823 126.382 87.8186C126.377 87.7351 126.33 87.6607 126.258 87.6189C126.186 87.5771 126.098 87.5745 126.023 87.6124C124.715 88.2662 123.232 89.0075 122.132 90.1559C121.487 90.8306 120.963 91.6462 120.557 92.6159C120.506 92.2831 120.435 91.9516 120.37 91.6488C120.332 91.4753 120.297 91.3134 120.271 91.1673C119.921 89.3141 119.298 87.538 118.416 85.8884C118.301 85.6744 118.074 85.4434 117.827 85.4108C117.68 85.3912 117.543 85.4408 117.441 85.5491C117.397 85.5961 117.372 85.6588 117.373 85.724C117.411 88.0117 117.786 90.2564 118.49 92.4188C118.664 92.9512 118.856 93.4798 119.07 94.0018C119.258 94.4599 119.581 94.73 119.915 94.7065C119.757 95.4321 119.644 96.2164 119.573 97.0673C119.509 97.8516 119.477 98.6503 119.446 99.4242C119.434 99.7269 119.421 100.032 119.406 100.339C118.855 98.7273 117.922 97.2526 116.693 96.0442C115.912 95.2768 115.038 94.6439 114.091 94.1636C113.91 94.071 113.755 94.071 113.629 94.161C113.54 94.2236 113.442 94.3528 113.482 94.6073C113.555 95.0745 113.674 95.5339 113.82 95.9815C114.015 96.5792 114.257 97.16 114.497 97.7172C114.941 98.7495 115.437 99.8366 116.153 100.772C116.651 101.421 117.453 102.269 118.445 102.625C118.806 102.755 119.056 102.722 119.229 102.638C119.16 103.213 119.066 103.783 118.935 104.343C118.816 104.843 118.666 105.333 118.489 105.815C118.407 104.869 117.024 103.271 116.732 102.953C116.692 102.909 116.623 102.862 116.578 102.903C116.559 102.922 116.555 102.95 116.551 102.978C116.479 103.6 117.027 106.974 118.181 106.423C118.214 106.407 118.243 106.39 118.27 106.371C118.167 106.612 118.055 106.85 117.938 107.085C118.098 107.13 118.142 107.214 118.296 107.283C118.915 106.333 119.154 105.52 119.382 104.603C119.466 104.733 119.576 104.857 119.715 104.971C120.454 105.573 121.811 105.78 122.467 105.691C122.975 105.623 123.451 105.446 123.909 105.275L126.19 104.424C126.614 104.266 126.689 104.027 126.678 103.853C126.663 103.63 126.493 103.493 126.412 103.427C125.494 102.685 124.057 101.807 122.417 101.836C121.715 101.849 120.998 102.06 120.398 102.434C120.188 102.564 119.917 102.755 119.684 102.986C119.844 101.806 119.895 100.612 119.942 99.4464C119.946 99.3485 119.951 99.2493 119.955 99.1501C119.988 99.1579 120.027 99.1645 120.072 99.171C120.367 99.2154 120.707 99.1697 121.004 99.1553C122.245 99.0966 123.479 98.8865 124.669 98.5302C125.643 98.2392 126.605 97.8399 127.38 97.1821C127.705 96.9055 128.016 96.5153 127.934 96.0977V96.095ZM121.386 93.9835C121.292 94.0057 121.189 94.0279 121.086 94.0396C121.636 93.7669 122.171 93.4602 122.679 93.1196C123.419 92.6237 124.006 92.1252 124.471 91.5966C124.901 91.1072 125.258 90.5591 125.588 90.0019C124.94 91.9033 123.336 93.5098 121.386 93.9835ZM122.49 90.4991C122.953 90.0162 123.482 89.613 124.045 89.2541C123.053 90.4456 122.04 91.6319 121.023 92.7972C121.404 91.8903 121.891 91.1255 122.491 90.4978L122.49 90.4991ZM120.884 93.1444C122.061 91.8015 123.233 90.4286 124.375 89.0518C124.87 88.7569 125.383 88.4881 125.897 88.231C125.897 88.2466 125.897 88.2623 125.896 88.2779C125.402 88.7203 124.897 89.1758 124.437 89.6678C124.195 89.9275 123.96 90.2016 123.733 90.4665C123.406 90.8502 123.066 91.2456 122.7 91.6018C122.528 91.7689 122.347 91.9372 122.163 92.1082C121.661 92.5741 121.15 93.053 120.735 93.5724C120.783 93.4263 120.834 93.284 120.886 93.1444H120.884ZM120.625 93.9196C121.063 93.301 121.662 92.7424 122.246 92.1995C122.431 92.0273 122.614 91.8576 122.786 91.6906C123.157 91.3304 123.498 90.9324 123.827 90.5474C124.053 90.2838 124.287 90.0097 124.528 89.7526C124.957 89.2946 125.426 88.8652 125.89 88.4502C125.872 88.8039 125.82 89.1562 125.735 89.5008C125.337 90.2002 124.914 90.905 124.379 91.5131C123.92 92.0338 123.341 92.5245 122.61 93.0152C122.037 93.4002 121.43 93.7408 120.805 94.037C120.735 94.0266 120.668 94.007 120.608 93.9757C120.613 93.9561 120.62 93.9391 120.625 93.9196ZM116.344 96.3978C117.56 97.5932 118.469 99.0614 118.991 100.663C119.027 100.774 119.061 100.886 119.094 100.998C119.139 101.157 119.167 101.315 119.181 101.464C118.249 99.3863 117.003 97.4183 115.523 95.6801C115.805 95.9045 116.082 96.1407 116.344 96.3978ZM113.876 94.5851C113.853 94.593 113.833 94.5917 113.827 94.5904L113.978 94.3855L113.876 94.5864V94.5851ZM119.062 102.157C118.961 102.252 118.761 102.209 118.613 102.156C117.734 101.84 117.006 101.063 116.548 100.468C115.865 99.5782 115.386 98.5237 114.954 97.5188C114.549 96.5792 114.172 95.654 113.999 94.6752C114.189 94.7757 114.377 94.8853 114.561 94.9988C114.755 95.4151 114.902 95.8223 115.047 96.2177C115.241 96.7541 115.442 97.3074 115.756 97.8829C116.398 99.0601 117.062 100.278 117.888 101.367C118.202 101.78 118.634 102.038 119.1 102.106C119.088 102.124 119.077 102.144 119.064 102.157H119.062ZM119.152 101.989C118.704 101.934 118.287 101.69 117.986 101.293C117.165 100.21 116.503 98.9974 115.863 97.8242C115.554 97.2578 115.354 96.7071 115.161 96.176C115.038 95.8327 114.907 95.4817 114.75 95.1228C114.849 95.1868 114.946 95.2546 115.043 95.3225C116.752 97.2291 118.17 99.4411 119.185 101.786C119.178 101.862 119.169 101.931 119.152 101.989ZM123.736 104.805C123.302 104.967 122.854 105.134 122.4 105.195C121.819 105.273 120.637 105.078 120.029 104.582C119.984 104.545 119.946 104.506 119.91 104.468C120.737 104.698 121.606 104.682 122.36 104.631C123.37 104.562 124.377 104.417 125.367 104.198L123.736 104.806V104.805ZM122.351 104.506C121.593 104.558 120.718 104.575 119.893 104.336C120.186 104.238 120.474 104.124 120.757 104.011C121.339 103.779 121.943 103.54 122.568 103.457C124.045 103.261 125.223 103.397 126.163 103.873C124.918 104.204 123.636 104.417 122.351 104.505V104.506ZM125.812 103.589C124.923 103.248 123.852 103.162 122.553 103.334C121.911 103.419 121.3 103.662 120.711 103.896C120.4 104.02 120.078 104.146 119.754 104.249C119.728 104.197 119.709 104.143 119.697 104.088C121.17 103.074 123.071 102.654 124.831 102.966C125.193 103.158 125.523 103.374 125.812 103.589ZM120.663 102.854C121.187 102.528 121.814 102.342 122.428 102.332C123.16 102.319 123.852 102.509 124.469 102.789C122.811 102.594 121.066 103.016 119.681 103.949C119.692 103.639 120.052 103.235 120.663 102.855V102.854ZM119.88 94.2093C119.804 94.2145 119.645 94.0944 119.529 93.8126C118.564 91.4479 118.02 88.9657 117.898 86.4235C117.974 86.9168 118.133 87.3997 118.289 87.8721L118.326 87.983C119 90.0058 119.532 92.0951 119.915 94.1936C119.903 94.2015 119.89 94.2093 119.88 94.2093ZM118.445 87.9426L118.408 87.8303C118.227 87.2835 118.042 86.721 117.992 86.1508C118.48 87.0656 118.885 88.0209 119.207 89.0075C119.446 89.7422 119.638 90.4926 119.782 91.2586C119.809 91.4074 119.846 91.5744 119.883 91.7519C120.035 92.454 120.224 93.3271 120.083 93.8791C120.065 93.9535 120.041 94.0096 120.018 94.0579C119.636 91.9907 119.108 89.934 118.446 87.9426H118.445Z" fill="#193E3C"/>
<path d="M122.54 85.4982C122.329 85.5061 122.117 85.5961 121.911 85.7658C121.567 86.049 121.38 86.4418 121.412 86.8137C121.418 86.8855 121.432 86.9547 121.455 87.0212C121.575 87.3905 121.917 87.6842 122.311 87.7285C122.768 87.7807 123.228 87.5041 123.404 87.0708C123.541 86.7354 123.462 86.2199 123.219 85.8715C123.045 85.6196 122.804 85.4852 122.542 85.4943L122.54 85.4982ZM122.557 85.9955C122.647 85.9929 122.732 86.0477 122.81 86.1586C122.857 86.2265 122.893 86.3048 122.921 86.387C122.982 86.5736 122.989 86.7733 122.943 86.8842C122.852 87.1073 122.599 87.2613 122.366 87.2352C122.132 87.2091 121.926 87.0016 121.907 86.772C121.886 86.5253 122.058 86.2891 122.226 86.1495C122.308 86.0816 122.433 85.9994 122.557 85.9955Z" fill="#193E3C"/>
<path d="M121.26 79.6778C121.336 79.5917 121.397 79.4873 121.44 79.3659C121.558 79.0357 121.529 78.7238 121.359 78.4876C121.187 78.2475 120.882 78.1131 120.523 78.1196C120.231 78.1248 119.964 78.2684 119.824 78.4955C119.76 78.5986 119.721 78.7212 119.707 78.8583C119.691 79.0057 119.708 79.1532 119.752 79.2889C119.825 79.5121 119.971 79.7078 120.168 79.8266C120.519 80.0393 120.998 79.9741 121.26 79.6791V79.6778ZM120.426 79.3998C120.274 79.3072 120.183 79.1062 120.202 78.9092C120.209 78.8478 120.224 78.7943 120.248 78.7552C120.297 78.6742 120.412 78.6181 120.532 78.6155C120.725 78.6116 120.88 78.6703 120.955 78.776C121.027 78.8765 121.032 79.0253 120.972 79.1963C120.95 79.2576 120.922 79.3085 120.889 79.3463C120.785 79.4638 120.574 79.4873 120.428 79.3985L120.426 79.3998Z" fill="#193E3C"/>
<path d="M121.233 83.2248C121.144 83.1557 121.058 83.0721 121.028 82.9638C120.988 82.8242 121.05 82.6689 121.154 82.5671C121.259 82.4653 121.398 82.4079 121.539 82.3674C122.088 82.2108 122.133 83.0343 121.789 83.2862C121.736 83.3253 121.673 83.3553 121.608 83.3632C121.472 83.3801 121.342 83.307 121.235 83.2235L121.233 83.2248Z" fill="#193E3C"/>
<path d="M68.1819 93.853C68.0554 93.763 67.9004 93.7643 67.7192 93.8556C66.773 94.3372 65.8984 94.9688 65.1178 95.7362C63.8887 96.9446 62.9542 98.4206 62.4042 100.031C62.3899 99.7243 62.3769 99.419 62.3651 99.1162C62.3339 98.3436 62.3026 97.5436 62.2374 96.7593C62.167 95.9084 62.0523 95.1241 61.8959 94.3985C62.2296 94.422 62.5541 94.1519 62.7405 93.6938C62.9542 93.1718 63.1471 92.6433 63.3205 92.1108C64.0243 89.9497 64.3983 87.7037 64.4374 85.416C64.4374 85.3508 64.414 85.2881 64.3697 85.2412C64.268 85.1328 64.1298 85.0832 63.9839 85.1028C63.7349 85.1354 63.5082 85.3664 63.3948 85.5805C62.5124 87.2287 61.8894 89.0061 61.5401 90.8593C61.5128 91.0041 61.4776 91.1673 61.4411 91.3408C61.3759 91.6436 61.3055 91.9751 61.2534 92.3079C60.8481 91.3382 60.3241 90.5226 59.679 89.8479C58.579 88.6995 57.0958 87.9582 55.7873 87.3044C55.713 87.2666 55.6244 87.2692 55.5527 87.3109C55.481 87.3527 55.4341 87.4271 55.4289 87.5106C55.236 90.4756 57.4242 93.4589 60.3072 94.1597C60.6109 94.2341 60.9901 94.2941 61.3329 94.1571C61.5271 94.9532 61.6626 95.834 61.7422 96.8011C61.7878 97.3492 61.8151 97.9051 61.8386 98.4558C61.8321 98.4454 61.8256 98.4363 61.819 98.4245C61.5375 97.9756 61.3472 97.4732 61.024 97.049C60.4844 96.3443 59.6282 95.9358 58.7575 95.7662C57.8869 95.5952 56.9902 95.637 56.104 95.6801C55.3611 95.7153 54.6195 95.7518 53.8766 95.7871C53.7945 96.206 54.106 96.5962 54.4305 96.8715C55.206 97.5293 56.1678 97.9286 57.1414 98.2196C58.3314 98.5759 59.5656 98.786 60.8064 98.8447C61.1035 98.8591 61.4437 98.9048 61.7382 98.8604C61.7852 98.8539 61.823 98.846 61.8555 98.8395C61.8595 98.9374 61.8647 99.0379 61.8686 99.1358C61.9155 100.301 61.965 101.495 62.1266 102.675C61.8933 102.444 61.6222 102.253 61.4124 102.123C60.8129 101.75 60.0961 101.538 59.3936 101.525C57.7527 101.497 56.3151 102.375 55.3989 103.116C55.3168 103.183 55.146 103.32 55.133 103.543C55.1213 103.716 55.1982 103.955 55.6204 104.113L57.9013 104.964C58.3613 105.135 58.8357 105.312 59.344 105.38C59.9996 105.469 61.3564 105.263 62.0954 104.66C62.2348 104.546 62.3443 104.422 62.429 104.292C62.6571 105.208 62.9138 106.056 63.4586 106.944C63.6124 106.882 63.7076 106.817 63.8614 106.752C63.748 106.525 63.6398 106.294 63.5407 106.06C63.5681 106.078 63.5968 106.097 63.6294 106.112C64.7828 106.663 65.3315 103.29 65.2598 102.667C65.2572 102.641 65.252 102.611 65.2325 102.593C65.1881 102.551 65.1191 102.598 65.0787 102.642C64.788 102.961 63.4039 104.558 63.3218 105.504C63.1445 105.023 62.9933 104.532 62.876 104.032C62.7431 103.472 62.6506 102.902 62.5815 102.328C62.7535 102.41 63.0051 102.444 63.3661 102.315C64.3579 101.959 65.1595 101.11 65.6573 100.462C66.3755 99.526 66.8694 98.4389 67.3139 97.4066C67.5537 96.8494 67.7961 96.2686 67.9903 95.6709C68.1363 95.222 68.2562 94.7639 68.3291 94.2967C68.3696 94.0422 68.2718 93.913 68.1819 93.8504V93.853ZM59.3206 90.1937C59.9214 90.8201 60.4075 91.5849 60.7894 92.4932C59.7715 91.3278 58.7588 90.1415 57.767 88.95C58.3287 89.3089 58.8592 89.7122 59.3219 90.195L59.3206 90.1937ZM55.9137 87.9256C56.4272 88.184 56.9407 88.4515 57.436 88.7464C58.5777 90.1233 59.7494 91.4961 60.9263 92.839C60.9784 92.9786 61.0292 93.1209 61.0775 93.2671C60.6617 92.7477 60.1508 92.27 59.649 91.8028C59.4639 91.6306 59.2828 91.4622 59.112 91.2965C58.7458 90.9402 58.4069 90.5448 58.0785 90.1611C57.8517 89.8962 57.6171 89.6221 57.3747 89.3624C56.9146 88.8704 56.4103 88.415 55.9163 87.9726C55.9163 87.9569 55.915 87.9412 55.915 87.9256H55.9137ZM60.4245 93.6781C58.4747 93.2031 56.8703 91.5966 56.2226 89.6965C56.5523 90.2538 56.9081 90.8019 57.3395 91.2912C57.8048 91.8198 58.3913 92.3183 59.1316 92.8142C59.6399 93.1548 60.1743 93.4615 60.7243 93.7343C60.6213 93.7225 60.5183 93.7016 60.4245 93.6781ZM61.0058 93.733C60.3802 93.4367 59.7741 93.0961 59.2007 92.7111C58.4695 92.2204 57.8908 91.7297 57.4321 91.209C56.8964 90.6009 56.4741 89.8962 56.0753 89.1967C55.9906 88.8522 55.9371 88.5011 55.9202 88.1461C56.3842 88.5611 56.8534 88.9905 57.2822 89.4486C57.5233 89.7056 57.7566 89.9797 57.9834 90.2433C58.3131 90.6283 58.6546 91.0263 59.0247 91.3865C59.1968 91.5536 59.3792 91.7232 59.5643 91.8955C60.1482 92.4384 60.7477 92.9969 61.1856 93.6155C61.1908 93.6351 61.1974 93.652 61.2026 93.6716C61.1426 93.7042 61.0762 93.7225 61.0058 93.733ZM61.7943 93.7538C61.7708 93.7055 61.7474 93.6494 61.7291 93.575C61.5884 93.023 61.7773 92.15 61.9285 91.4479C61.9663 91.2704 62.0028 91.1033 62.0302 90.9546C62.1736 90.1898 62.3664 89.4381 62.605 88.7034C62.9256 87.7168 63.3322 86.7615 63.8196 85.8467C63.7701 86.417 63.585 86.9794 63.4039 87.5263L63.3674 87.6385C62.7053 89.6313 62.1775 91.688 61.7956 93.7538H61.7943ZM63.4834 87.6776L63.5199 87.5667C63.6776 87.0956 63.8353 86.6114 63.9109 86.1181C63.7884 88.6603 63.2449 91.1438 62.2791 93.5072C62.1631 93.7891 62.0054 93.9091 61.9285 93.9039C61.9181 93.9039 61.9051 93.8948 61.8933 93.8883C62.2752 91.7898 62.8083 89.7004 63.4821 87.6776H63.4834ZM61.7813 104.276C61.1739 104.772 59.9905 104.968 59.4105 104.89C58.9569 104.828 58.5086 104.661 58.0746 104.499L56.4441 103.891C57.4334 104.111 58.4408 104.255 59.4509 104.325C60.2042 104.375 61.0722 104.391 61.9012 104.161C61.8647 104.201 61.8256 104.238 61.7813 104.275V104.276ZM59.46 104.201C58.175 104.113 56.8925 103.9 55.6478 103.569C56.5875 103.093 57.7657 102.956 59.2424 103.153C59.868 103.236 60.4714 103.475 61.054 103.707C61.3355 103.819 61.6249 103.934 61.9181 104.032C61.0931 104.271 60.2173 104.254 59.46 104.202V104.201ZM62.0563 103.943C61.733 103.84 61.4111 103.715 61.0996 103.591C60.5092 103.356 59.8993 103.115 59.258 103.029C57.9586 102.856 56.8873 102.943 55.9984 103.283C56.2877 103.068 56.6175 102.852 56.9798 102.661C58.7393 102.35 60.6408 102.769 62.1136 103.783C62.1019 103.838 62.0823 103.891 62.0563 103.943ZM57.3421 102.482C57.9586 102.203 58.652 102.012 59.3831 102.025C59.997 102.036 60.6239 102.222 61.1478 102.547C61.7591 102.928 62.1188 103.331 62.1292 103.641C60.7451 102.708 59 102.286 57.3421 102.481V102.482ZM62.717 100.693C62.7496 100.58 62.7835 100.468 62.82 100.357C63.3413 98.7573 64.251 97.2878 65.467 96.0924C65.729 95.8354 66.0053 95.5991 66.2881 95.3747C64.8063 97.113 63.5603 99.0796 62.6297 101.159C62.6441 101.01 62.6714 100.852 62.717 100.693ZM62.6245 101.481C63.6398 99.1358 65.0578 96.9237 66.7665 95.0171C66.8629 94.9492 66.9607 94.8814 67.0597 94.8174C66.902 95.1763 66.773 95.5274 66.6479 95.8706C66.455 96.4017 66.2556 96.9511 65.9467 97.5188C65.3067 98.692 64.646 99.9057 63.8236 100.988C63.5225 101.384 63.1054 101.628 62.6571 101.683C62.6401 101.624 62.6297 101.555 62.6245 101.481ZM66.8577 97.2135C66.425 98.217 65.9454 99.2715 65.2637 100.163C64.8063 100.759 64.0777 101.536 63.1993 101.85C63.0494 101.904 62.8513 101.948 62.7496 101.852C62.7353 101.838 62.7249 101.819 62.7131 101.801C63.1797 101.733 63.6111 101.476 63.9252 101.062C64.7528 99.9723 65.4162 98.7547 66.0575 97.5776C66.3703 97.002 66.5723 96.4487 66.7665 95.9123C66.9111 95.5156 67.0584 95.1098 67.2526 94.6935C67.4377 94.5799 67.624 94.4703 67.8143 94.3698C67.641 95.3486 67.263 96.2751 66.859 97.2135H66.8577ZM67.9342 94.2798L67.8326 94.0788L67.9838 94.2837C67.9772 94.285 67.9577 94.2863 67.9342 94.2785V94.2798Z" fill="#193E3C"/>
<path d="M58.453 86.6636C58.2105 87.012 58.131 87.5275 58.2679 87.8629C58.4438 88.2949 58.9039 88.5715 59.3614 88.5206C59.755 88.4763 60.0978 88.1813 60.2177 87.8133C60.2398 87.7455 60.2542 87.6763 60.2607 87.6058C60.292 87.2326 60.1056 86.8411 59.7615 86.5579C59.5543 86.3869 59.3431 86.2969 59.132 86.2904C58.87 86.2812 58.6289 86.4156 58.4543 86.6675L58.453 86.6636ZM59.4448 86.9403C59.6129 87.0786 59.785 87.3148 59.7641 87.5628C59.7459 87.7911 59.5386 87.9999 59.3053 88.026C59.072 88.0521 58.8192 87.8981 58.728 87.675C58.6823 87.5641 58.6902 87.3644 58.7501 87.1778C58.7762 87.0969 58.814 87.0173 58.8609 86.9494C58.9378 86.8372 59.0238 86.7823 59.1137 86.7863C59.2376 86.7902 59.3614 86.8724 59.4448 86.9403Z" fill="#193E3C"/>
<path d="M62.3118 86.3008C62.5086 86.1821 62.6546 85.9863 62.7276 85.7632C62.7719 85.6261 62.7888 85.4787 62.7732 85.3325C62.7589 85.1955 62.7198 85.0728 62.6559 84.9697C62.5165 84.7426 62.2493 84.5991 61.9573 84.5939C61.5989 84.5873 61.2939 84.7217 61.1206 84.9619C60.9512 85.1994 60.9225 85.5113 61.0398 85.8402C61.0841 85.9615 61.1441 86.0672 61.2196 86.1521C61.4816 86.447 61.9612 86.5122 62.3118 86.2995V86.3008ZM61.5924 85.8219C61.5585 85.784 61.5311 85.7331 61.509 85.6718C61.4477 85.5008 61.4542 85.3521 61.5259 85.2516C61.6015 85.1459 61.7566 85.0872 61.9495 85.0911C62.0694 85.0937 62.1828 85.1485 62.2336 85.2307C62.2571 85.2699 62.2727 85.3221 62.2792 85.3847C62.2988 85.5805 62.2076 85.7827 62.0551 85.8754C61.9091 85.9641 61.6967 85.9406 61.5937 85.8232L61.5924 85.8219Z" fill="#193E3C"/>
<path d="M59.1895 84.4464C59.2781 84.3772 59.3642 84.2937 59.3941 84.1854C59.4345 84.0457 59.372 83.8904 59.2677 83.7886C59.1634 83.6869 59.024 83.6294 58.8832 83.589C58.3345 83.4324 58.2889 84.2558 58.633 84.5077C58.6864 84.5469 58.749 84.5769 58.8142 84.5847C58.9497 84.6017 59.08 84.5286 59.1869 84.4451L59.1895 84.4464Z" fill="#193E3C"/>
</g>
<defs>
<clipPath id="clip0_1830_3296">
<rect width="81.3665" height="80.2669" fill="white" transform="translate(50.5215 51.2609)"/>
</clipPath>
</defs>
</svg>
