<svg width="184" height="184" viewBox="0 0 184 184" fill="none" xmlns="http://www.w3.org/2000/svg">
<rect width="183.075" height="183.075" rx="16.2733" fill="#193E3C"/>
<g clip-path="url(#clip0_1830_3258)">
<path d="M115.494 72.4415C115.603 72.2979 115.712 72.1544 115.823 72.0121C115.53 71.6363 115.229 71.2643 114.917 70.8989C108.088 62.8822 97.8787 58.787 87.0246 60.0098C83.0182 60.4613 79.1356 61.722 75.6257 63.7096C68.6946 67.6364 63.7016 73.6525 61.1797 80.6945C61.34 80.7597 61.4977 80.8354 61.6515 80.9202C63.4527 75.8606 66.552 71.3374 70.7422 67.7577C77.0529 62.368 85.0813 59.7618 93.3496 60.4183C101.618 61.0747 109.135 64.9167 114.518 71.2356C114.854 71.6298 115.178 72.0317 115.492 72.4389L115.494 72.4415Z" fill="#FF96DB"/>
<path d="M65.0338 109.273C65.1407 109.216 65.2436 109.151 65.344 109.084C64.6467 108.076 64.0107 107.036 63.4424 105.965C63.316 106.093 63.1844 106.216 63.0488 106.333C63.6027 107.365 64.2179 108.37 64.8904 109.345C64.9386 109.323 64.9869 109.299 65.0351 109.273H65.0338Z" fill="#FF96DB"/>
<path d="M118.241 106.176C115.489 111.289 111.28 115.633 105.873 118.684C102.423 120.631 98.608 121.865 94.6707 122.305C85.8706 123.289 77.5033 120.717 71.0779 115.361C70.9267 115.46 70.7781 115.562 70.6309 115.665C75.62 119.863 81.7717 122.403 88.3991 122.93C96.8068 123.598 104.97 120.948 111.387 115.468C114.43 112.87 116.905 109.781 118.739 106.354C118.576 106.287 118.411 106.227 118.243 106.175L118.241 106.176Z" fill="#FF96DB"/>
<path d="M94.7052 65.6684C102.572 67.2136 105.983 72.2536 102.055 85.095C100.831 89.1171 99.9445 92.8195 99.1925 96.099C100.363 95.0863 101.533 94.0723 102.56 93.04C113.205 82.6129 119.494 71.7955 118.797 65.2234C118.87 65.286 118.95 65.35 119.036 65.4152C121.92 67.5724 122.745 71.5554 120.839 74.6144C117.434 80.0824 111.382 87.3162 103.931 94.2628C102.248 95.7923 100.492 97.3127 98.5813 98.8839C96.4986 109.041 97.029 114.707 101.28 115.304C104.019 115.687 107.513 113.824 109.924 110.777C110.376 111.18 110.418 111.869 110.024 112.33C107.628 115.129 104.376 116.989 100.965 116.511C95.3438 115.723 92.4543 112.742 93.6404 102.68C87.6268 107.664 77.7203 111.6 69.8508 114.39C66.685 115.513 63.1061 114.364 61.3153 111.519C61.2358 111.393 61.1511 111.27 61.0625 111.152C68.1826 110.68 85.1883 105.837 94.0235 99.9384C94.6713 95.8354 95.9642 90.7928 97.7901 84.573C101.451 72.063 100.338 67.9339 94.2829 66.5689C86.0133 64.7471 79.1865 74.6783 78.7277 80.0602C78.458 83.0396 79.2777 85.5818 82.132 86.7185C80.7987 86.8659 79.67 87.2052 78.7395 87.6503C75.8696 89.0231 72.5943 86.7407 72.8485 83.5668C73.547 74.8662 82.3783 63.2384 94.7026 65.6723L94.7052 65.6684Z" fill="#FF96DB"/>
<path d="M70.4088 61.4609L68.6363 60.858L68.6519 62.7255L67.9638 63.2201L67.9794 60.6884L65.6895 59.9158L66.3724 59.4238L68.0367 59.9837L68.0276 58.2323L68.6832 57.7599L68.6741 60.1533L71.1061 60.9585L70.4088 61.4609Z" fill="#FF96DB"/>
<path d="M73.3922 55.343C73.6737 55.3273 73.924 55.3847 74.1442 55.5126C74.3632 55.6405 74.5404 55.8363 74.6734 56.0986C74.805 56.357 74.8585 56.6141 74.835 56.8685C74.8102 57.123 74.7099 57.3605 74.5313 57.5798C74.3541 57.799 74.1103 57.9883 73.8015 58.1462L72.996 58.5573L73.5212 59.5895L72.8579 59.9275L71.0371 56.3518L72.506 55.6014C72.8148 55.4435 73.1107 55.3573 73.3922 55.3417V55.343ZM74.0478 57.08C74.1351 56.8816 74.1208 56.6676 74.0048 56.4392C73.8888 56.2108 73.7246 56.0738 73.5121 56.0281C73.2997 55.9824 73.0494 56.032 72.7601 56.1808L71.9846 56.5762L72.708 57.9961L73.4834 57.6007C73.7728 57.4532 73.9605 57.2796 74.0478 57.0813V57.08Z" fill="#FF96DB"/>
<path d="M80.6548 55.9916L80.8516 56.5841L77.9986 57.5328L76.7344 53.7247L79.5105 52.8008L79.7073 53.3933L77.6376 54.0823L77.966 55.0728L79.8024 54.4621L79.9953 55.0441L78.1589 55.6549L78.5069 56.7054L80.6535 55.9916H80.6548Z" fill="#FF96DB"/>
<path d="M85.7694 55.5767L84.7684 54.5522C84.7358 54.5613 84.685 54.5718 84.6172 54.5835L83.7245 54.7336L83.9173 55.8872L83.1836 56.0099L82.5215 52.0518L84.148 51.779C84.4908 51.7216 84.7984 51.7281 85.0708 51.7986C85.3432 51.8691 85.566 51.9983 85.7368 52.1862C85.9075 52.3741 86.017 52.6142 86.0652 52.904C86.1147 53.2015 86.0861 53.4703 85.9766 53.7092C85.8671 53.948 85.686 54.1437 85.4331 54.2938L86.5592 55.4422L85.7681 55.5753L85.7694 55.5767ZM84.9796 52.4877C84.7906 52.3793 84.5364 52.3532 84.2171 52.4067L83.3582 52.5503L83.6215 54.1281L84.4804 53.9845C84.801 53.931 85.0317 53.8214 85.1737 53.6557C85.3158 53.4899 85.3666 53.2811 85.3249 53.0292C85.2832 52.7761 85.1672 52.596 84.9796 52.489V52.4877Z" fill="#FF96DB"/>
<path d="M88.7637 51.2883L89.5079 51.2609L89.6591 55.2712L88.9149 55.2986L88.7637 51.2883Z" fill="#FF96DB"/>
<path d="M95.3864 54.907L95.3329 55.5295L92.3379 55.2724L92.6794 51.2751L95.5949 51.5257L95.5415 52.1482L93.3675 51.9616L93.2789 53.0017L95.2065 53.1674L95.1544 53.7782L93.2268 53.6124L93.1329 54.7152L95.3864 54.9083V54.907Z" fill="#FF96DB"/>
<path d="M102.13 52.8883L101.155 56.7812L100.561 56.6324L99.0775 53.4586L98.418 56.0947L97.7012 55.9146L98.6761 52.0217L99.2704 52.1705L100.754 55.3443L101.413 52.7082L102.13 52.8883Z" fill="#FF96DB"/>
<path d="M106.763 58.3081L106.515 58.8875L103.373 57.5394L103.569 57.0813L106.871 55.3613L104.739 54.4465L104.987 53.8671L108.023 55.1695L107.827 55.6275L104.524 57.3476L106.76 58.3068L106.763 58.3081Z" fill="#FF96DB"/>
<path d="M111.393 61.0042L111.065 61.5353L108.508 59.9536L110.614 56.5397L113.103 58.0796L112.775 58.6107L110.919 57.4636L110.372 58.351L112.018 59.369L111.696 59.891L110.05 58.8731L109.468 59.814L111.392 61.0042H111.393Z" fill="#FF96DB"/>
<path d="M114.993 64.6647L115.134 63.2383C115.105 63.2187 115.064 63.1861 115.012 63.1417L114.325 62.5532L113.566 63.4419L113 62.9577L115.607 59.9092L116.859 60.9832C117.122 61.209 117.315 61.4504 117.437 61.7049C117.558 61.9594 117.601 62.2139 117.567 62.4657C117.532 62.7176 117.42 62.9551 117.228 63.1796C117.032 63.4093 116.807 63.558 116.554 63.6285C116.301 63.699 116.035 63.6846 115.757 63.5867L115.6 65.1893L114.991 64.6673L114.993 64.6647ZM116.85 62.0768C116.812 61.8628 116.669 61.6501 116.423 61.4387L115.762 60.8723L114.723 62.0873L115.384 62.6536C115.63 62.8651 115.862 62.9721 116.081 62.976C116.299 62.9799 116.492 62.8833 116.657 62.6889C116.824 62.4944 116.888 62.2895 116.849 62.0755L116.85 62.0768Z" fill="#FF96DB"/>
<path d="M69.9826 124.35L71.6195 122.254L69.2253 123.171L68.9647 122.964L69.2657 120.446L67.6457 122.51L67.0879 122.072L69.5642 118.916L70.0464 119.295L69.6567 122.371L72.5267 121.246L73.0089 121.624L70.5378 124.784L69.9839 124.348L69.9826 124.35Z" fill="#FF96DB"/>
<path d="M76.0695 126.862L74.2839 125.952L73.5111 126.599L72.8281 126.25L76.2546 123.495L76.9075 123.828L76.699 128.226L76.0056 127.873L76.0695 126.862ZM76.1151 126.23L76.2376 124.323L74.774 125.544L76.1151 126.23Z" fill="#FF96DB"/>
<path d="M80.9972 127.968L80.1995 128.408L79.9011 129.389L79.1895 129.172L80.3559 125.333L81.0675 125.55L80.4693 127.519L82.9626 126.126L83.7628 126.37L81.6306 127.597L82.6954 130.24L81.8626 129.987L80.9985 127.968H80.9972Z" fill="#FF96DB"/>
<path d="M88.3597 130.486L88.2828 131.106L85.3008 130.733L85.7987 126.751L88.7012 127.116L88.6243 127.735L86.4594 127.464L86.3304 128.499L88.2502 128.739L88.1746 129.347L86.2548 129.107L86.118 130.205L88.3623 130.486H88.3597Z" fill="#FF96DB"/>
<path d="M92.0095 130.978C91.6719 130.819 91.4008 130.587 91.1962 130.283C90.9916 129.979 90.8795 129.632 90.8573 129.243C90.8352 128.854 90.9095 128.496 91.0789 128.171C91.2483 127.846 91.4921 127.585 91.8101 127.39C92.1281 127.194 92.4904 127.084 92.8983 127.062C93.3063 127.039 93.679 127.108 94.0166 127.267C94.3541 127.426 94.6252 127.657 94.8299 127.959C95.0345 128.261 95.1466 128.609 95.1687 129.003C95.1909 129.395 95.1166 129.754 94.9472 130.077C94.7777 130.399 94.534 130.66 94.216 130.856C93.898 131.052 93.5357 131.161 93.1277 131.183C92.7198 131.207 92.347 131.138 92.0095 130.978ZM93.8015 130.309C94.0088 130.177 94.1665 130 94.2759 129.777C94.3854 129.555 94.4337 129.309 94.418 129.042C94.4037 128.774 94.3281 128.537 94.1951 128.328C94.0609 128.119 93.8836 127.961 93.6647 127.853C93.4444 127.745 93.2007 127.698 92.9348 127.713C92.6677 127.728 92.4317 127.802 92.2245 127.934C92.0173 128.066 91.8596 128.243 91.7501 128.466C91.6406 128.688 91.5924 128.933 91.608 129.201C91.6237 129.469 91.698 129.706 91.8309 129.915C91.9652 130.124 92.1424 130.283 92.3627 130.39C92.5829 130.498 92.8267 130.545 93.0925 130.53C93.3597 130.515 93.5956 130.441 93.8028 130.309H93.8015Z" fill="#FF96DB"/>
<path d="M100.68 125.788L99.9114 130.098L99.1985 130.268L96.5645 126.772L97.3504 126.584L99.3653 129.286L99.957 125.962L100.68 125.788Z" fill="#FF96DB"/>
<path d="M106.538 127.089L106.782 127.665L104.014 128.838L102.451 125.142L105.145 124L105.389 124.576L103.38 125.428L103.787 126.389L105.569 125.633L105.807 126.198L104.026 126.954L104.457 127.973L106.54 127.089H106.538Z" fill="#FF96DB"/>
<path d="M111.61 124.849L110.286 124.305C110.259 124.327 110.217 124.355 110.16 124.393L109.399 124.884L110.031 125.868L109.405 126.271L107.236 122.896L108.623 122.002C108.915 121.815 109.2 121.698 109.479 121.655C109.758 121.612 110.012 121.644 110.244 121.749C110.476 121.855 110.671 122.031 110.83 122.279C110.993 122.534 111.072 122.791 111.065 123.054C111.06 123.317 110.97 123.568 110.797 123.807L112.285 124.417L111.612 124.851L111.61 124.849ZM109.667 122.323C109.452 122.299 109.207 122.374 108.935 122.551L108.203 123.022L109.067 124.367L109.8 123.896C110.072 123.72 110.242 123.528 110.308 123.319C110.373 123.11 110.338 122.899 110.2 122.684C110.062 122.468 109.885 122.348 109.668 122.323H109.667Z" fill="#FF96DB"/>
<path d="M114.75 122.32C114.477 122.449 114.231 122.517 114.008 122.523L113.809 121.922C114.017 121.907 114.237 121.85 114.469 121.749C114.701 121.649 114.906 121.518 115.083 121.355C115.304 121.154 115.435 120.969 115.48 120.799C115.524 120.63 115.494 120.487 115.388 120.371C115.311 120.286 115.218 120.245 115.107 120.245C114.996 120.245 114.88 120.272 114.759 120.325C114.638 120.379 114.479 120.46 114.282 120.567C114.007 120.72 113.776 120.833 113.587 120.906C113.398 120.981 113.203 121.005 112.998 120.982C112.793 120.958 112.603 120.85 112.426 120.656C112.277 120.493 112.186 120.302 112.152 120.087C112.12 119.871 112.156 119.643 112.263 119.4C112.37 119.158 112.554 118.917 112.813 118.681C112.993 118.517 113.192 118.377 113.407 118.262C113.624 118.147 113.833 118.074 114.037 118.044L114.253 118.63C114.054 118.672 113.866 118.739 113.689 118.827C113.512 118.916 113.356 119.022 113.225 119.143C113.007 119.342 112.879 119.526 112.84 119.695C112.801 119.865 112.838 120.011 112.948 120.132C113.025 120.217 113.119 120.259 113.229 120.256C113.338 120.255 113.454 120.226 113.575 120.173C113.697 120.119 113.856 120.038 114.052 119.931C114.318 119.781 114.548 119.669 114.738 119.596C114.928 119.523 115.126 119.497 115.33 119.518C115.533 119.54 115.722 119.646 115.897 119.839C116.046 120.003 116.136 120.191 116.169 120.405C116.202 120.619 116.162 120.848 116.054 121.092C115.946 121.336 115.762 121.576 115.502 121.813C115.274 122.022 115.023 122.19 114.751 122.321L114.75 122.32Z" fill="#FF96DB"/>
<path d="M127.86 96.095C127.117 96.0598 126.375 96.0233 125.632 95.988C124.746 95.945 123.85 95.9032 122.979 96.0742C122.108 96.2451 121.252 96.6523 120.712 97.357C120.389 97.7798 120.199 98.2836 119.917 98.7325C119.911 98.7429 119.904 98.7534 119.898 98.7638C119.921 98.2118 119.949 97.6572 119.994 97.1091C120.074 96.142 120.209 95.2624 120.404 94.4651C120.748 94.6021 121.127 94.5421 121.429 94.4677C124.312 93.7656 126.5 90.7823 126.308 87.8186C126.302 87.7351 126.255 87.6607 126.184 87.6189C126.112 87.5771 126.023 87.5745 125.949 87.6124C124.641 88.2662 123.157 89.0075 122.057 90.1559C121.412 90.8306 120.888 91.6462 120.483 92.6159C120.432 92.2831 120.361 91.9516 120.295 91.6488C120.258 91.4753 120.222 91.3134 120.196 91.1673C119.847 89.3141 119.224 87.538 118.342 85.8884C118.227 85.6744 118 85.4434 117.753 85.4108C117.605 85.3912 117.468 85.4408 117.367 85.5491C117.322 85.5961 117.298 85.6588 117.299 85.724C117.337 88.0117 117.712 90.2564 118.416 92.4188C118.589 92.9512 118.782 93.4798 118.996 94.0018C119.184 94.4599 119.507 94.73 119.841 94.7065C119.683 95.4321 119.569 96.2164 119.499 97.0673C119.435 97.8516 119.403 98.6503 119.371 99.4242C119.36 99.7269 119.347 100.032 119.332 100.339C118.781 98.7273 117.848 97.2526 116.619 96.0442C115.838 95.2768 114.963 94.6439 114.017 94.1636C113.836 94.071 113.681 94.071 113.555 94.161C113.466 94.2236 113.368 94.3528 113.407 94.6073C113.48 95.0745 113.6 95.5339 113.746 95.9815C113.94 96.5792 114.183 97.16 114.423 97.7172C114.867 98.7495 115.362 99.8366 116.079 100.772C116.577 101.421 117.379 102.269 118.37 102.625C118.731 102.755 118.982 102.722 119.155 102.638C119.086 103.213 118.992 103.783 118.86 104.343C118.742 104.843 118.592 105.333 118.415 105.815C118.333 104.869 116.95 103.271 116.658 102.953C116.617 102.909 116.548 102.862 116.504 102.903C116.484 102.922 116.481 102.95 116.477 102.978C116.405 103.6 116.952 106.974 118.107 106.423C118.14 106.407 118.168 106.39 118.196 106.371C118.093 106.612 117.981 106.85 117.863 107.085C118.024 107.13 118.068 107.214 118.222 107.283C118.841 106.333 119.079 105.52 119.307 104.603C119.392 104.733 119.502 104.857 119.641 104.971C120.38 105.573 121.737 105.78 122.392 105.691C122.901 105.623 123.376 105.446 123.835 105.275L126.116 104.424C126.54 104.266 126.615 104.027 126.603 103.853C126.589 103.63 126.418 103.493 126.338 103.427C125.42 102.685 123.982 101.807 122.343 101.836C121.64 101.849 120.924 102.06 120.324 102.434C120.114 102.564 119.843 102.755 119.61 102.986C119.77 101.806 119.821 100.612 119.868 99.4464C119.872 99.3485 119.877 99.2493 119.881 99.1501C119.913 99.1579 119.953 99.1645 119.998 99.171C120.293 99.2154 120.633 99.1697 120.93 99.1553C122.171 99.0966 123.405 98.8865 124.595 98.5302C125.569 98.2392 126.53 97.8399 127.306 97.1821C127.63 96.9055 127.942 96.5153 127.86 96.0977V96.095ZM121.312 93.9835C121.218 94.0057 121.115 94.0279 121.012 94.0396C121.562 93.7669 122.097 93.4602 122.605 93.1196C123.345 92.6237 123.932 92.1252 124.397 91.5966C124.827 91.1072 125.184 90.5591 125.514 90.0019C124.866 91.9033 123.262 93.5098 121.312 93.9835ZM122.416 90.4991C122.879 90.0162 123.408 89.613 123.971 89.2541C122.979 90.4456 121.966 91.6319 120.948 92.7972C121.33 91.8903 121.816 91.1255 122.417 90.4978L122.416 90.4991ZM120.81 93.1444C121.987 91.8015 123.159 90.4286 124.3 89.0518C124.796 88.7569 125.309 88.4881 125.823 88.231C125.823 88.2466 125.823 88.2623 125.821 88.2779C125.327 88.7203 124.823 89.1758 124.363 89.6678C124.121 89.9275 123.886 90.2016 123.659 90.4665C123.332 90.8502 122.992 91.2456 122.626 91.6018C122.454 91.7689 122.273 91.9372 122.089 92.1082C121.587 92.5741 121.076 93.053 120.66 93.5724C120.709 93.4263 120.759 93.284 120.811 93.1444H120.81ZM120.551 93.9196C120.989 93.301 121.588 92.7424 122.172 92.1995C122.357 92.0273 122.54 91.8576 122.712 91.6906C123.083 91.3304 123.423 90.9324 123.753 90.5474C123.979 90.2838 124.213 90.0097 124.454 89.7526C124.883 89.2946 125.352 88.8652 125.816 88.4502C125.798 88.8039 125.746 89.1562 125.661 89.5008C125.262 90.2002 124.84 90.905 124.304 91.5131C123.846 92.0338 123.267 92.5245 122.536 93.0152C121.962 93.4002 121.356 93.7408 120.731 94.037C120.66 94.0266 120.594 94.007 120.534 93.9757C120.539 93.9561 120.546 93.9391 120.551 93.9196ZM116.269 96.3978C117.485 97.5932 118.395 99.0614 118.916 100.663C118.953 100.774 118.987 100.886 119.019 100.998C119.065 101.157 119.092 101.315 119.107 101.464C118.175 99.3863 116.929 97.4183 115.448 95.6801C115.731 95.9045 116.007 96.1407 116.269 96.3978ZM113.802 94.5851C113.779 94.593 113.759 94.5917 113.753 94.5904L113.904 94.3855L113.802 94.5864V94.5851ZM118.988 102.157C118.886 102.252 118.687 102.209 118.538 102.156C117.66 101.84 116.931 101.063 116.474 100.468C115.791 99.5782 115.311 98.5237 114.88 97.5188C114.475 96.5792 114.098 95.654 113.925 94.6752C114.115 94.7757 114.303 94.8853 114.486 94.9988C114.681 95.4151 114.828 95.8223 114.973 96.2177C115.167 96.7541 115.367 97.3074 115.682 97.8829C116.324 99.0601 116.988 100.278 117.814 101.367C118.128 101.78 118.559 102.038 119.026 102.106C119.014 102.124 119.002 102.144 118.989 102.157H118.988ZM119.078 101.989C118.63 101.934 118.213 101.69 117.912 101.293C117.09 100.21 116.428 98.9974 115.788 97.8242C115.48 97.2578 115.28 96.7071 115.087 96.176C114.963 95.8327 114.833 95.4817 114.675 95.1228C114.774 95.1868 114.872 95.2546 114.969 95.3225C116.677 97.2291 118.095 99.4411 119.111 101.786C119.104 101.862 119.095 101.931 119.078 101.989ZM123.662 104.805C123.228 104.967 122.779 105.134 122.326 105.195C121.745 105.273 120.563 105.078 119.955 104.582C119.91 104.545 119.872 104.506 119.835 104.468C120.663 104.698 121.532 104.682 122.286 104.631C123.296 104.562 124.303 104.417 125.292 104.198L123.662 104.806V104.805ZM122.276 104.506C121.519 104.558 120.643 104.575 119.818 104.336C120.112 104.238 120.4 104.124 120.682 104.011C121.265 103.779 121.868 103.54 122.494 103.457C123.971 103.261 125.149 103.397 126.089 103.873C124.844 104.204 123.561 104.417 122.276 104.505V104.506ZM125.738 103.589C124.849 103.248 123.778 103.162 122.478 103.334C121.837 103.419 121.226 103.662 120.637 103.896C120.325 104.02 120.003 104.146 119.68 104.249C119.654 104.197 119.635 104.143 119.623 104.088C121.096 103.074 122.997 102.654 124.757 102.966C125.119 103.158 125.449 103.374 125.738 103.589ZM120.589 102.854C121.113 102.528 121.739 102.342 122.353 102.332C123.086 102.319 123.778 102.509 124.394 102.789C122.736 102.594 120.991 103.016 119.607 103.949C119.618 103.639 119.977 103.235 120.589 102.855V102.854ZM119.805 94.2093C119.73 94.2145 119.571 94.0944 119.455 93.8126C118.49 91.4479 117.945 88.9657 117.824 86.4235C117.9 86.9168 118.059 87.3997 118.215 87.8721L118.252 87.983C118.926 90.0058 119.457 92.0951 119.841 94.1936C119.829 94.2015 119.816 94.2093 119.805 94.2093ZM118.37 87.9426L118.334 87.8303C118.153 87.2835 117.968 86.721 117.918 86.1508C118.406 87.0656 118.811 88.0209 119.133 89.0075C119.371 89.7422 119.564 90.4926 119.708 91.2586C119.735 91.4074 119.771 91.5744 119.809 91.7519C119.96 92.454 120.149 93.3271 120.009 93.8791C119.99 93.9535 119.967 94.0096 119.943 94.0579C119.562 91.9907 119.034 89.934 118.372 87.9426H118.37Z" fill="#FF96DB"/>
<path d="M122.466 85.4982C122.255 85.5061 122.042 85.5961 121.837 85.7658C121.492 86.049 121.306 86.4418 121.337 86.8137C121.344 86.8855 121.358 86.9547 121.38 87.0212C121.5 87.3905 121.843 87.6842 122.237 87.7285C122.694 87.7807 123.154 87.5041 123.33 87.0708C123.467 86.7354 123.388 86.2199 123.145 85.8715C122.97 85.6196 122.729 85.4852 122.467 85.4943L122.466 85.4982ZM122.483 85.9955C122.573 85.9929 122.658 86.0477 122.736 86.1586C122.783 86.2265 122.819 86.3048 122.847 86.387C122.908 86.5736 122.914 86.7733 122.869 86.8842C122.778 87.1073 122.525 87.2613 122.291 87.2352C122.058 87.2091 121.852 87.0016 121.833 86.772C121.812 86.5253 121.984 86.2891 122.152 86.1495C122.234 86.0816 122.359 85.9994 122.483 85.9955Z" fill="#FF96DB"/>
<path d="M121.186 79.6778C121.262 79.5917 121.323 79.4873 121.366 79.3659C121.483 79.0357 121.455 78.7238 121.285 78.4876C121.113 78.2475 120.808 78.1131 120.449 78.1196C120.157 78.1248 119.889 78.2684 119.75 78.4955C119.686 78.5986 119.647 78.7212 119.633 78.8583C119.617 79.0057 119.634 79.1532 119.678 79.2889C119.751 79.5121 119.897 79.7078 120.094 79.8266C120.445 80.0393 120.924 79.9741 121.186 79.6791V79.6778ZM120.352 79.3998C120.2 79.3072 120.108 79.1062 120.128 78.9092C120.134 78.8478 120.15 78.7943 120.174 78.7552C120.223 78.6742 120.338 78.6181 120.458 78.6155C120.651 78.6116 120.806 78.6703 120.881 78.776C120.953 78.8765 120.958 79.0253 120.898 79.1963C120.876 79.2576 120.847 79.3085 120.815 79.3463C120.71 79.4638 120.499 79.4873 120.353 79.3985L120.352 79.3998Z" fill="#FF96DB"/>
<path d="M121.158 83.2248C121.07 83.1557 120.984 83.0721 120.954 82.9638C120.913 82.8242 120.976 82.6689 121.08 82.5671C121.184 82.4653 121.324 82.4079 121.465 82.3674C122.013 82.2108 122.059 83.0343 121.715 83.2862C121.662 83.3253 121.599 83.3553 121.534 83.3632C121.398 83.3801 121.268 83.307 121.161 83.2235L121.158 83.2248Z" fill="#FF96DB"/>
<path d="M68.1077 93.853C67.9812 93.763 67.8261 93.7643 67.645 93.8556C66.6988 94.3372 65.8242 94.9688 65.0435 95.7362C63.8145 96.9446 62.88 98.4206 62.33 100.031C62.3157 99.7243 62.3027 99.419 62.2909 99.1162C62.2596 98.3436 62.2284 97.5436 62.1632 96.7593C62.0928 95.9084 61.9781 95.1241 61.8217 94.3985C62.1554 94.422 62.4799 94.1519 62.6663 93.6938C62.88 93.1718 63.0729 92.6433 63.2463 92.1108C63.9501 89.9497 64.3241 87.7037 64.3632 85.416C64.3632 85.3508 64.3397 85.2881 64.2954 85.2412C64.1938 85.1328 64.0556 85.0832 63.9096 85.1028C63.6607 85.1354 63.4339 85.3664 63.3205 85.5805C62.4382 87.2287 61.8152 89.0061 61.4659 90.8593C61.4385 91.0041 61.4034 91.1673 61.3669 91.3408C61.3017 91.6436 61.2313 91.9751 61.1792 92.3079C60.7739 91.3382 60.2499 90.5226 59.6048 89.8479C58.5048 88.6995 57.0216 87.9582 55.713 87.3044C55.6388 87.2666 55.5501 87.2692 55.4785 87.3109C55.4068 87.3527 55.3598 87.4271 55.3546 87.5106C55.1617 90.4756 57.35 93.4589 60.233 94.1597C60.5366 94.2341 60.9159 94.2941 61.2587 94.1571C61.4529 94.9532 61.5884 95.834 61.6679 96.8011C61.7135 97.3492 61.7409 97.9051 61.7644 98.4558C61.7579 98.4454 61.7513 98.4363 61.7448 98.4245C61.4633 97.9756 61.273 97.4732 60.9498 97.049C60.4102 96.3443 59.5539 95.9358 58.6833 95.7662C57.8127 95.5952 56.916 95.637 56.0298 95.6801C55.2869 95.7153 54.5453 95.7518 53.8024 95.7871C53.7203 96.206 54.0318 96.5962 54.3563 96.8715C55.1318 97.5293 56.0936 97.9286 57.0672 98.2196C58.2571 98.5759 59.4914 98.786 60.7321 98.8447C61.0293 98.8591 61.3695 98.9048 61.664 98.8604C61.7109 98.8539 61.7487 98.846 61.7813 98.8395C61.7852 98.9374 61.7904 99.0379 61.7944 99.1358C61.8413 100.301 61.8908 101.495 62.0524 102.675C61.8191 102.444 61.548 102.253 61.3382 102.123C60.7387 101.75 60.0218 101.538 59.3193 101.525C57.6785 101.497 56.2409 102.375 55.3247 103.116C55.2425 103.183 55.0718 103.32 55.0588 103.543C55.0471 103.716 55.1239 103.955 55.5462 104.113L57.827 104.964C58.2871 105.135 58.7615 105.312 59.2698 105.38C59.9254 105.469 61.2821 105.263 62.0211 104.66C62.1606 104.546 62.2701 104.422 62.3548 104.292C62.5829 105.208 62.8396 106.056 63.3844 106.944C63.5382 106.882 63.6333 106.817 63.7871 106.752C63.6737 106.525 63.5656 106.294 63.4665 106.06C63.4939 106.078 63.5226 106.097 63.5551 106.112C64.7086 106.663 65.2573 103.29 65.1856 102.667C65.183 102.641 65.1778 102.611 65.1582 102.593C65.1139 102.551 65.0448 102.598 65.0044 102.642C64.7138 102.961 63.3297 104.558 63.2476 105.504C63.0703 105.023 62.9191 104.532 62.8018 104.032C62.6689 103.472 62.5763 102.902 62.5073 102.328C62.6793 102.41 62.9309 102.444 63.2919 102.315C64.2837 101.959 65.0852 101.11 65.5831 100.462C66.3012 99.526 66.7952 98.4389 67.2396 97.4066C67.4795 96.8494 67.7219 96.2686 67.9161 95.6709C68.062 95.222 68.1819 94.7639 68.2549 94.2967C68.2953 94.0422 68.1976 93.913 68.1077 93.8504V93.853ZM59.2464 90.1937C59.8472 90.8201 60.3333 91.5849 60.7152 92.4932C59.6973 91.3278 58.6846 90.1415 57.6928 88.95C58.2545 89.3089 58.785 89.7122 59.2477 90.195L59.2464 90.1937ZM55.8395 87.9256C56.353 88.184 56.8665 88.4515 57.3618 88.7464C58.5035 90.1233 59.6752 91.4961 60.8521 92.839C60.9042 92.9786 60.955 93.1209 61.0032 93.2671C60.5875 92.7477 60.0766 92.27 59.5748 91.8028C59.3897 91.6306 59.2086 91.4622 59.0378 91.2965C58.6716 90.9402 58.3327 90.5448 58.0043 90.1611C57.7775 89.8962 57.5429 89.6221 57.3005 89.3624C56.8404 88.8704 56.336 88.415 55.8421 87.9726C55.8421 87.9569 55.8408 87.9412 55.8408 87.9256H55.8395ZM60.3503 93.6781C58.4005 93.2031 56.7961 91.5966 56.1484 89.6965C56.4781 90.2538 56.8339 90.8019 57.2653 91.2912C57.7306 91.8198 58.3171 92.3183 59.0574 92.8142C59.5657 93.1548 60.1 93.4615 60.65 93.7343C60.5471 93.7225 60.4441 93.7016 60.3503 93.6781ZM60.9316 93.733C60.306 93.4367 59.6999 93.0961 59.1265 92.7111C58.3953 92.2204 57.8166 91.7297 57.3578 91.209C56.8222 90.6009 56.3999 89.8962 56.0011 89.1967C55.9164 88.8522 55.8629 88.5011 55.846 88.1461C56.31 88.5611 56.7792 88.9905 57.208 89.4486C57.4491 89.7056 57.6824 89.9797 57.9091 90.2433C58.2389 90.6283 58.5804 91.0263 58.9505 91.3865C59.1225 91.5536 59.305 91.7232 59.4901 91.8955C60.074 92.4384 60.6735 92.9969 61.1114 93.6155C61.1166 93.6351 61.1231 93.652 61.1284 93.6716C61.0684 93.7042 61.0019 93.7225 60.9316 93.733ZM61.7201 93.7538C61.6966 93.7055 61.6731 93.6494 61.6549 93.575C61.5141 93.023 61.7031 92.15 61.8543 91.4479C61.8921 91.2704 61.9286 91.1033 61.956 90.9546C62.0993 90.1898 62.2922 89.4381 62.5307 88.7034C62.8513 87.7168 63.258 86.7615 63.7454 85.8467C63.6959 86.417 63.5108 86.9794 63.3297 87.5263L63.2932 87.6385C62.6311 89.6313 62.1032 91.688 61.7214 93.7538H61.7201ZM63.4092 87.6776L63.4457 87.5667C63.6034 87.0956 63.7611 86.6114 63.8367 86.1181C63.7142 88.6603 63.1707 91.1438 62.2049 93.5072C62.0889 93.7891 61.9312 93.9091 61.8543 93.9039C61.8439 93.9039 61.8308 93.8948 61.8191 93.8883C62.201 91.7898 62.7341 89.7004 63.4079 87.6776H63.4092ZM61.707 104.276C61.0997 104.772 59.9163 104.968 59.3363 104.89C58.8827 104.828 58.4344 104.661 58.0004 104.499L56.3699 103.891C57.3591 104.111 58.3666 104.255 59.3767 104.325C60.13 104.375 60.998 104.391 61.8269 104.161C61.7904 104.201 61.7513 104.238 61.707 104.275V104.276ZM59.3858 104.201C58.1007 104.113 56.8183 103.9 55.5736 103.569C56.5133 103.093 57.6915 102.956 59.1682 103.153C59.7938 103.236 60.3972 103.475 60.9798 103.707C61.2613 103.819 61.5506 103.934 61.8439 104.032C61.0189 104.271 60.143 104.254 59.3858 104.202V104.201ZM61.982 103.943C61.6588 103.84 61.3369 103.715 61.0254 103.591C60.435 103.356 59.825 103.115 59.1838 103.029C57.8844 102.856 56.8131 102.943 55.9242 103.283C56.2135 103.068 56.5433 102.852 56.9056 102.661C58.6651 102.35 60.5666 102.769 62.0394 103.783C62.0276 103.838 62.0081 103.891 61.982 103.943ZM57.2679 102.482C57.8844 102.203 58.5778 102.012 59.3089 102.025C59.9228 102.036 60.5497 102.222 61.0736 102.547C61.6849 102.928 62.0446 103.331 62.055 103.641C60.6709 102.708 58.9257 102.286 57.2679 102.481V102.482ZM62.6428 100.693C62.6754 100.58 62.7093 100.468 62.7458 100.357C63.2671 98.7573 64.1768 97.2878 65.3928 96.0924C65.6548 95.8354 65.9311 95.5991 66.2139 95.3747C64.732 97.113 63.4861 99.0796 62.5555 101.159C62.5698 101.01 62.5972 100.852 62.6428 100.693ZM62.5503 101.481C63.5656 99.1358 64.9836 96.9237 66.6922 95.0171C66.7887 94.9492 66.8864 94.8814 66.9855 94.8174C66.8278 95.1763 66.6988 95.5274 66.5736 95.8706C66.3807 96.4017 66.1813 96.9511 65.8725 97.5188C65.2325 98.692 64.5717 99.9057 63.7493 100.988C63.4483 101.384 63.0312 101.628 62.5829 101.683C62.5659 101.624 62.5555 101.555 62.5503 101.481ZM66.7835 97.2135C66.3508 98.217 65.8712 99.2715 65.1895 100.163C64.732 100.759 64.0035 101.536 63.125 101.85C62.9752 101.904 62.7771 101.948 62.6754 101.852C62.6611 101.838 62.6506 101.819 62.6389 101.801C63.1055 101.733 63.5369 101.476 63.851 101.062C64.6786 99.9723 65.342 98.7547 65.9832 97.5776C66.296 97.002 66.498 96.4487 66.6922 95.9123C66.8369 95.5156 66.9842 95.1098 67.1784 94.6935C67.3635 94.5799 67.5498 94.4703 67.7401 94.3698C67.5668 95.3486 67.1888 96.2751 66.7848 97.2135H66.7835ZM67.86 94.2798L67.7584 94.0788L67.9095 94.2837C67.903 94.285 67.8835 94.2863 67.86 94.2785V94.2798Z" fill="#FF96DB"/>
<path d="M58.3787 86.6636C58.1363 87.012 58.0568 87.5275 58.1937 87.8629C58.3696 88.2949 58.8297 88.5715 59.2872 88.5206C59.6808 88.4763 60.0235 88.1813 60.1434 87.8133C60.1656 87.7455 60.1799 87.6763 60.1865 87.6058C60.2177 87.2326 60.0314 86.8411 59.6873 86.5579C59.4801 86.3869 59.2689 86.2969 59.0578 86.2904C58.7958 86.2812 58.5547 86.4156 58.38 86.6675L58.3787 86.6636ZM59.3706 86.9403C59.5387 87.0786 59.7107 87.3148 59.6899 87.5628C59.6716 87.7911 59.4644 87.9999 59.2311 88.026C58.9978 88.0521 58.745 87.8981 58.6537 87.675C58.6081 87.5641 58.6159 87.3644 58.6759 87.1778C58.702 87.0969 58.7398 87.0173 58.7867 86.9494C58.8636 86.8372 58.9496 86.7823 59.0395 86.7863C59.1633 86.7902 59.2872 86.8724 59.3706 86.9403Z" fill="#FF96DB"/>
<path d="M62.2376 86.3008C62.4344 86.1821 62.5804 85.9863 62.6534 85.7632C62.6977 85.6261 62.7146 85.4787 62.699 85.3325C62.6847 85.1955 62.6456 85.0728 62.5817 84.9697C62.4422 84.7426 62.1751 84.5991 61.8831 84.5939C61.5247 84.5873 61.2197 84.7217 61.0464 84.9619C60.8769 85.1994 60.8483 85.5113 60.9656 85.8402C61.0099 85.9615 61.0698 86.0672 61.1454 86.1521C61.4074 86.447 61.887 86.5122 62.2376 86.2995V86.3008ZM61.5182 85.8219C61.4843 85.784 61.4569 85.7331 61.4348 85.6718C61.3735 85.5008 61.38 85.3521 61.4517 85.2516C61.5273 85.1459 61.6824 85.0872 61.8753 85.0911C61.9952 85.0937 62.1086 85.1485 62.1594 85.2307C62.1829 85.2699 62.1985 85.3221 62.205 85.3847C62.2246 85.5805 62.1333 85.7827 61.9809 85.8754C61.8349 85.9641 61.6224 85.9406 61.5195 85.8232L61.5182 85.8219Z" fill="#FF96DB"/>
<path d="M59.1153 84.4464C59.2039 84.3772 59.2899 84.2937 59.3199 84.1854C59.3603 84.0457 59.2978 83.8904 59.1935 83.7886C59.0892 83.6869 58.9498 83.6294 58.809 83.589C58.2603 83.4324 58.2147 84.2558 58.5588 84.5077C58.6122 84.5469 58.6748 84.5769 58.7399 84.5847C58.8755 84.6017 59.0058 84.5286 59.1127 84.4451L59.1153 84.4464Z" fill="#FF96DB"/>
</g>
<defs>
<clipPath id="clip0_1830_3258">
<rect width="81.3665" height="80.2669" fill="white" transform="translate(50.4473 51.2609)"/>
</clipPath>
</defs>
</svg>
