<svg width="97" height="97" viewBox="0 0 97 97" fill="none" xmlns="http://www.w3.org/2000/svg">
<circle cx="48.5" cy="48.5" r="48.5" fill="#193E3C"/>
<path d="M79.2043 70.8181C77.8018 70.9712 76.2812 70.8041 74.4204 70.3029C71.5806 69.5301 68.956 68.2699 66.5537 66.7383C66.1232 63.9604 66.2968 61.0433 67.0675 58.2863C67.2619 57.5901 67.5396 56.9009 67.8104 56.2325C68.0465 55.6547 68.2826 55.0629 68.477 54.4572C70.1225 54.6034 71.7334 54.4294 73.004 53.8237C74.2468 53.2388 75.4202 52.2433 76.5728 50.7882C78.0031 48.992 79.6695 46.1723 79.4543 42.9489C79.3363 41.1179 78.3573 39.0432 76.434 38.5558C75.2675 38.2565 73.9274 38.6115 72.5666 39.5723C70.7544 40.8464 69.331 42.6983 68.5603 44.7799C68.0951 46.0331 67.8729 47.3489 67.7687 48.6508C66.5537 46.3673 64.6373 44.4597 62.3322 43.2761C61.9642 43.0882 61.5615 42.9141 61.0963 42.9002C60.388 42.8793 59.6868 43.2761 59.2563 43.9236C58.9438 44.3831 58.7633 44.954 58.7078 45.6641C58.5203 47.892 59.5896 50.2521 61.4851 51.8255C62.839 52.9395 64.8873 53.8306 67.0189 54.2483C66.8661 54.7148 66.6717 55.1882 66.4704 55.6825C66.1857 56.3857 65.8871 57.1098 65.6719 57.8895C64.9637 60.4167 64.7276 63.0832 64.9637 65.6661C61.4226 63.1528 58.3953 60.1243 55.8957 57.4022L54.8959 56.3091C53.7294 55.0281 52.5421 53.7262 51.2576 52.5148C51.334 52.5287 51.4173 52.5496 51.5006 52.5496C51.5701 52.5496 51.6395 52.5496 51.7089 52.5357C52.4658 52.4243 52.9101 51.6724 53.0629 51.4148C53.8752 50.0293 54.4168 48.2401 54.6598 46.0818C54.9376 43.6939 54.764 41.3267 54.5279 38.709C54.2988 36.147 54.0488 33.8495 53.3406 31.6147C52.4935 28.9621 51.0771 26.8387 49.2441 25.4811C48.9733 25.2792 48.6678 25.0843 48.279 25.0216C47.3069 24.8615 46.4529 25.5994 46.0016 26.9849C44.1061 32.8121 44.0574 38.716 45.8558 43.6033C46.6959 45.8799 47.9387 47.9755 49.133 50.0084C49.2232 50.1616 49.3205 50.3357 49.4177 50.5167C49.5496 50.7603 49.6884 51.011 49.8412 51.2547C49.376 50.8648 48.9039 50.4958 48.4039 50.1407C45.8419 48.3306 43.1409 47.4534 39.711 47.3141C40.1276 45.8312 40.0234 44.1185 39.4055 42.4546C38.8986 41.09 38.0654 39.7324 36.7809 38.1799C34.9756 35.9938 32.8579 34.0723 30.8166 32.2204L24.3316 26.3165C24.0886 26.0938 23.3526 25.4254 22.4986 25.7387C22.1514 25.871 21.8598 26.1494 21.6654 26.5463C21.2696 27.34 21.339 28.2102 21.471 29.0317C22.4569 35.1096 25.9077 40.8603 30.9416 44.8008C32.1983 45.7825 33.6564 46.8477 35.1839 47.6205C33.587 47.8224 31.9623 48.2749 30.4972 48.7135C26.4285 49.9319 22.6027 52.0066 19.4435 54.7218C18.3257 55.6825 16.9509 57.0053 16.2566 58.7389C15.9649 59.4769 15.9233 60.0965 16.1246 60.6326C16.4718 61.5237 17.3744 62.011 18.8186 62.0807C20.1587 62.1433 21.5057 62.0807 22.8318 61.8857C25.8661 61.4471 28.817 60.361 31.3929 58.6971C33.7536 57.1724 35.8574 55.1325 37.4683 52.7793C38.4612 51.3312 39.3082 49.8553 38.9819 48.7344C39.0236 48.7344 39.0652 48.7344 39.1069 48.7414C42.5508 48.797 45.0851 49.5698 47.5638 51.3173C49.9037 52.9673 51.8964 55.1604 53.8197 57.2768L54.8265 58.3769C55.3611 58.9617 55.9235 59.5604 56.5137 60.1591C55.3958 60.3123 54.3057 60.6534 53.299 61.1686C53.3823 60.8553 53.4448 60.542 53.4517 60.2148C53.4795 59.3376 53.2434 58.3977 52.7296 57.3604C51.8895 55.6547 50.6674 54.5408 49.2927 54.2275C48.147 53.9629 46.8625 54.2553 45.7724 55.0142C44.9254 55.6059 44.2033 56.4484 43.5575 57.6041C42.5924 59.3237 42.7729 61.2731 44.0366 62.8117C45.1961 64.225 47.0153 64.9769 48.765 64.8585C48.5775 65.1231 48.397 65.4085 48.2234 65.7218C47.2583 67.4415 47.4388 69.3839 48.7025 70.9295C49.9453 72.4472 51.952 73.213 53.8128 72.9485C54.0905 72.9067 54.3682 72.844 54.639 72.7535C56.6248 72.0991 58.0551 70.2889 58.1176 68.3396C58.1454 67.4623 57.9093 66.5225 57.3955 65.4782C56.5831 63.8351 55.4236 62.749 54.1044 62.394C55.2222 61.8509 56.4512 61.5446 57.6871 61.5167C57.7357 61.5167 57.7774 61.4959 57.819 61.4889C62.0822 65.687 67.4702 69.913 74.0316 71.6883C76.0451 72.2314 77.7879 72.4193 79.3501 72.2453C79.3571 72.2453 79.364 72.2453 79.3779 72.2453C79.7598 72.1896 80.0375 71.8415 79.9959 71.4516C79.9542 71.0548 79.5932 70.7624 79.1974 70.8111L79.2043 70.8181ZM77.413 41.0622C76.1979 45.8034 73.3234 50.1129 69.4282 53.0648C69.4004 53.0648 69.3657 53.0648 69.3379 53.0648C70.3586 51.4009 71.5251 49.7648 72.6638 48.1705C74.3163 45.8451 76.0174 43.4432 77.3296 40.9299C77.3574 40.9717 77.3921 41.0204 77.4199 41.0622H77.413ZM78.0101 43.0464C78.1906 45.8034 76.7117 48.2888 75.4411 49.8901C74.4274 51.1711 73.4275 52.0274 72.386 52.5218C71.6986 52.849 70.8863 53.0161 70.0253 53.0648C73.6914 50.1616 76.4131 46.054 77.6629 41.5426C77.8643 42.023 77.9893 42.5521 78.017 43.0533L78.0101 43.0464ZM69.9142 45.2882C70.5877 43.478 71.8236 41.8698 73.3928 40.7628C74.101 40.2685 75.1356 39.7255 76.0729 39.9622C76.4687 40.0666 76.795 40.3033 77.0727 40.6097C75.7674 43.1578 74.0385 45.5945 72.3583 47.9546C71.2751 49.4793 70.1642 51.0458 69.1713 52.6401C69.1019 50.266 69.0533 47.5996 69.9142 45.2882ZM67.13 50.7812C67.3938 51.5053 67.4424 52.1876 67.3591 52.8559L67.0536 52.2502C65.7691 49.7091 64.3249 46.8825 62.0822 44.8078C64.4013 46.1236 66.2273 48.2679 67.13 50.7812ZM60.152 45.7964C60.1936 45.3369 60.2908 44.9958 60.4575 44.7451C60.5963 44.5363 60.8046 44.397 60.9921 44.3692C60.9921 44.3692 60.9991 44.3692 61.006 44.3692C61.0129 44.3692 61.0268 44.3831 61.0338 44.3901C63.7 46.4369 65.3108 49.6186 66.7342 52.4243L66.9078 52.7654C65.165 52.3686 63.5056 51.6236 62.4155 50.7255C60.8741 49.4515 60.0062 47.5717 60.1589 45.8103L60.152 45.7964ZM50.8827 50.1755C48.6261 43.7008 47.4805 36.5856 47.4944 28.9691C47.5846 29.3311 47.6888 29.6862 47.7929 30.0482L47.8415 30.2223C49.7579 36.878 50.8827 43.7635 51.1882 50.6907C51.084 50.5306 50.973 50.3496 50.8827 50.1825V50.1755ZM48.0151 26.4627C48.0151 26.4627 48.0359 26.4627 48.0498 26.4627C48.1401 26.4767 48.3067 26.602 48.3762 26.6507C50.3828 28.1336 51.4312 30.4102 51.9589 32.0602C52.6255 34.1558 52.8685 36.3698 53.0907 38.8483C53.3198 41.3894 53.4864 43.673 53.2295 45.9287C53.0073 47.8781 52.5282 49.4793 51.82 50.6838C51.6603 50.9553 51.5492 51.0597 51.5354 51.1015C51.5354 51.1015 51.5354 51.1015 51.5284 51.0945C51.5492 50.9762 51.5631 50.8509 51.5562 50.7534C51.2576 43.7774 50.1259 36.8362 48.1956 30.1248L48.147 29.9507C47.8693 28.9969 47.5985 28.0153 47.5499 27.0336C47.7166 26.6925 47.8971 26.4906 48.0221 26.4767L48.0151 26.4627ZM47.2097 43.109C45.5919 38.7229 45.585 33.4457 47.1542 28.1615C47.0639 35.4438 47.9943 42.2875 49.9523 48.5603C48.9247 46.8129 47.904 45.0027 47.2097 43.109ZM22.9013 28.802C22.811 28.259 22.7346 27.6393 22.9568 27.1102C22.9777 27.1102 23.0818 27.1381 23.3665 27.3957L29.8584 33.2925C31.8651 35.1166 33.9341 36.9963 35.6769 39.1059C36.8573 40.5261 37.6071 41.7514 38.0585 42.9628C38.607 44.4388 38.6695 45.9356 38.2459 47.1749C38.2459 47.1818 38.2459 47.1958 38.239 47.2027C36.0241 46.7711 33.5731 45.0236 31.8373 43.666C27.0881 39.9413 23.8317 34.5248 22.9013 28.802ZM19.1936 60.6395C19.1936 60.6395 19.1589 60.6395 19.145 60.6395C24.8385 57.4161 30.4625 53.768 35.8991 50.2312L37.5238 49.18C33.0246 55.0699 26.4424 59.1844 19.1936 60.6395ZM17.4855 60.1174C17.4161 59.9433 17.4577 59.6648 17.6105 59.2889C18.1868 57.8547 19.4019 56.6851 20.3948 55.8357C23.4012 53.2528 27.0464 51.2755 30.9208 50.1129C32.24 49.716 33.6911 49.3122 35.0937 49.1034C35.7325 49.0129 36.3643 48.9572 36.9614 48.9781C37.0378 48.9781 37.0933 48.985 37.1558 48.992L35.6977 49.9388C30.1015 53.573 24.3247 57.3186 18.4645 60.6047C17.9229 60.5281 17.5688 60.361 17.4786 60.1243L17.4855 60.1174ZM36.2879 51.9648C34.7812 54.1578 32.8232 56.0654 30.6222 57.4857C27.7269 59.3515 24.3385 60.4237 20.9086 60.6186C27.4422 58.9199 33.337 55.0908 37.5238 49.7717C37.378 50.1964 37.0378 50.8717 36.2879 51.9648ZM45.1684 61.9066C44.2866 60.8275 44.1616 59.5256 44.8351 58.3351C45.3697 57.3743 45.953 56.6851 46.6126 56.2256C47.0639 55.9123 47.5707 55.7104 48.0637 55.6408C48.3831 55.592 48.6956 55.6059 48.9802 55.6686C50.2578 55.961 51.0702 57.2699 51.4382 58.0287C51.8409 58.8503 52.0283 59.5604 52.0144 60.1939C51.9728 61.5167 50.9313 62.8117 49.5357 63.2712C48.029 63.7655 46.2307 63.2016 45.1684 61.9066ZM56.111 66.1326C56.5137 66.9611 56.7012 67.6712 56.6873 68.3048C56.6456 69.6275 55.6041 70.9225 54.2085 71.382C52.7088 71.8763 50.9035 71.3124 49.8412 70.0174C48.9594 68.9383 48.8344 67.6364 49.501 66.4459C50.0356 65.4851 50.6188 64.7959 51.2785 64.3364C51.7298 64.0231 52.2366 63.8212 52.7296 63.7516C53.049 63.7028 53.3614 63.7168 53.6461 63.7794C54.9167 64.0718 55.736 65.3807 56.104 66.1396L56.111 66.1326Z" fill="#FF96DB"/>
</svg>
