<svg width="97" height="97" viewBox="0 0 97 97" fill="none" xmlns="http://www.w3.org/2000/svg">
<circle cx="48.5" cy="48.5" r="48.5" fill="#A0FFF9"/>
<path d="M81.7884 38.7734C81.7884 38.7734 81.749 38.7104 81.7332 38.671C81.9065 37.8756 82.0089 37.0643 82.0168 36.2453C82.0325 34.615 81.6466 33.3391 80.8669 32.457C79.8431 31.2993 78.2758 30.9449 76.8818 30.7558C74.6135 30.4408 72.3138 30.3621 70.0377 30.5117C69.3446 30.1179 68.6358 29.7241 67.864 29.3618C66.7692 28.8499 65.4304 28.2277 63.9418 28.3616C62.2249 28.527 60.8545 29.7083 59.8543 30.7243C58.2634 30.5904 56.7749 31.1811 55.5305 31.7955C53.9632 32.5673 52.4668 33.5045 51.0806 34.5677C50.4348 35.0639 49.7812 35.6388 49.4346 36.4343C49.0172 37.3951 49.1432 38.4426 49.3244 39.3404C49.7497 41.4826 50.4979 43.5461 51.5532 45.4599C51.9076 46.1058 52.2935 46.728 52.7031 47.3423C52.6952 47.3974 52.6716 47.4525 52.6716 47.5076C52.6873 49.3742 52.7109 51.5007 53.6324 53.383C54.0813 54.3045 54.7193 55.0999 55.2548 55.7064C52.136 57.8801 48.6943 58.8252 45.0478 59.8018C44.2839 60.0066 43.512 60.2192 42.7402 60.4397C43.1891 59.3607 43.3624 58.1557 43.2206 57.0058C43.0631 55.7142 42.5118 54.4698 41.6769 53.4696C42.2676 53.4145 42.8426 53.2412 43.3387 52.9498C44.8273 52.0756 45.4416 50.4138 45.7803 49.2403C46.9301 45.2237 46.3946 41.1991 44.339 38.482L44.15 38.2379C43.827 37.8283 43.5278 37.4345 43.512 36.9541C43.512 36.6706 43.512 36.2059 43.1497 35.82C42.8268 35.4813 42.4015 35.4183 42.2597 35.3947C41.7163 35.3238 41.2123 35.3947 40.7397 35.5443C40.3774 34.6858 39.6844 33.977 38.8259 33.6069C38.7629 33.5833 38.692 33.5754 38.6211 33.5675C38.6211 33.5675 38.6212 33.5596 38.6054 33.5517C37.3689 32.457 35.6441 33.4887 35.077 33.8195C33.2971 34.8749 31.3833 35.7019 29.249 36.324C28.6977 36.4816 28.0676 36.6627 27.5163 37.0486C26.7208 37.5999 26.2798 38.4977 26.3979 39.3404C26.4609 39.7421 26.6342 40.0886 26.7602 40.3328C26.8862 40.5769 27.0437 40.8053 27.2091 41.0259C26.8232 41.1125 26.4373 41.2149 26.0592 41.3409C24.9094 41.7111 24.7991 42.4671 24.807 42.7822C24.8228 43.1602 25.0039 43.4516 25.1063 43.6091L29.69 50.6816C30.4855 51.9102 31.3912 53.3042 32.7301 54.2493C33.8484 55.0448 35.2188 55.4464 36.5892 55.4464C37.9596 55.4464 39.1882 55.0684 40.2751 54.3517C40.9839 55.1393 41.4564 56.1474 41.5824 57.1949C41.7321 58.392 41.4328 59.6521 40.7634 60.6602C40.6767 60.7941 40.6452 60.9359 40.6452 61.0777C38.4872 61.7944 36.3529 62.7001 34.321 64.0626C32.5017 65.2912 29.3828 67.9217 28.9339 71.7808C28.8788 72.2298 29.2017 72.6393 29.6585 72.6945C29.69 72.6945 29.7215 72.6945 29.753 72.6945C30.1625 72.6945 30.517 72.3873 30.5642 71.9698C30.9344 68.7644 33.6515 66.4962 35.2346 65.4251C38.4164 63.275 41.9998 62.3141 45.4652 61.3848C49.1589 60.3924 52.9629 59.345 56.381 56.9035C58.161 58.6519 60.0275 59.8569 61.9571 60.4791C62.3509 60.6051 62.855 60.7468 63.3905 60.7468C63.4929 60.7468 63.6032 60.7469 63.7056 60.7311C64.2569 60.676 64.7373 60.4633 65.1705 60.2743C65.3831 60.1798 65.6036 60.0853 65.832 59.975C65.9265 60.0774 66.0447 60.164 66.1864 60.2034C67.864 60.6917 69.6045 60.9831 71.3529 61.0777C71.5656 61.0855 71.794 61.1013 72.0303 61.1013C72.4477 61.1013 72.8887 61.0776 73.3298 60.991C74.0543 60.8492 74.6923 60.5657 75.3145 60.2901C76.2438 59.8805 77.2913 59.4158 78.071 58.5337C79.2209 57.2185 79.3863 55.3913 79.5044 54.0603C79.5044 54.0603 79.5044 54.0525 79.5044 54.0446C80.6543 53.7059 81.8199 53.32 82.7099 52.367C83.5683 51.4456 84.0172 50.0752 84.0015 48.4134C83.9857 46.5626 83.4895 44.8141 83.017 43.1209L81.7805 38.7497L81.7884 38.7734ZM41.8345 36.962H41.8738V36.9856C41.8738 36.9856 41.8738 37.1667 41.8738 37.1746C41.9132 38.0488 42.433 38.7261 42.8583 39.2617L43.0316 39.4822C44.78 41.7898 45.2132 45.2788 44.2051 48.7993C43.7956 50.2405 43.2521 51.1147 42.5118 51.5479C41.7478 51.9968 40.6846 51.9811 39.7238 51.5085C38.0147 50.6658 35.7622 47.7833 35.6677 45.7513C35.6283 44.885 36.0772 44.2313 36.6443 43.4044L36.8334 43.1287C36.9121 43.0106 36.9751 42.8925 37.0539 42.7743C37.0696 42.7428 37.0932 42.7113 37.109 42.6798C37.5107 42.0339 37.8808 41.3724 38.2273 40.7266C38.629 39.9784 39.0149 39.2774 39.456 38.6001C39.9679 37.8125 40.9051 36.9541 41.8345 36.9541V36.962ZM32.1236 39.6634C32.1236 39.6634 32.1945 39.5137 32.6907 39.2459L34.1083 38.4899C34.1083 38.6553 34.1083 38.8679 34.1713 39.0727C33.8957 39.2381 33.6043 39.3956 33.3129 39.5294C32.9978 39.6791 32.6356 39.8287 32.352 39.7815C32.2418 39.7657 32.1394 39.6791 32.1236 39.6634ZM34.0059 41.018C35.5102 40.3092 36.8333 39.2774 37.8966 38.0094C37.4949 38.6552 37.1248 39.3168 36.7782 39.9627C36.4632 40.5455 36.1481 41.1046 35.8174 41.648C35.1164 41.7662 34.2422 41.522 33.3838 41.27C33.6043 41.1991 33.8169 41.1125 34.0059 41.0259V41.018ZM38.6605 36.962C38.8495 36.6469 38.9992 36.3162 39.1015 35.9775C39.1724 36.1035 39.2276 36.2295 39.2748 36.3634C39.0543 36.5446 38.8495 36.7493 38.6605 36.962ZM28.6977 40.3249C28.5244 40.0965 28.3511 39.8681 28.2094 39.6082C28.1227 39.4428 28.0282 39.2617 28.0125 39.1357C27.981 38.923 28.1621 38.6238 28.4456 38.4269C28.7764 38.1985 29.2253 38.0646 29.8475 37.8913C31.9739 37.2691 34.0138 36.387 35.9119 35.2608C37.0145 34.6071 37.3925 34.7016 37.5107 34.804C37.7312 35.0009 37.5737 35.6703 37.1641 36.261C36.7467 36.8596 36.2742 37.4109 35.7386 37.8992C35.7071 37.6078 35.6126 37.2848 35.3291 37.0249C35.0613 36.7729 34.4627 36.4343 33.4546 36.9777L31.9031 37.8047C31.5014 38.0173 30.5563 38.5292 30.4776 39.5373C30.4382 39.9784 30.6036 40.4037 30.895 40.7423C30.2649 40.7108 29.6427 40.7266 29.0284 40.7817C28.926 40.6242 28.8079 40.4745 28.6977 40.3249ZM33.6752 52.9419C32.5962 52.1701 31.8165 50.973 31.0604 49.8153L26.5476 42.9318C27.2406 42.7113 27.9652 42.5459 28.6977 42.4514C28.7134 42.4514 28.7213 42.4514 28.737 42.4514C29.4695 42.3569 30.2098 42.3333 30.9422 42.3805C31.4778 42.412 32.1157 42.601 32.7773 42.7979C33.4074 42.9869 34.0768 43.176 34.7541 43.2626C34.3131 43.9872 33.9665 44.7905 34.0059 45.8301C34.1241 48.5394 36.7782 51.9023 38.9756 52.9892C39.0543 53.0286 39.141 53.0601 39.2276 53.0995C37.55 54.1312 35.2739 54.0918 33.6673 52.9419H33.6752ZM79.6304 33.5517C80.1345 34.1188 80.3786 35.0167 80.3707 36.2295C80.355 37.8519 79.9376 39.4822 79.1972 40.9314C79.0476 40.7502 78.8822 40.5848 78.7168 40.4273C78.5121 38.4347 77.6772 36.1271 76.5825 34.5598C76.1651 33.9613 75.7004 33.3391 75.0467 32.898C74.4403 32.4885 73.7708 32.2916 73.1408 32.1971C73.0699 32.1656 73.0069 32.1262 72.9439 32.0947C74.1882 32.1184 75.4248 32.2129 76.6534 32.3783C77.8032 32.5358 78.961 32.7878 79.6304 33.5439V33.5517ZM76.1493 53.824C75.9288 54.5407 75.6925 55.0842 75.2987 55.4071C74.7553 55.8402 73.9047 55.8481 73.0462 55.8009C71.3608 55.6985 70.0613 55.4543 68.9587 55.0291C68.2814 54.7692 67.4308 54.3281 66.6984 53.635C66.8165 53.6114 66.9268 53.5878 67.0449 53.5563C68.4153 53.2413 69.7857 52.9262 71.1403 52.556C71.9594 52.3276 72.8179 52.052 73.4952 51.414C74.078 50.8627 74.4718 49.9806 74.3379 49.13C74.5584 49.0828 74.7789 49.0513 74.9915 49.004C75.7004 48.8465 76.4328 48.6339 77.118 48.3267C77.0314 50.1933 76.7164 52.0441 76.1651 53.8319L76.1493 53.824ZM56.3496 46.2396C56.129 45.6174 56.0424 45.1606 56.0739 44.759C56.1291 44.0817 56.6094 43.4516 57.2238 43.1602C57.6491 44.8299 58.3973 46.4208 59.4447 47.8069C59.8307 48.3188 60.3347 48.878 61.0672 49.1143C61.3113 49.1931 61.5555 49.2246 61.7918 49.2246C62.9022 49.2246 63.871 48.4843 64.3908 48.0905L64.7924 47.7833C65.0287 48.4449 65.4382 49.2088 66.2573 49.579C66.7692 49.8074 67.3127 49.8074 67.675 49.8074C69.3525 49.8074 71.0379 49.6656 72.6997 49.4136C72.7155 49.6656 72.5895 49.9964 72.3532 50.2169C71.9515 50.5949 71.3372 50.7919 70.6914 50.973C69.3604 51.3432 68.0136 51.6503 66.5566 51.9811C65.2886 52.2725 63.9733 52.5718 62.6896 52.6584C62.2564 52.6899 61.7602 52.7057 61.3586 52.5639C60.9333 52.4143 60.5395 52.0677 60.2008 51.7606C58.3343 50.0437 57.0426 48.1928 56.3496 46.2475V46.2396ZM59.0037 36.261C59.1376 35.8594 59.3109 35.4026 59.6023 35.0954C60.4135 34.2291 62.028 34.5126 63.233 34.9142C64.942 35.4734 66.5881 36.2216 68.1318 37.1352C67.8325 37.2534 67.5411 37.3951 67.2733 37.5605C66.7062 37.4975 66.1077 37.5526 65.5249 37.7653C64.7452 38.0567 64.0127 38.5922 63.359 39.3483C62.5793 40.254 62.1776 41.1913 62.1619 42.1206C62.154 43.1445 62.6265 44.0265 62.981 44.6015C63.3905 45.263 63.8473 45.7435 64.3356 46.0664L63.4063 46.7752C62.7841 47.2477 62.0831 47.7124 61.5791 47.5392C61.2798 47.4447 60.9963 47.1139 60.76 46.8067C58.5075 43.8375 57.8381 39.7972 59.0116 36.2531L59.0037 36.261ZM71.983 33.7486C72.9753 33.7723 73.629 33.9298 74.1173 34.2606C74.5426 34.552 74.8892 35.0166 75.2279 35.5049C75.9288 36.5052 76.5116 37.9071 76.8345 39.2617C76.5589 39.1436 76.2911 39.0333 76.039 38.9388C74.8734 38.5135 73.6605 38.1906 72.4398 37.9701C72.2193 37.6471 71.9673 37.403 71.6759 37.214C71.3845 37.025 71.0222 36.9226 70.6284 36.8596C70.5732 36.773 70.4945 36.6942 70.4 36.6312C69.3131 35.8908 68.1711 35.2371 66.9819 34.6622C68.5728 34.0164 70.3055 33.6935 71.9673 33.7408L71.983 33.7486ZM77.307 46.3184C76.614 46.854 75.724 47.1375 74.6135 47.3895C72.3374 47.9014 70.0062 48.1613 67.675 48.1692C67.3757 48.1692 67.1079 48.1692 66.9346 48.0826C66.5802 47.9251 66.3755 47.3816 66.2101 46.791C66.2652 46.7437 66.3203 46.6885 66.3676 46.6177C66.6196 46.2396 67.1158 45.9561 67.864 45.7671C68.1081 45.7041 68.3601 45.6568 68.6043 45.6017C69.1477 45.4914 69.7069 45.3812 70.2582 45.1449C71.5026 44.6251 72.5186 43.554 72.9753 42.286C73.2589 41.4984 73.3219 40.6321 73.1801 39.8051C73.9598 39.9863 74.7317 40.2147 75.4877 40.4903C76.3383 40.7975 77.3858 41.2621 77.9922 42.0576C78.9137 43.2626 78.5908 45.3418 77.3149 46.3263L77.307 46.3184ZM71.2112 39.1042C71.2112 39.1042 71.2348 39.1593 71.2505 39.183C71.6443 39.9627 71.7152 40.9077 71.4238 41.7268C71.1246 42.5695 70.4472 43.2783 69.6281 43.6249C69.2186 43.7903 68.7618 43.8848 68.2735 43.9872C67.9979 44.0423 67.7222 44.0974 67.4466 44.1683C67.1158 44.2549 66.8244 44.3573 66.5566 44.4755C66.6984 44.0817 66.911 43.68 67.1473 43.2941C67.3442 42.9633 67.6041 42.6561 67.8561 42.3411C68.431 41.6402 69.0926 40.8369 69.2029 39.7658C69.2501 39.309 69.1871 38.8994 69.0296 38.5686C69.4076 38.4662 69.8014 38.419 70.1952 38.4505C70.4709 38.4662 70.6677 38.5214 70.8095 38.608C70.9513 38.6946 71.0852 38.8679 71.2191 39.1042H71.2112ZM66.9425 39.1593C67.1237 39.2774 67.3363 39.3168 67.5411 39.2775C67.5568 39.3247 67.5725 39.435 67.5568 39.6003C67.4938 40.1832 67.0685 40.7029 66.5723 41.3015C66.2652 41.6717 65.9659 42.0418 65.7218 42.4514C65.3516 43.0657 65.0129 43.7115 64.8475 44.3967C64.6585 44.1998 64.4931 43.9635 64.3592 43.743C63.9654 43.1051 63.7843 42.601 63.7843 42.1521C63.7922 41.4905 64.2254 40.8526 64.5798 40.4352C65.0523 39.8839 65.5563 39.5137 66.0761 39.3168C66.3675 39.2066 66.6668 39.1672 66.9346 39.1593H66.9425ZM64.0757 30.0076C65.1074 29.8895 66.1864 30.4172 67.1473 30.8582C68.0609 31.2835 68.8878 31.7561 69.7621 32.2601C68.2342 32.4727 66.7377 32.9138 65.3595 33.6069C65.2413 33.662 65.1547 33.7486 65.076 33.851C64.6349 33.6778 64.186 33.5045 63.7371 33.3627C62.3273 32.9059 61.1144 32.8035 60.122 33.0319C60.3189 32.6302 60.6655 32.2443 60.9884 31.9136C61.7917 31.0866 62.8786 30.1258 64.0757 30.0155V30.0076ZM50.9152 39.0411C50.7813 38.356 50.6868 37.655 50.9152 37.1037C51.12 36.6312 51.6162 36.2295 52.0572 35.883C53.3646 34.8828 54.7665 34.0086 56.2393 33.2761C56.9639 32.9217 57.7672 32.5673 58.5941 32.4176C58.3815 32.8823 58.2634 33.3942 58.3343 33.9534C58.3343 33.977 58.35 34.0006 58.3579 34.0243C57.8853 34.552 57.6254 35.1899 57.4443 35.7412C56.83 37.5999 56.6646 39.5767 56.9088 41.5063C55.5699 41.9473 54.546 43.1996 54.4357 44.6251C54.3727 45.4521 54.5933 46.216 54.798 46.7831C55.0579 47.5155 55.3966 48.2322 55.7982 48.9331C55.625 48.7362 55.4675 48.5079 55.3099 48.2795C54.4987 47.1217 53.6639 45.9246 52.9866 44.6881C52.01 42.9161 51.3169 41.018 50.9231 39.0333L50.9152 39.0411ZM64.501 58.8015C64.1544 58.9512 63.8316 59.1008 63.5323 59.1323C63.1857 59.1638 62.7998 59.0614 62.4612 58.9512C60.4371 58.2975 58.4524 56.8877 56.5701 54.7613C56.0582 54.1863 55.4832 53.4854 55.0973 52.6899C54.672 51.8078 54.483 50.8076 54.3885 49.7995C54.6405 50.1224 54.9319 50.4375 55.3021 50.6974C55.7667 51.0124 56.2787 51.1778 56.7827 51.1778C56.9639 51.1778 57.145 51.1541 57.3183 51.1069C57.8459 51.7448 58.4288 52.367 59.0825 52.9656C59.5708 53.4224 60.1221 53.8713 60.8073 54.1154C61.272 54.2808 61.7523 54.3281 62.1934 54.3281C62.406 54.3281 62.6108 54.3202 62.7998 54.3044C63.4771 54.2572 64.1387 54.1548 64.8082 54.0288C65.6115 55.0527 66.7377 55.8875 68.1081 56.4546C67.3127 57.4863 65.9974 58.1321 64.4931 58.8015H64.501ZM74.6529 58.8015C74.0858 59.0536 73.5503 59.282 73.0069 59.3922C72.4871 59.4946 71.9121 59.4789 71.4238 59.4552C70.1873 59.3922 68.9587 59.2189 67.7616 58.9354C68.5255 58.4235 69.2422 57.7934 69.7463 56.9665C70.6835 57.1949 71.7152 57.3524 72.936 57.4233C73.1644 57.439 73.4007 57.4469 73.6448 57.4469C74.5742 57.4469 75.5429 57.2972 76.3226 56.6672C76.9605 56.1553 77.307 55.4464 77.5669 54.714C77.6378 54.6825 77.7166 54.6589 77.7953 54.6274C77.6693 55.7694 77.4488 56.7617 76.8345 57.4626C76.299 58.077 75.4641 58.4393 74.6529 58.8015ZM81.5048 51.2644C80.8748 51.9417 79.8903 52.2331 78.8428 52.5403C78.6065 52.6112 78.3703 52.6821 78.134 52.7529C78.5672 50.9336 78.7798 49.0749 78.772 47.2005C79.9297 46.0191 80.3944 44.2707 80.0478 42.7113C80.3235 42.2781 80.5834 41.8292 80.8039 41.3645L81.4339 43.5855C81.8829 45.1685 82.3476 46.8067 82.3633 48.437C82.3633 49.2955 82.2294 50.4847 81.5048 51.2565V51.2644Z" fill="#193E3C"/>
<path d="M57.3895 69.5283C57.6652 69.5126 57.9251 69.3629 58.0589 69.1188C58.2007 68.8746 58.2086 68.5832 58.0826 68.3312C56.1215 64.5036 51.6402 62.259 47.3872 62.9757C46.2216 63.1726 44.2999 64.4405 44.0243 65.7716C43.8037 66.8505 43.9298 67.9296 44.0637 68.851C44.4023 71.1429 44.9615 73.4111 45.7097 75.5927C45.9854 76.4039 46.3555 77.3096 47.1825 77.8767C47.6865 78.2232 48.2379 78.302 48.6947 78.0972C49.0727 77.9318 49.2853 77.6325 49.4113 77.4593L50.0257 76.5851C51.845 78.0578 54.1683 78.8848 56.5074 78.8848C56.791 78.8848 57.0745 78.869 57.358 78.8454C57.5628 78.8297 58.0353 78.7902 58.3976 78.4201C58.7914 78.0184 58.7914 77.475 58.7914 77.2466C58.7756 74.624 57.9251 71.7966 56.5074 69.552L57.3816 69.5126L57.3895 69.5283Z" fill="#193E3C"/>
<path d="M31.7221 64.5509C32.7853 61.3139 29.0128 55.8718 26.0515 53.9264C25.0119 53.2491 24.3346 53.5405 24.0196 53.7689C23.6179 54.0603 23.484 54.5014 23.4052 54.7377L22.8855 56.3758C21.6962 55.4386 19.9714 55.1472 18.2308 55.5961C16.7502 55.982 15.4743 56.7932 14.1906 57.6674C12.8517 58.581 12.9226 59.4789 13.088 59.9436C13.277 60.4791 13.7259 60.7705 13.9937 60.9437C16.9865 62.8969 20.0896 64.9053 23.484 66.315C24.3661 66.6773 25.327 67.0239 26.3508 67.079C26.5713 67.0948 26.7839 67.0947 26.9966 67.0947C30.1784 67.0947 31.3204 65.7322 31.7064 64.5509H31.7221Z" fill="#193E3C"/>
<path d="M44.316 24.9357C43.489 24.4553 41.7642 23.455 40.4883 24.9042C39.9291 25.4949 39.6928 26.2431 39.5038 26.8495C39.3935 27.196 39.2439 27.6765 39.3306 28.2041C39.4802 29.0862 40.2363 29.6375 40.5986 29.8974C41.1971 30.3306 41.9059 30.8032 42.7723 30.9528C42.9455 30.9843 43.111 31 43.2842 31C44.1821 31 45.009 30.5826 45.4422 29.8816C45.6863 29.4721 45.773 29.0311 45.8281 28.716C45.962 28.0309 46.2061 26.7471 45.4422 25.802C45.135 25.4161 44.7412 25.1877 44.3081 24.9436L44.316 24.9357ZM44.2214 28.4089C44.182 28.6294 44.1348 28.8815 44.0403 29.0311C43.8906 29.2831 43.4653 29.4091 43.0637 29.3383C42.536 29.2438 42.0162 28.8893 41.5673 28.5664C41.394 28.4404 40.9924 28.149 40.953 27.9206C40.9293 27.7867 41.0081 27.5426 41.0711 27.3457C41.2286 26.8495 41.3861 26.3455 41.6854 26.0304C41.6933 26.0147 41.709 26.0068 41.7169 25.9911C41.8272 25.8572 41.9532 25.7863 42.1265 25.7863C42.4179 25.7863 42.8431 25.9832 43.5913 26.4163C43.8119 26.5423 44.0403 26.6762 44.1584 26.818C44.4105 27.133 44.3317 27.7631 44.2136 28.401L44.2214 28.4089Z" fill="#193E3C"/>
<path d="M53.7983 18.2963C52.7981 17.8789 51.7978 17.9025 51.0418 18.3672C50.1045 18.95 49.6241 19.9345 49.7422 20.9977C49.8761 22.1791 50.6952 23.2029 51.8372 23.5967C52.2074 23.7227 52.5854 23.7857 52.9635 23.7857C53.5856 23.7857 54.1842 23.6125 54.6883 23.2738C55.594 22.6595 56.0744 21.5254 55.8539 20.5015C55.657 19.58 54.8694 18.7295 53.8062 18.2805L53.7983 18.2963ZM53.7668 21.9192C53.3966 22.1712 52.8611 22.2185 52.3728 22.0531C51.8372 21.8641 51.4277 21.3679 51.3725 20.8166C51.341 20.5094 51.404 20.0762 51.9081 19.7612C52.0341 19.6824 52.2074 19.643 52.4043 19.643C52.6327 19.643 52.8926 19.6982 53.1604 19.8084C53.7117 20.0447 54.1606 20.4779 54.2393 20.8638C54.3181 21.2261 54.1133 21.6829 53.7668 21.9192Z" fill="#193E3C"/>
</svg>
