<svg width="97" height="97" viewBox="0 0 97 97" fill="none" xmlns="http://www.w3.org/2000/svg">
<circle cx="48.5" cy="48.5" r="48.5" fill="#FF96DB"/>
<path d="M80.5342 51.7244H80.5119C79.3544 51.7244 76.648 51.8859 75.2724 53.2898C74.7692 53.0224 74.2771 52.7271 73.785 52.4374C73.4831 52.2592 73.1811 52.0865 72.8848 51.9138C74.7021 51.0113 76.402 49.7857 77.8111 48.1311C77.8502 48.0865 77.8726 48.0364 77.8949 47.9806C78.1745 47.6687 78.4653 47.1951 78.812 46.56C79.36 45.574 79.7458 44.5768 79.9583 43.5963C80.3609 41.7578 80.1596 39.9138 79.3879 38.4097C78.9685 37.5907 78.415 37.5016 78.1298 37.5072C77.8167 37.5239 77.5818 37.6687 77.3861 37.8136C75.5464 39.1562 74.6909 41.8135 75.3004 44.2815C75.429 44.7996 75.6079 45.2899 75.7813 45.769C76.0049 46.3818 76.2174 46.9612 76.3125 47.5628C76.3348 47.7132 76.374 47.8358 76.4243 47.9361C72.4151 52.131 66.2027 53.0837 61.7685 53.1561C62.9036 52.8163 64.2959 50.5043 64.3071 50.482C65.3024 48.755 65.0284 46.6269 64.8327 45.0726C64.8048 44.8275 64.6202 44.6269 64.3742 44.5768C64.1393 44.5266 63.8821 44.6325 63.7535 44.8442C63.4292 45.379 63.0601 45.886 62.6687 46.4152C62.1767 47.0837 61.6622 47.7801 61.254 48.5433C61.2373 48.5823 59.4199 52.1478 60.9688 53.0725C61.0192 53.1004 61.0863 53.1338 61.159 53.1561C60.583 53.1561 60.0406 53.1394 59.5486 53.1171C57.5747 53.028 55.7071 52.7717 53.722 52.5043C50.7528 52.1032 47.5152 51.6631 43.3997 51.7299C46.559 50.8107 49.6512 49.6687 52.5086 48.0141C55.9084 46.0531 58.8776 43.4124 61.5672 40.6325C61.3826 41.0615 61.4945 41.5573 61.9083 42.1144C63.0825 43.7021 65.1403 44.1255 66.6612 44.1979C67.2707 44.2258 67.8802 44.2147 68.4897 44.2091C69.5186 44.1868 70.4859 44.1701 71.4365 44.3539C71.4701 44.3595 71.5092 44.3651 71.5428 44.3651C71.7161 44.3651 71.8839 44.2871 71.9957 44.1478C72.1299 43.9807 72.1634 43.7523 72.0796 43.5573C71.6155 42.4542 70.6425 41.5406 69.1831 40.8442C67.8187 40.1868 66.2754 39.8191 64.7321 39.7801H64.5699C63.6137 39.7467 62.7023 39.7523 62.1152 40.0643C63.5746 38.5211 64.9501 36.9501 66.2698 35.4236C66.527 35.6297 67.0247 35.8804 68.0424 36.0866C68.3834 36.159 68.7301 36.1813 69.0656 36.1813C69.2949 36.1813 69.5186 36.1701 69.7366 36.159C72.3647 35.9974 74.2547 35.3011 75.5129 34.0309C75.5912 33.9473 75.7645 33.7802 75.826 33.5239C75.9826 32.9445 75.5688 32.4153 74.7971 32.2147C72.9631 31.7356 71.4757 31.6075 70.1113 31.8192C68.9258 32.003 67.8522 32.471 66.9072 33.2342C67.1533 32.6158 67.3322 32.0197 67.4273 31.5852C67.9808 29.0337 67.0023 26.4487 66.2195 24.3763C66.1412 24.1702 65.9566 24.0254 65.733 24.0031C65.5149 23.9808 65.3024 24.0811 65.1794 24.2649C64.9837 24.5713 64.7712 24.861 64.5587 25.1563C64.2344 25.6019 63.8989 26.0643 63.6193 26.5713C62.8141 28.0142 62.4451 29.8248 62.5569 31.8192L62.5681 32.0866C62.6296 33.6409 62.7694 35.3456 63.6641 35.8971C63.8206 35.9974 63.9996 36.042 64.1785 36.0587C61.2652 39.3846 58.0388 42.833 54.2924 45.4904C54.3035 43.6464 54.4657 41.8024 54.79 39.9863C54.7956 39.9696 54.8068 39.9584 54.8124 39.9417C54.9354 39.6687 55.0361 39.3957 55.1199 39.1228C55.2821 39.73 55.6735 39.9417 55.9251 40.0085C56.0202 40.0364 56.1208 40.0475 56.2271 40.0475C57.7257 40.0475 59.8393 37.4905 60.0071 37.2286C60.7004 36.1367 60.9129 35.0894 60.611 34.1924C60.5551 34.0309 60.46 33.7969 60.2419 33.613C59.8114 33.2509 59.2019 33.2899 58.57 33.73C58.542 33.7523 56.4004 35.2509 55.4722 37.0169C55.5002 36.1646 55.3995 35.379 55.2653 34.7495C54.9578 33.2843 54.3315 31.7913 53.3026 30.042C52.7826 29.1562 52.2067 29.0448 51.8152 29.1117C51.3735 29.1841 51.0939 29.5072 50.9206 29.7412C50.1825 30.7273 49.7966 32.0476 49.819 33.4515C49.8358 34.5601 50.1042 35.7579 50.6298 37.1061C50.8982 37.8024 51.2617 38.5935 51.8935 39.1952C52.3912 39.6743 53.0007 39.9584 53.6102 40.0141C53.2635 42.0308 53.1013 44.0865 53.1293 46.1311C53.1293 46.1812 53.1461 46.2202 53.1572 46.2648C52.749 46.5266 52.3409 46.7829 51.9271 47.0224C50.4061 47.9026 48.8069 48.6325 47.1629 49.2675C47.7892 48.2926 47.9458 46.6993 47.9458 46.6826C47.9961 46.0252 47.9234 45.4737 47.7221 45.0057C47.5152 44.5155 47.1741 44.1255 46.8778 43.7857L46.0166 42.794C45.8992 42.6603 45.7315 42.5935 45.5581 42.5935C45.3848 42.5935 45.2226 42.6826 45.1108 42.8163C44.6858 43.3623 44.2049 43.9807 44.0036 44.7606C43.7576 45.6965 43.9813 46.6269 44.2608 47.4904C44.2944 47.5907 44.3279 47.73 44.3671 47.8859C44.5908 48.755 44.8032 49.4458 45.2618 49.7689C45.3289 49.8135 45.3904 49.8525 45.4519 49.8859C42.4883 50.8887 39.4072 51.6241 36.371 52.3205C36.7903 50.0531 37.0084 47.7355 36.9972 45.4236C38.1659 45.5294 39.3066 44.8553 40.218 44.2147C41.1239 43.5796 41.9906 42.9389 42.6337 42.0531C43.4109 40.9946 43.6849 39.7244 43.3774 38.6659C43.1928 38.0253 42.8126 37.5239 42.3093 37.2398C41.9291 37.0281 41.4706 36.9334 40.9729 36.9835C39.8154 37.0838 38.7306 37.8637 37.8248 39.2397C37.4837 39.7634 37.1873 40.3094 36.9357 40.8776C36.6673 39.2509 36.1249 37.6743 35.0625 36.3707C34.4921 35.6687 33.8994 35.2286 33.2452 35.0169C32.3561 34.7328 31.3776 34.9501 30.8128 35.5573C30.2145 36.2036 30.0803 37.1562 30.4046 38.393C31.1427 41.1952 33.2005 43.6743 35.8174 44.9389C35.8621 47.4681 35.6384 50.0029 35.1576 52.482C35.152 52.521 35.1576 52.5544 35.1576 52.5934C33.8547 52.8943 32.5574 53.1895 31.2713 53.5126C30.4605 53.7132 29.6162 53.936 28.7662 54.1812C29.029 53.7633 29.2415 53.3232 29.4093 52.8943C29.9125 51.6074 30.153 50.1979 30.1138 48.8107C29.9908 44.6492 27.3851 41.0838 25.4336 38.7662C25.3106 38.6214 25.1093 38.5434 24.9303 38.5601C24.7402 38.5768 24.5669 38.6882 24.4774 38.8554C23.2472 41.0448 21.9723 43.3066 21.497 45.8692C21.0776 48.1366 21.3125 50.5823 22.1792 52.9444C22.6545 54.2369 23.2752 55.1951 23.9853 55.7633C19.5679 57.4792 15.2064 59.9917 12.1197 64.0028C11.924 64.2591 11.9744 64.6212 12.226 64.8162C12.3322 64.8942 12.4552 64.9332 12.5838 64.9332C12.7572 64.9332 12.9305 64.8552 13.048 64.7048C16.2688 60.521 21.0105 58.0196 25.6964 56.365C25.7579 56.365 25.825 56.365 25.8921 56.3539C26.3562 56.2981 26.7868 56.1199 27.1838 55.8692C28.4978 55.4514 29.7951 55.0892 31.0365 54.7717C30.8631 55.9806 31.8473 57.5182 32.1772 57.9973C32.5798 58.5767 33.1445 59.0112 33.5863 59.3232C34.5704 60.0196 35.6105 60.5544 36.6729 60.9221C38.3392 61.4959 40.0671 61.6463 41.8005 61.6463C42.8126 61.6463 43.8247 61.5962 44.82 61.5405C46.2515 61.468 47.7277 61.39 49.1536 61.4736C49.4108 61.4792 49.6512 61.3288 49.7407 61.0836C49.8246 60.8385 49.7407 60.5655 49.5226 60.4151C48.4994 59.702 47.5488 58.8218 46.6261 57.9694C45.1667 56.6157 43.6569 55.2229 41.7781 54.3817C40.8052 53.9472 39.6812 53.6464 38.3392 53.4514C38.0429 53.4068 37.7353 53.3678 37.4166 53.3288C43.7855 52.5433 48.2813 52.9723 52.1787 53.4848C52.2011 53.5015 52.2122 53.5294 52.2402 53.5461C55.2206 55.5126 57.6809 58.3706 59.1851 61.6017C58.4805 61.6853 57.9102 62.2981 57.5188 62.7271L57.4405 62.8162C55.8021 64.5934 55.2318 66.8831 55.0416 68.4819C54.9466 69.3232 54.8739 70.571 55.4219 71.663C55.6511 72.1142 55.9419 72.4596 56.2998 72.6824C56.6465 72.9053 57.0267 73 57.4125 73C58.2233 73 59.0397 72.571 59.5933 71.9805C60.5607 70.9499 60.8682 69.6128 60.9577 68.6713C61.0471 67.6741 60.9577 66.6992 60.8347 65.7466C61.5504 66.8385 62.4562 67.7911 63.5019 68.5655C64.5084 69.312 65.4534 69.7131 66.3872 69.8023C67.6453 69.9248 68.8308 69.4067 69.4403 68.4931C69.5018 68.4039 69.5465 68.3036 69.5968 68.2089H69.6024C69.6695 68.1811 69.6975 68.1087 69.6807 68.0362C70.1057 67.0112 69.91 65.6908 69.1439 64.6602C68.3946 63.6463 67.2931 63.0279 66.2083 62.5042C65.2745 62.053 64.1505 61.5627 62.9148 61.3455C62.0089 61.1839 61.1366 61.2006 60.3426 61.3789C60.3314 61.3399 60.3314 61.2953 60.3146 61.2563C59.0062 58.3873 56.982 55.7968 54.5216 53.7912C56.1824 54.014 57.7984 54.209 59.4982 54.287C60.0183 54.3093 60.5886 54.326 61.1925 54.326C64.1505 54.326 68.0144 53.9583 71.5819 52.5043C71.6099 52.5266 71.6322 52.5544 71.6658 52.5711C72.169 52.8385 72.6779 53.1394 73.1923 53.4458C73.6676 53.7299 74.1541 54.014 74.6406 54.2814C74.4393 54.8051 74.4001 55.4012 74.5287 56.0475C74.853 57.7076 76.2342 59.1282 77.8893 59.507C77.9509 59.5238 78.0627 59.546 78.2025 59.546C78.3031 59.546 78.4094 59.5349 78.5212 59.4903C78.7561 59.4012 78.9462 59.2229 79.0748 58.9611C79.3096 58.4875 79.4494 57.6742 78.7672 56.482C78.5827 56.1644 78.3758 55.8525 78.1522 55.5628C78.2808 55.5795 78.4094 55.5906 78.5436 55.6018C79.9527 55.7076 81.3842 55.4124 82.536 55.1784C82.8716 55.1115 83.6656 54.95 83.9284 54.2424C84.0794 53.8302 83.9899 53.3455 83.6768 52.9166C82.9163 51.8636 81.5184 51.7411 80.5398 51.7355L80.5342 51.7244ZM59.241 34.6771C59.4255 34.549 59.5486 34.5267 59.5094 34.549C59.7443 35.2453 59.3752 36.042 59.0229 36.5935C58.6092 37.2453 56.6968 38.9891 56.2774 38.9055C56.2774 38.9055 56.2215 38.8275 56.2103 38.5601C56.16 37.3735 57.9885 35.5406 59.2354 34.6771H59.241ZM54.1302 34.9779C54.4154 36.3428 54.3706 37.691 53.996 38.8386C53.599 38.5545 53.2635 38.042 52.9783 37.2955C52.1396 35.0949 51.86 32.7161 52.1451 30.3874C52.1899 30.4431 52.2402 30.51 52.3073 30.6214C53.2747 32.2593 53.8506 33.6409 54.1358 34.9779H54.1302ZM51.7146 36.6715C51.2393 35.4515 50.9988 34.3874 50.9821 33.4181C50.9597 32.276 51.2673 31.2231 51.8376 30.4431C51.5692 32.7885 51.86 35.1841 52.6987 37.4013C52.928 38.0086 53.202 38.471 53.5095 38.7996C53.2243 38.7272 52.9392 38.5768 52.6931 38.3428C52.229 37.8971 51.9327 37.2509 51.709 36.6715H51.7146ZM42.2646 38.9723C42.4715 39.691 42.2646 40.5768 41.6998 41.3512C41.1574 42.0921 40.3746 42.6715 39.5526 43.2453C38.8593 43.7355 38.0093 44.2481 37.2433 44.2481H37.2321C37.2377 44.1812 37.2544 44.1144 37.26 44.042C38.4511 41.9417 39.8546 39.9584 41.4314 38.1255C41.5377 38.1423 41.6495 38.1701 41.7446 38.2258C41.9794 38.354 42.164 38.6214 42.2646 38.9612V38.9723ZM38.8089 39.8581C39.2898 39.1228 40.0727 38.2314 41.0512 38.1311C39.6924 39.73 38.4678 41.4459 37.3942 43.2509C37.6515 42.0475 38.1323 40.8943 38.8089 39.8581ZM32.8929 36.1088C33.3235 36.2481 33.7429 36.5712 34.1678 37.0893C35.3085 38.4877 35.7615 40.315 35.9348 42.1534C35.096 39.8971 33.6478 37.8804 32.3002 36.0531C32.3505 36.0476 32.4008 36.042 32.4512 36.042C32.5966 36.042 32.7475 36.0643 32.8929 36.1144V36.1088ZM31.5397 38.0866C31.3887 37.5183 31.2937 36.7495 31.6795 36.3317C31.7634 36.2426 31.8696 36.1757 31.9926 36.1256C33.5639 38.2593 35.2918 40.6492 36.0075 43.3567C36.0075 43.4793 36.0187 43.6018 36.0243 43.7244C33.8491 42.5656 32.1604 40.4542 31.5397 38.0866ZM56.1935 68.6101C56.3613 67.1783 56.8589 65.1449 58.2904 63.5962L58.3743 63.5015C58.5253 63.3343 58.872 62.9555 59.1404 62.8051C59.0844 63.3455 59.0397 63.8914 59.0006 64.4374C58.844 66.4652 58.6818 68.5599 57.899 70.4373C57.7033 70.8997 57.4013 71.4401 56.9596 71.7131C56.9484 71.7075 56.9372 71.702 56.9261 71.6964C56.7527 71.585 56.5961 71.3955 56.4675 71.1337C56.1544 70.5153 56.0705 69.7131 56.1991 68.6101H56.1935ZM59.789 68.5599C59.7163 69.3231 59.4759 70.3928 58.7378 71.1838C58.3631 71.585 57.7816 71.8747 57.2951 71.819C57.6306 71.546 57.927 71.1226 58.1618 70.5488C58.967 68.6268 59.1292 66.5042 59.2858 64.4597C59.3249 63.9638 59.364 63.468 59.4144 62.9778C59.5206 63.4067 59.5486 64.1477 59.5653 64.6212C59.5765 64.9499 59.5877 65.2396 59.6157 65.4402C59.7499 66.4708 59.8841 67.5349 59.789 68.5599ZM66.4935 68.6435C65.7777 68.5766 65.0228 68.2424 64.1897 67.6296C62.7973 66.6045 61.6902 65.2118 60.9912 63.6073C60.9409 63.4903 60.9018 63.3455 60.857 63.195C60.8458 63.1616 60.8347 63.1171 60.8235 63.0781L61.0975 63.3677C62.3947 64.7549 63.7423 66.1867 65.3472 67.2842C66.0349 67.7521 66.9296 68.2257 67.869 68.3705C67.4776 68.5822 66.9911 68.6825 66.499 68.6379L66.4935 68.6435ZM62.7135 62.4875C63.8094 62.6769 64.8383 63.1282 65.6994 63.546C66.6444 64.0028 67.6006 64.5377 68.2045 65.3455C68.7078 66.0251 68.965 67.1003 68.4673 67.8413C68.4002 67.9471 68.3108 68.0362 68.2157 68.1198C67.2204 68.0529 66.2418 67.5404 65.5093 67.039C63.9269 65.9583 62.596 64.5377 61.3099 63.1616L60.6781 62.4875C61.433 62.3315 62.1711 62.3817 62.7135 62.4764V62.4875ZM78.0627 58.3483C76.8828 58.0419 75.9099 57.0168 75.6806 55.8246C75.6079 55.4402 75.6135 55.106 75.6974 54.8051C75.7086 54.8107 75.7254 54.8163 75.7421 54.8218C76.5641 55.4068 77.2575 56.1756 77.7551 57.0502C77.9676 57.4235 78.1913 57.936 78.0627 58.3427V58.3483ZM82.3012 54.0363C81.1661 54.2703 79.88 54.5266 78.6274 54.4374C77.8782 54.3817 77.1401 54.1589 76.4075 53.8469C77.6098 52.9611 79.7961 52.872 80.5342 52.8887C81.6861 52.8887 82.3851 53.1115 82.7318 53.5851C82.8212 53.7076 82.838 53.8079 82.8324 53.8302C82.8324 53.8413 82.7821 53.9361 82.3012 54.0308V54.0363Z" fill="#193E3C"/>
</svg>
