<svg width="97" height="97" viewBox="0 0 97 97" fill="none" xmlns="http://www.w3.org/2000/svg">
<circle cx="48.5" cy="48.5" r="48.5" fill="#193E3C"/>
<path d="M68.8781 48.7118C68.8781 48.7118 68.9157 48.7279 68.9372 48.7333C69.1519 48.7977 69.3882 48.7333 69.5331 48.5561C69.8553 48.1642 70.2311 47.826 70.6284 47.4662L71.0257 47.1011C73.2323 45.0448 74.3652 41.904 73.984 38.9082C73.9679 38.7793 73.9357 38.5646 73.7907 38.3659C73.5383 38.033 73.0874 37.9256 72.5827 38.0813C71.6485 38.3713 70.8431 39.1498 70.1989 40.3954C68.9748 42.7469 68.309 45.9092 68.5453 48.2555C68.5667 48.4595 68.6956 48.6313 68.8781 48.7118ZM71.1921 40.9108C71.6861 39.9551 72.2605 39.3645 72.8887 39.1551C73.184 41.7644 72.1854 44.4865 70.2633 46.2797L69.8767 46.634C69.7962 46.7092 69.7103 46.7844 69.6244 46.8649C69.6996 44.9321 70.2848 42.6503 71.1921 40.9108Z" fill="#FF96DB"/>
<path d="M73.0929 47.6003C73.1734 47.9225 73.372 48.1748 73.6566 48.3305C73.6834 48.3466 73.7157 48.3574 73.7425 48.3735C74.827 48.8459 76.4001 47.6487 77.8605 46.3494C79.4067 44.9749 80.3892 43.2515 80.6255 41.5066C80.706 40.8945 80.459 40.5993 80.2389 40.4543C79.9597 40.2825 79.6644 40.3201 79.5356 40.3362C77.6511 40.5939 75.8525 41.8341 74.6015 43.7293C73.3774 45.587 72.8996 46.8165 73.0982 47.6003H73.0929ZM75.5303 44.3468C76.5504 42.8005 77.9678 41.7697 79.498 41.4798C79.2671 42.9186 78.4242 44.3521 77.0498 45.5709C74.7948 47.5789 74.2418 47.3695 74.1881 47.348C74.1881 47.348 73.9089 46.8111 75.5357 44.3468H75.5303Z" fill="#FF96DB"/>
<path d="M81.8397 48.3413C81.7485 48.3306 74.7152 47.7668 73.8615 49.8339C68.106 48.7601 62.0123 48.8406 56.2353 50.0701C55.1669 50.2956 54.1898 50.5479 53.2824 50.8271C53.5186 50.3171 53.6797 49.7265 53.8247 49.2003C53.8784 48.9963 53.932 48.803 53.9857 48.6366C55.1186 45.0287 55.3333 41.1899 54.6085 37.5336C54.5656 37.3081 54.3884 37.131 54.1522 37.088C53.9213 37.0504 53.6958 37.1578 53.5777 37.3618L51.1778 41.5067C50.2221 43.1549 49.1376 45.0287 48.9658 47.1333C48.8584 48.4594 49.2396 50.7627 50.7268 51.7506C50.5228 51.8365 50.3188 51.9277 50.1201 52.019C44.8478 54.478 40.6976 58.4027 38.185 63.2293C38.1904 62.8696 38.2065 62.5206 38.2118 62.1502C38.2172 61.2589 38.2065 60.3677 38.1904 59.4711C38.1474 56.2229 38.1045 52.8619 38.8937 49.7104C40.0641 45.0448 43.0385 41.002 45.5028 37.9954C47.4356 35.6384 49.508 33.3781 51.6878 31.2359C51.6127 32.5996 53.3146 34.2693 53.3361 34.2908C53.8569 34.7901 54.4743 35.1928 55.1401 35.4827C55.8863 35.8102 56.7024 35.9928 57.5239 36.0142C58.5279 36.0411 59.3225 35.7995 59.8862 35.3002C60.5949 34.6774 60.9063 33.4586 60.2298 32.6372C59.9452 32.2936 59.5802 32.111 59.1936 31.9446C58.9627 31.8426 58.6836 31.7137 58.3722 31.5688C56.3159 30.6024 54.3616 29.7594 53.0354 29.942C53.422 29.5769 53.8086 29.2172 54.2005 28.8628C54.9951 29.3943 55.9776 30.0333 56.9548 30.4574C57.5829 30.7312 58.2111 30.9138 58.7641 30.9191C59.9775 30.9245 61.1425 30.6614 62.27 30.4037C63.4136 30.146 64.7075 29.8507 65.792 29.1205C66.5651 28.5997 67.1879 27.6387 66.7101 26.7636C66.4202 26.2321 65.8564 26.0173 65.3947 25.8938C63.4458 25.3677 60.9546 25.2173 58.6138 25.5931C58.8339 25.3247 59.0164 25.0563 59.156 24.7824C60.015 23.1073 60.4446 21.2443 60.756 19.639C60.9654 18.5491 60.4285 18.1894 60.1869 18.082C59.6714 17.8565 59.1829 18.1572 59.0218 18.2538C57.5453 19.1451 56.4555 20.7021 55.677 23L55.5481 23.4026C55.3548 24.0039 55.1776 24.5194 55.0112 24.965C54.9736 22.8979 54.6246 20.6752 54.5602 20.2779C54.4528 19.6175 54.2166 18.7102 53.4166 18.3612C53.3898 18.3505 53.3576 18.3344 53.3307 18.3236C52.5147 18.023 51.6771 18.5276 51.3013 19.1504C50.9577 19.7195 50.8986 20.3692 50.8879 20.9866C50.861 22.7261 50.9201 25.2495 51.7684 27.0857C51.9133 27.3971 52.2892 28.2024 52.9334 28.5138C52.3375 29.0615 51.7469 29.6252 51.1617 30.189C51.1241 29.1957 50.8342 28.0897 50.7 27.6172C50.249 26.0549 49.3577 24.7985 48.1927 24.0898C47.4518 23.6442 46.7001 23.6013 46.1847 23.9932C45.7713 24.3046 45.5673 24.8576 45.6532 25.4428C45.7176 25.8938 45.9324 26.275 46.0988 26.5757C46.2491 26.8441 46.437 27.236 46.6518 27.6817C47.6075 29.6521 48.4772 31.3325 49.4544 31.8909C48.1444 33.2385 46.8773 34.6344 45.6585 36.0626C45.6532 35.2948 45.4438 34.2908 45.025 33.0076C44.3432 30.9245 42.8721 29.0991 40.9876 27.9877C40.7513 27.8535 40.4668 27.8964 40.2896 28.0951C39.7742 28.6588 39.9245 29.4803 39.9836 29.7917C40.4346 32.2238 41.8627 35.6975 44.4183 37.5498C41.9271 40.6154 38.9957 44.6904 37.8092 49.4366C37.7018 49.8714 37.6051 50.3117 37.5246 50.7519C35.5327 45.5924 31.8604 41.8127 27.9142 37.9471C28.3276 37.8611 28.7035 37.6034 28.8753 37.4853C30.2604 36.5189 31.5275 34.6344 31.957 32.9003C32.1449 32.1432 31.898 31.499 31.3396 31.3111C31.1302 31.2359 30.9369 31.2466 30.7705 31.2681C29.8148 31.397 28.9021 31.9339 28.1988 32.7929C27.6726 33.4372 27.2646 34.2425 26.921 35.327C26.7492 35.88 26.6633 36.3417 26.6579 36.7229C26.2445 36.3203 25.8365 35.9122 25.423 35.5042C26.3572 34.8599 26.8351 33.1794 26.9747 32.6157C27.3559 31.0587 27.227 29.5554 26.615 28.3743C26.1532 27.483 25.1922 26.7851 24.258 27.177C23.6137 27.4454 23.3345 28.1058 23.1842 28.5783C22.7869 29.8185 22.0353 33.3835 23.3077 34.9834C23.4741 35.1928 23.6406 35.3485 23.8016 35.4666C24.666 36.3417 25.5358 37.19 26.3894 38.0276C31.0658 42.5965 35.479 46.9185 37.1917 53.3451C37.0199 55.3961 37.0468 57.4685 37.0736 59.4926C37.0843 60.3784 37.0951 61.2697 37.0951 62.1502C37.0682 66.9822 36.4991 71.1002 35.3824 74.6598C35.1408 72.0075 34.0348 69.162 32.0751 66.1608C31.2054 64.8293 30.239 63.5461 29.3048 62.3005C29.1706 62.118 29.031 61.9354 28.8967 61.7529C29.5142 61.8495 30.1316 61.667 30.69 61.216C31.7423 60.3623 32.3758 58.698 32.3543 57.651C32.3382 56.9047 31.9517 56.0726 31.1517 55.9867C30.7651 55.9491 30.0457 56.0726 29.584 57.345C29.4712 57.6564 29.3316 57.9839 29.192 58.3221C28.8269 59.2026 28.4511 60.11 28.3384 60.9959C28.0646 60.6254 27.7961 60.2549 27.5277 59.8791C27.8659 59.6536 28.1129 59.251 28.3062 58.8805C29.2726 57.0067 29.6323 54.3438 29.2618 51.7667C29.0578 50.3385 28.333 49.9734 27.9303 49.8822C27.4632 49.7802 26.9532 49.9251 26.4592 50.3117C24.9237 51.4982 24.7197 53.5438 24.7734 54.9021C24.4352 53.3559 23.6406 51.9385 22.4755 50.8593C21.6916 50.1345 20.5051 49.5761 19.5172 50.1882C18.8407 50.607 18.5079 51.509 18.7119 52.3841C18.8837 53.1357 19.3776 53.7317 19.7857 54.1612C20.736 55.1652 21.8634 55.9491 22.8406 56.5826C23.2003 56.8188 23.662 57.0014 24.1452 57.2161C24.156 57.2215 24.1721 57.2269 24.1828 57.2322C24.3385 57.302 24.4835 57.3718 24.6231 57.447C25.7291 59.4067 27.0874 61.2214 28.4082 62.977C29.3316 64.2065 30.2873 65.4789 31.1356 66.7782C33.7234 70.7405 34.7381 74.3699 34.1583 77.5644C34.11 77.8274 34.2496 78.0744 34.4858 78.1764C34.5234 78.1925 34.5663 78.2086 34.6093 78.214C34.7703 78.2409 34.926 78.1979 35.0442 78.1066C35.2052 78.0637 35.3556 77.9617 35.4254 77.7952C36.8481 74.5041 37.7072 70.7136 38.0454 66.2896C40.1983 60.518 44.6545 55.8095 50.5979 53.0391C52.273 52.2606 54.1414 51.6647 56.4769 51.1654C60.015 50.4083 63.6713 50.0969 67.29 50.2312C66.4685 51.1063 66.0443 53.0767 65.7168 55.1545L65.6685 55.4712C65.588 55.9222 65.4914 56.4913 65.6363 57.0551C65.7437 57.4738 65.9799 57.7799 66.2967 57.9195C66.345 57.9409 66.3987 57.957 66.4524 57.9732C66.7047 58.0376 67.349 58.0805 67.8644 57.1034C68.2241 56.4162 68.557 55.7075 68.863 55.0041C68.8792 54.9719 70.2536 51.7291 69.4322 50.3654C70.8925 50.4889 72.3421 50.6875 73.7702 50.956C73.8132 50.9613 73.8508 50.956 73.8937 50.956C73.9474 51.0687 74.0172 51.1815 74.1085 51.2835C74.3018 51.5036 74.5756 51.6808 74.9031 51.8257C76.7661 52.6364 80.374 52.3358 80.7874 52.2606C82.0599 52.0244 82.9404 51.5627 83.4773 50.8432C83.7135 50.5211 83.8316 50.1989 83.8316 49.8768C83.8209 49.0393 83.0585 48.4487 81.8558 48.3467L81.8397 48.3413ZM53.5616 39.853C52.8261 43.4663 52.2623 47.144 51.7201 50.7197C50.7644 49.1413 50.7 46.8863 51.5429 44.4542C51.8919 43.4609 52.3482 42.4838 52.7938 41.5389C53.0516 40.9859 53.32 40.4221 53.5616 39.853ZM52.9173 48.3091C52.8636 48.4863 52.8046 48.6903 52.7455 48.9104C52.5898 49.4795 52.3214 50.4567 51.9831 50.8325L51.9939 50.7573C52.5308 47.2246 53.0945 43.5952 53.8193 40.0248C54.0555 42.7952 53.7549 45.6139 52.9173 48.3037V48.3091ZM50.0772 47.2353C50.2275 45.3776 51.2476 43.6274 52.1442 42.0758L52.6113 41.2704C52.5898 41.3187 52.563 41.3724 52.5415 41.4261C52.0959 42.3764 51.6342 43.3589 51.2798 44.3683C50.3886 46.9185 50.4959 49.2916 51.5429 50.9452C51.4946 50.9238 51.4409 50.8969 51.3818 50.8593C50.4315 50.2634 49.9698 48.5507 50.0825 47.2353H50.0772ZM56.5414 31.9822C57.0299 32.1969 57.497 32.4117 57.889 32.5996C58.5762 32.9217 59.1184 33.0774 59.36 33.3674C59.607 33.668 59.4459 34.2103 59.1399 34.4787C58.705 34.8599 58.0339 34.9243 57.5453 34.9136C56.2622 34.8814 55.0058 34.3606 54.0985 33.5016C53.4166 32.8519 52.6811 31.6815 52.8046 31.252C52.8099 31.2252 52.8368 31.1446 53.0838 31.0856C53.8461 30.9138 55.2797 31.4345 56.5467 31.9875L56.5414 31.9822ZM65.094 26.9837C65.3195 27.0481 65.6309 27.1448 65.7168 27.3058C65.8403 27.5313 65.5182 27.9608 65.1585 28.2024C64.2458 28.8145 63.1129 29.0722 62.0123 29.3246C60.9492 29.5662 59.8486 29.8185 58.7641 29.8131C57.7601 29.8078 56.23 28.8789 55.1025 28.138C55.6931 27.8374 56.2192 27.5367 56.6863 27.2307C59.2849 26.3287 62.6404 26.318 65.094 26.9837ZM56.6004 23.757L56.7239 23.3758C57.4057 21.3624 58.3668 19.9665 59.5909 19.2256C59.6231 19.2041 59.65 19.188 59.6768 19.1773C59.6768 19.2417 59.6714 19.3276 59.65 19.4404C59.3386 21.0457 58.9466 22.7422 58.1574 24.2831C57.8299 24.9167 57.1749 25.5609 56.1977 26.2159C55.9991 26.2857 55.8058 26.3663 55.6125 26.4468C55.9508 25.7005 56.2729 24.7878 56.6004 23.757ZM51.9885 21.0242C51.9992 20.5625 52.0314 20.09 52.2408 19.7464C52.4019 19.4833 52.724 19.3115 52.9334 19.392C52.9388 19.392 52.9442 19.392 52.9549 19.4028C53.1858 19.5048 53.3415 19.8538 53.4435 20.4712C53.8086 22.71 54.0985 26.2374 53.6743 27.4454C53.5884 27.5099 53.5186 27.5313 53.4703 27.5367C53.3737 27.5421 53.1106 27.3649 52.7724 26.6347C52.2033 25.4106 51.9509 23.5744 51.9939 21.0242H51.9885ZM47.645 27.2146C47.4195 26.7475 47.2209 26.3341 47.0598 26.0549C46.9041 25.7703 46.7753 25.5341 46.7431 25.3032C46.7216 25.1368 46.7645 24.9704 46.8451 24.9059C46.9417 24.8308 47.1511 24.8576 47.3873 24.9596C47.4571 24.9918 47.5269 25.024 47.5967 25.067C48.5202 25.6307 49.2396 26.6562 49.6101 27.9501C49.9429 29.1044 50.1147 30.4735 50.002 30.946C49.2557 30.5326 48.2517 28.4602 47.645 27.2146ZM24.2419 28.9273C24.3761 28.5192 24.5157 28.283 24.6768 28.2186C24.9613 28.1004 25.3962 28.487 25.611 28.9004C26.0995 29.84 26.1908 31.0695 25.8794 32.3634C25.5949 33.5231 25.0419 34.5754 24.666 34.6559C24.6231 34.6666 24.564 34.6452 24.505 34.6076C24.4566 34.5593 24.4083 34.5109 24.36 34.4626C24.3278 34.4304 24.2956 34.4143 24.258 34.3928C24.2311 34.3606 24.2043 34.3338 24.1775 34.3015C23.3775 33.2868 23.7426 30.5003 24.2419 28.9326V28.9273ZM27.984 35.676C28.2847 34.7364 28.6229 34.0492 29.0578 33.5177C29.5464 32.9217 30.1853 32.5191 30.8886 32.4009C30.8886 32.46 30.8886 32.5459 30.8618 32.6426C30.4967 34.1136 29.3907 35.7673 28.2256 36.578C28.0055 36.7283 27.8605 36.8035 27.7693 36.8411C27.7585 36.6585 27.7907 36.2827 27.9787 35.6706L27.984 35.676ZM30.2068 58.7731C30.3571 58.4188 30.4967 58.0752 30.6148 57.7477C30.792 57.2537 30.9745 57.1141 31.0228 57.1195C31.0228 57.1195 31.0282 57.1195 31.0336 57.1195C31.0926 57.1463 31.2161 57.3665 31.2215 57.6886C31.2376 58.4617 30.7275 59.7503 29.9705 60.3623C29.8202 60.4858 29.6752 60.5663 29.5303 60.62C29.6806 60.0295 29.9437 59.3905 30.2068 58.7731ZM23.4419 55.6538C22.5185 55.0578 21.4608 54.3223 20.5856 53.4042C20.2742 53.0767 19.9038 52.6364 19.791 52.1479C19.7105 51.8043 19.791 51.3425 20.0971 51.1546C20.3279 51.015 20.634 51.0472 20.9454 51.1868C21.2084 51.2996 21.4769 51.4875 21.7024 51.6969C22.8674 52.776 23.603 54.2525 23.7802 55.8417C23.6513 55.7773 23.5332 55.7182 23.4419 55.6538ZM27.1357 51.2083C27.3505 51.0419 27.5491 50.9613 27.678 50.9882C27.8874 51.0365 28.0646 51.3962 28.1397 51.9385C28.478 54.2954 28.1612 56.7061 27.2968 58.3812C27.1572 58.6496 27.0552 58.7946 26.9854 58.8751C26.8619 58.7033 26.7062 58.3651 26.5988 58.1396C26.5613 58.0537 26.5183 57.9678 26.4754 57.8819C26.4217 57.6349 26.3411 57.2806 26.2552 56.8994C26.121 56.3142 25.917 55.4336 25.9009 55.2457C25.8042 54.1666 25.8365 52.2016 27.1304 51.2029L27.1357 51.2083ZM24.9452 56.1531C24.9452 56.1531 24.9398 56.1531 24.9345 56.1531C24.9345 56.1316 24.9345 56.1101 24.9345 56.0887C24.9345 56.1101 24.9452 56.1316 24.9506 56.1531H24.9452ZM67.8268 54.5693C67.5369 55.2457 67.2094 55.9276 66.8658 56.5933C66.8121 56.6953 66.7638 56.7651 66.7208 56.8188C66.7208 56.8081 66.7208 56.8027 66.7155 56.792C66.6296 56.4591 66.6994 56.0618 66.7638 55.6753L66.8175 55.3424C67.4779 51.1492 68.1543 50.8969 68.2832 50.8862C68.353 50.8862 68.3906 50.8862 68.4174 50.8969C68.4389 50.9076 68.4496 50.9237 68.4604 50.9345C68.8201 51.4445 68.251 53.576 67.8268 54.5693ZM82.5699 50.1775C82.2102 50.6553 81.5606 50.9828 80.5727 51.1654C79.5472 51.3586 75.6655 51.3747 74.9407 50.5533C74.887 50.4942 74.844 50.4298 74.8977 50.2687C75.1393 49.5225 79.2734 49.2433 81.7431 49.4688C81.9954 49.4902 82.2263 49.5493 82.3981 49.6245C82.5807 49.705 82.6988 49.8016 82.6988 49.8983C82.6988 49.9305 82.688 50.0218 82.5645 50.1828L82.5699 50.1775Z" fill="#FF96DB"/>
<path d="M75.0427 52.4324C74.9139 52.3519 74.7635 52.2392 74.5971 52.1157C73.6629 51.4338 72.2563 50.3976 71.1932 51.2942C70.0765 52.2445 70.7798 54.521 71.1341 55.6645C71.6281 57.2752 72.3529 58.8054 73.2764 60.2174C73.7918 60.9959 74.4468 61.8603 75.4293 62.3327C75.4669 62.3488 75.4991 62.365 75.5367 62.3811C76.4011 62.7569 77.3353 62.6871 77.9527 62.1878C78.6936 61.5918 78.801 60.6201 78.8117 59.8416C78.8493 57.3504 78.2533 55.3961 77.0292 54.027C76.4816 53.4149 75.8373 52.9425 75.0374 52.4217L75.0427 52.4324ZM75.9179 61.3287C75.1823 60.9744 74.6454 60.2603 74.2159 59.6053C73.3462 58.2846 72.6697 56.8511 72.1865 55.2887C71.6013 53.3827 71.6388 52.5935 71.8214 52.2714C72.2079 53.2002 72.616 54.1451 73.1099 55.0417C73.3998 55.5679 73.7273 56.0833 74.0387 56.5826C74.3287 57.0443 74.6347 57.5222 74.9031 58.0108C75.0803 58.3275 75.2521 58.6497 75.4186 58.9772C75.8695 59.8416 76.3313 60.7221 76.9755 61.463C76.6373 61.5596 76.2185 61.4737 75.9179 61.3341V61.3287ZM77.2494 61.3287C77.2494 61.3287 77.2386 61.3341 77.2333 61.3395C76.589 60.6093 76.1219 59.7181 75.6655 58.8483C75.4937 58.5208 75.3273 58.1933 75.1447 57.8712C74.8709 57.3826 74.5649 56.8994 74.2696 56.4323C73.9582 55.9383 73.6361 55.4283 73.3462 54.9075C72.8468 54.0002 72.4334 53.0338 72.0415 52.0888C72.1972 52.0512 72.4012 52.0996 72.6267 52.1962C73.0723 52.3895 73.5878 52.7707 73.9314 53.023C74.1193 53.1572 74.2857 53.2807 74.4253 53.3774C75.1501 53.8498 75.73 54.2686 76.1917 54.7894C77.4695 56.2229 77.7111 58.3275 77.6842 59.8416C77.6735 60.6362 77.5339 61.0925 77.2386 61.3341L77.2494 61.3287Z" fill="#FF96DB"/>
<path d="M18.4698 39.8047C18.6685 39.7671 18.9423 39.7296 19.2644 39.6866C21.3476 39.4021 24.8374 38.9242 24.5689 36.9001C24.4937 36.3149 24.2146 35.8425 23.7475 35.4935C22.4643 34.5324 20.1127 34.7472 18.2067 35.0479C16.7893 35.268 15.0337 35.6921 13.9975 37.0451C13.5036 37.6894 13.2405 38.6665 13.7774 39.3806C13.9599 39.6222 14.1961 39.7832 14.4324 39.8853C14.8297 40.0571 15.2377 40.0839 15.4149 40.0946C16.4887 40.1591 17.5517 39.9819 18.4698 39.8101V39.8047ZM14.8834 37.7216C15.678 36.6854 17.1652 36.3364 18.3732 36.1485C19.2698 36.0089 22.0026 35.5794 23.071 36.3847C23.2965 36.5565 23.42 36.7659 23.4575 37.0451C23.5757 37.9686 20.2147 38.4249 19.1087 38.5806C18.7651 38.6289 18.4698 38.6665 18.2604 38.7041C17.4121 38.8598 16.4242 39.0262 15.4739 38.9672C15.0498 38.9403 14.776 38.8544 14.6632 38.6987C14.4914 38.4679 14.6471 38.0222 14.878 37.7162L14.8834 37.7216Z" fill="#FF96DB"/>
<path d="M14.2554 31.2465C15.7211 32.1861 16.9775 32.8841 18.019 33.335C19.3291 33.9042 20.2901 34.0867 20.8968 33.8719C21.2673 33.7377 21.5303 33.4746 21.6538 33.0988C21.7719 32.7284 21.729 32.3418 21.5196 31.9338C20.6122 30.1942 16.5319 28.4171 15.7695 28.1862C15.3292 28.052 14.8514 27.9446 14.3467 28.0305C13.6971 28.1433 13.1709 28.5996 13.0367 29.1688C12.9186 29.6788 13.0259 30.4519 14.2662 31.2412L14.2554 31.2465ZM14.1158 29.4265C14.1481 29.2976 14.3306 29.1688 14.5292 29.1312C14.8084 29.0829 15.1306 29.1634 15.4366 29.2547C16.4889 29.5714 19.8928 31.2519 20.521 32.4492C20.5639 32.5351 20.6122 32.6586 20.521 32.8143C20.0109 32.9968 18.2177 32.4492 14.8299 30.2801C14.3413 29.9687 14.0729 29.6412 14.1212 29.4265H14.1158Z" fill="#FF96DB"/>
<path d="M21.3364 41.061C20.8532 41.7483 20.8264 42.6341 21.272 43.2247C21.4385 43.4448 21.6639 43.6166 21.927 43.7348C22.2331 43.869 22.5874 43.9227 22.9525 43.8797C23.5109 43.8153 23.9887 43.5576 24.386 43.316C24.4236 43.2945 27.7631 41.0449 27.2315 39.6329C26.8933 38.7309 25.5511 38.9618 25.0517 39.0477C24.2196 39.1926 23.4786 39.547 22.7968 39.9121C22.2975 40.1805 21.7284 40.5188 21.3418 41.061H21.3364ZM25.2343 40.1483C25.739 40.0624 26.0074 40.0678 26.1363 40.0893C25.9269 40.5993 24.6974 41.8127 23.7954 42.3603C23.5055 42.5375 23.1619 42.7254 22.8236 42.763C22.5498 42.7952 22.2867 42.7093 22.1633 42.5482C22.0022 42.3335 22.0827 41.9469 22.2545 41.7053C22.4961 41.3617 22.9149 41.1147 23.3229 40.9C23.9189 40.5832 24.5632 40.2664 25.2343 40.1537V40.1483Z" fill="#FF96DB"/>
<path d="M15.4307 62.7784C15.7851 62.9341 16.1716 62.9878 16.4992 63.0146C19.2051 63.2401 23.9673 63.2992 25.4599 61.216C26.0558 60.3838 25.8948 59.7449 25.6532 59.3584C24.5686 57.6188 19.4413 57.7531 18.6199 57.8873C16.5206 58.2416 15.0495 59.2617 14.5932 60.6791C14.4321 61.1892 14.4428 61.6563 14.6308 62.0375C14.8133 62.4025 15.1086 62.628 15.4307 62.7676V62.7784ZM15.6562 61.0281C16.118 59.5946 18.0132 59.1275 18.8024 58.9933C19.7473 58.8322 22.7754 58.945 24.1177 59.5302C24.3915 59.6483 24.5955 59.7932 24.6975 59.9543C24.7351 60.0134 24.8317 60.1637 24.5418 60.5664C23.6989 61.7422 20.7245 62.2415 16.5851 61.9032C16.0428 61.8549 15.7207 61.7422 15.6294 61.5543C15.5757 61.4415 15.5811 61.2536 15.6509 61.0335L15.6562 61.0281Z" fill="#FF96DB"/>
<path d="M21.4834 65.7205C21.0753 66.3917 21.2632 66.8319 21.4082 67.0359C21.5263 67.2077 21.6874 67.3097 21.8323 67.3688C21.9612 67.4225 22.0739 67.4493 22.1276 67.4601C23.1477 67.6748 24.1356 67.2775 24.7853 66.9554C25.7624 66.4776 27.1315 65.7205 27.7865 64.6575C27.8992 64.4696 27.8992 64.2333 27.7757 64.0508C27.4268 63.5354 26.7664 62.9502 25.9664 62.8535C25.4671 62.7945 25.0108 62.9341 24.6725 63.0683C23.3518 63.5676 22.2243 64.5125 21.4887 65.7152L21.4834 65.7205ZM25.8268 63.9703C25.9181 63.981 26.0147 64.0078 26.1114 64.0508C26.2778 64.126 26.4496 64.2441 26.6 64.389C25.9342 65.1514 24.7262 65.742 24.2913 65.9568C23.5504 66.3165 22.9706 66.4561 22.4014 66.3702C22.4122 66.3487 22.4229 66.3272 22.439 66.3058C23.0457 65.3125 23.9745 64.534 25.0644 64.1206C25.3919 63.9971 25.6282 63.9488 25.8268 63.9756V63.9703Z" fill="#FF96DB"/>
<path d="M60.9128 65.4413C61.0846 65.4574 61.2564 65.393 61.3745 65.2642C61.4926 65.1353 61.5409 64.9635 61.5141 64.7917C60.9826 61.667 59.4256 58.7355 57.1384 56.5343C56.0378 55.4766 52.2688 52.121 50.0621 53.372C49.5038 53.6887 49.1494 54.1612 49.0421 54.7303C48.7843 56.1155 49.9494 57.694 51.0608 59.0684L51.2433 59.2993C53.262 61.8334 55.4579 63.6266 57.7075 64.6091C58.7652 65.0709 59.839 65.3501 60.9074 65.4467L60.9128 65.4413ZM50.2984 54.6068C50.9158 55.09 51.6138 55.5893 52.301 56.0833C53.1761 56.7115 54.0889 57.3611 54.8083 57.9624C55.8069 58.7892 56.8377 59.6483 57.6699 60.6684C58.3786 61.5381 58.835 62.5153 59.3128 63.5461C59.3933 63.7233 59.4792 63.9004 59.5598 64.0722C56.274 61.7421 53.3533 58.9503 50.8836 55.7612C50.6312 55.4336 50.3843 55.09 50.2232 54.7196C50.2447 54.682 50.2715 54.6444 50.2984 54.6068ZM52.4567 54.5263C53.6701 55.0578 55.1465 56.1692 56.3653 57.3396C58.2981 59.1973 59.6672 61.6186 60.2631 64.2279C60.145 64.2065 60.0323 64.1796 59.9195 64.1528C59.8014 63.9112 59.6833 63.6696 59.5705 63.428C59.082 62.381 58.6202 61.3932 57.89 60.4912C57.0418 59.4496 55.9948 58.5852 54.9908 57.7477C54.2607 57.1463 53.3533 56.4913 52.4674 55.8578C51.8017 55.38 51.1198 54.8914 50.5131 54.4189C50.5507 54.3921 50.5776 54.3706 50.6151 54.3438C51.05 54.0968 51.705 54.1988 52.4567 54.5263ZM52.1238 58.5959L51.9305 58.3597C51.3829 57.6832 50.1534 56.1638 50.1266 55.1598C50.2823 55.4283 50.4702 55.686 50.6581 55.933C52.9721 58.9181 55.6727 61.5596 58.7061 63.7984C55.9196 62.773 53.6486 60.5234 52.1185 58.5959H52.1238Z" fill="#FF96DB"/>
<path d="M34.2495 43.1925C34.4642 43.2891 34.6682 43.2891 34.8186 43.2677C36.295 43.0636 37.5943 39.6168 37.6695 38.8222C37.8091 37.3672 37.5889 35.9391 37.3795 34.5539C37.3473 34.3391 37.1916 34.1566 36.9769 34.0975C36.7675 34.0385 36.5366 34.1083 36.397 34.2801C35.5273 35.3217 32.467 39.7188 33.4173 42.1778C33.6535 42.7845 33.9595 43.069 34.2495 43.1925Z" fill="#FF96DB"/>
<path d="M31.0653 21.2068C30.7431 21.2443 30.421 21.3625 30.0613 21.5772C29.3042 22.0228 28.864 22.6671 28.8479 23.3328C28.8425 23.6496 28.9284 23.9771 29.111 24.3315C29.4116 24.9113 29.8626 25.3516 30.3727 25.5717C30.4639 25.6093 30.5606 25.6469 30.6572 25.6683C31.3713 25.8562 32.2035 25.6361 32.8263 25.0939C33.2934 24.6858 33.5457 24.1811 33.535 23.6818C33.535 23.3973 33.4437 23.1396 33.3739 22.9731C32.9927 22.0282 32.1874 21.0618 31.0653 21.196V21.2068Z" fill="#FF96DB"/>
<path d="M38.1242 22.9945C38.2209 22.769 38.2316 22.5381 38.237 22.3932C38.2423 22.2268 38.2531 22.0174 38.2155 21.8026C38.0974 21.0885 37.6303 20.5302 36.986 20.3369C36.3525 20.1436 35.6867 20.3423 35.1981 20.8684C34.7096 21.3892 34.527 22.1623 34.7203 22.8818C34.8653 23.4348 35.2196 23.8696 35.6706 24.0683C35.7458 24.1005 35.8263 24.1274 35.9068 24.1488C36.6209 24.3206 37.2437 23.9019 37.6464 23.5744C37.8182 23.4348 38.0061 23.263 38.1242 22.9999V22.9945ZM37.1149 22.3556C37.1149 22.4093 37.1149 22.5167 37.0987 22.5489C37.088 22.5757 37.0343 22.6241 36.943 22.6992C36.6048 22.973 36.3417 23.0911 36.1646 23.0536C36.0035 23.016 35.8585 22.8281 35.7995 22.5918C35.7082 22.2536 35.7995 21.867 36.0142 21.6308C36.2075 21.4268 36.4437 21.3409 36.6639 21.4107C36.884 21.4751 37.0612 21.6952 37.1095 21.9959C37.1256 22.0979 37.1202 22.2321 37.1149 22.361V22.3556Z" fill="#FF96DB"/>
<path d="M46.6556 63.3045C46.3496 63.3904 46.065 63.5622 45.7697 63.8468C45.2167 64.3837 44.9053 65.0602 44.9268 65.7098C44.9483 66.4454 45.3993 67.1809 46.0973 67.6265C46.21 67.6963 46.3174 67.7554 46.4301 67.8037C46.8489 67.9862 47.2731 68.0238 47.6542 67.9003C47.9281 67.8144 48.1482 67.6534 48.2878 67.546C49.0877 66.9071 49.7803 65.8601 49.3294 64.8293C49.2005 64.5286 48.9965 64.2548 48.6851 63.9703C48.0408 63.3743 47.2999 63.1327 46.6503 63.3099L46.6556 63.3045Z" fill="#FF96DB"/>
<path d="M64.3862 40.7335C63.742 40.1375 63.0011 39.8959 62.3568 40.0731C62.0508 40.159 61.7608 40.3362 61.4709 40.61C60.9179 41.1469 60.6065 41.8234 60.628 42.473C60.6495 43.2085 61.1005 43.9441 61.7984 44.3897C61.9112 44.4595 62.0185 44.5186 62.1313 44.5669C62.5501 44.7494 62.9742 44.787 63.3554 44.6635C63.6292 44.5776 63.8493 44.4165 63.9889 44.3092C64.7889 43.6703 65.4815 42.6233 65.0305 41.5925C64.9017 41.2918 64.6976 41.0234 64.3862 40.7335ZM63.291 43.434C63.1836 43.5199 63.0977 43.5736 63.0225 43.5951C62.8615 43.6434 62.6306 43.5951 62.3944 43.4394C62.0078 43.1978 61.7555 42.8059 61.7447 42.4408C61.734 42.1079 61.9165 41.7321 62.2494 41.4153C62.3997 41.2704 62.534 41.1844 62.6521 41.1522C62.7863 41.1147 62.9527 41.1361 63.1299 41.2113C63.291 41.2811 63.4628 41.3938 63.6292 41.5495C63.8225 41.7267 63.9406 41.8824 64.0104 42.0381C64.2091 42.4891 63.7473 43.0689 63.2964 43.434H63.291Z" fill="#FF96DB"/>
<path d="M49.3029 72.0075C49.4049 72.0505 49.5176 72.0881 49.6411 72.1042C49.8827 72.1364 50.0975 72.0773 50.2532 72.0397C50.4411 71.9914 50.629 71.9377 50.8115 71.8518C51.4612 71.5351 51.8638 70.923 51.8692 70.2519C51.8692 69.5915 51.488 69.0063 50.8491 68.6895C50.2102 68.3674 49.421 68.4157 48.7821 68.8076C48.213 69.1566 47.8801 69.7365 47.9123 70.3109C47.9553 71.0465 48.5297 71.5189 48.9592 71.8142C49.0398 71.8679 49.1579 71.9485 49.3029 72.0129V72.0075ZM49.3673 69.7579C49.6572 69.5808 50.033 69.5486 50.3176 69.672C50.3283 69.672 50.3391 69.6828 50.3552 69.6881C50.6075 69.8116 50.7525 70.0156 50.7525 70.2465C50.7525 70.4881 50.5914 70.7136 50.3283 70.8425C50.2156 70.8962 50.0975 70.923 49.9793 70.9552C49.9203 70.9713 49.8183 70.9982 49.7861 70.9928C49.7592 70.9928 49.6948 70.9498 49.5982 70.8854C49.2384 70.6384 49.0451 70.4237 49.0398 70.2411C49.029 70.0854 49.1686 69.8868 49.378 69.7579H49.3673Z" fill="#FF96DB"/>
<path d="M52.9331 67.8521C53.5612 67.75 54.1572 67.2668 54.3773 66.6816C54.5599 66.1931 54.4686 65.6884 54.1357 65.2911C53.8673 64.9743 53.4592 64.7703 52.9814 64.722C52.6861 64.6898 52.4338 64.7273 52.219 64.8347C51.6016 65.13 51.4781 65.8494 51.4244 66.1501C51.3761 66.4132 51.3009 66.8534 51.5318 67.2615C51.6553 67.4816 51.8539 67.648 52.0955 67.7554C52.3425 67.8628 52.6378 67.9004 52.9384 67.8574L52.9331 67.8521ZM52.525 66.3434C52.6002 65.9192 52.6807 65.8494 52.7076 65.8387C52.7076 65.8387 52.7505 65.8172 52.874 65.8333C52.9653 65.8441 53.0512 65.8655 53.121 65.8978C53.1908 65.93 53.2445 65.9676 53.2821 66.0105C53.3572 66.1018 53.3733 66.1823 53.3304 66.2897C53.2499 66.4991 52.9921 66.7085 52.7613 66.7461C52.627 66.7675 52.525 66.7299 52.5036 66.7085C52.4821 66.6709 52.4875 66.5474 52.525 66.3434Z" fill="#FF96DB"/>
<path d="M65.4526 35.0586C66.0808 34.9566 66.6767 34.4787 66.8969 33.8882C67.0794 33.3996 66.9881 32.8949 66.6552 32.4976C66.3868 32.1808 65.9788 31.9768 65.5009 31.9285C65.2056 31.8963 64.9533 31.9339 64.7386 32.0413C64.1211 32.3365 63.9976 33.056 63.9439 33.3566C63.8956 33.6197 63.8204 34.06 64.0513 34.468C64.1748 34.6881 64.3735 34.8546 64.6151 34.962C64.862 35.0693 65.1573 35.1069 65.458 35.064L65.4526 35.0586ZM65.0177 33.915C64.9963 33.8774 65.0016 33.7539 65.0392 33.5499C65.1144 33.1258 65.1949 33.056 65.2218 33.0452C65.2218 33.0452 65.2647 33.0238 65.3882 33.0399C65.4795 33.0506 65.5654 33.0721 65.6352 33.1043C65.7049 33.1365 65.7586 33.1741 65.7962 33.2171C65.8714 33.3083 65.8875 33.3889 65.8445 33.4962C65.764 33.7056 65.5063 33.915 65.2754 33.9526C65.1359 33.9741 65.0392 33.9311 65.0177 33.915Z" fill="#FF96DB"/>
</svg>
