<svg width="471" height="168" viewBox="0 0 471 168" fill="none" xmlns="http://www.w3.org/2000/svg">
<g clip-path="url(#clip0_1830_3372)">
<path d="M468.33 98.3963C463.272 107.33 458.058 110.871 454.681 110.871C453.149 110.871 452.993 108.869 453.61 107.33L465.726 72.0641C468.641 64.3628 468.791 56.0484 460.207 56.0484C455.603 56.0484 448.552 62.3609 446.097 62.5173C445.026 62.6737 445.636 60.3589 446.253 58.2068C446.409 58.0504 446.409 57.7438 446.409 57.5874V57.431C446.253 56.6615 445.643 56.0484 444.721 56.0484H444.11C441.045 56.0484 438.435 58.5133 438.435 61.4412C438.279 63.4432 438.896 64.9822 440.584 65.6015C437.183 75.993 432.075 89.8003 426.905 98.5089L426.78 98.4088C421.105 104.108 412.976 111.497 402.704 111.04C392.12 110.577 387.217 101.8 392.12 85.4711C411.904 85.0081 424.014 81.1606 427.546 70.9943C430.001 63.9124 426.319 56.8242 417.274 56.2111C411.904 55.9045 397.801 56.2111 386.601 77.4632C382.29 85.5524 380.845 92.8721 382.066 98.7591C379.013 103.351 374.808 106.798 369.277 109.651C368.05 101.487 363.452 95.7875 354.706 96.2504C372.036 87.7796 383.075 77.1504 383.075 65.7579C383.075 56.2111 373.257 53.1268 365.134 55.2852C357.31 57.2871 350.259 65.6015 344.278 78.5393C339.986 87.7796 336.766 93.7855 333.084 98.7153L333.227 98.9406C328.126 107.687 323.211 112.56 320.507 111.96C317.442 111.34 318.975 106.723 321.429 99.9478L329.708 76.6937C334.156 64.3753 330.935 56.0547 317.897 56.0547C314.066 56.0547 310.384 58.0566 307.313 60.9845L309.001 56.674C309.157 56.3675 299.034 57.7501 298.879 57.9065C298 63.218 289.603 83.7819 283.635 98.4839L283.548 98.4088C277.873 104.108 269.744 111.497 259.472 111.04C248.888 110.577 243.986 101.8 248.888 85.4711C268.673 85.0081 280.782 81.1606 284.314 70.9943C286.769 63.9124 283.087 56.8242 274.042 56.2111C268.673 55.9045 254.569 56.2111 243.369 77.4632C239.089 85.4898 237.632 92.7595 238.803 98.6215C233.782 107.543 228.624 110.884 225.279 110.884C223.746 110.884 223.591 108.882 224.207 107.343L243.531 56.5176C243.687 56.0547 237.551 56.3612 234.174 57.137C233.576 58.9388 224.5 85.9153 220.308 98.5276C215.268 107.374 210.085 110.89 206.728 110.89C205.195 110.89 205.04 108.888 205.656 107.349L217.772 72.0829C220.688 64.3816 220.837 56.0672 212.253 56.0672C207.65 56.0672 200.598 62.3796 198.144 62.536C197.072 62.6924 197.683 60.3777 198.299 58.2256C198.455 58.0691 198.455 57.7626 198.455 57.6062V57.4498C198.299 56.6803 197.689 56.0672 196.767 56.0672H196.156C193.092 56.0672 190.482 58.5321 190.482 61.46C190.326 63.4619 190.943 65.001 192.631 65.6203C189.229 76.0118 184.121 89.8191 178.951 98.5276L178.826 98.4275C173.151 104.127 165.022 111.515 154.75 111.059C144.166 110.596 139.264 101.818 144.166 85.4898C163.951 85.0269 176.061 81.1794 179.593 71.0131C182.047 63.9312 178.365 56.8429 169.32 56.2298C163.951 55.9233 149.847 56.2298 138.647 77.482C134.336 85.5712 132.891 92.8971 134.112 98.7841C128.35 107.424 122.04 110.133 118.713 110.133C117.486 110.133 116.564 109.67 115.953 109.057C119.33 106.592 122.55 102.431 125.615 95.8125C137.426 69.1675 133.894 55.7731 118.713 55.7731C115.492 55.7731 112.577 56.6991 109.668 58.5446C106.603 58.8512 103.688 58.701 102.616 58.5446C102.461 58.3882 102.311 58.5446 102.155 58.701L88.0645 98.6528C83.9158 105.616 77.2504 110.446 71.482 110.446C62.4369 110.446 59.6711 98.7404 61.054 76.8689C64.5798 73.0151 67.8004 69.324 70.8715 65.6266C92.0326 39.4446 105.837 12.7997 104.61 3.55935C102.311 3.8659 96.0194 2.17048 93.4156 0.481323C96.7919 14.0321 86.8187 38.5187 67.6509 63.4682C65.8132 65.9331 63.6641 68.398 61.515 70.863C62.1255 63.781 62.8979 55.7731 64.2746 46.9895C68.7224 18.962 60.1321 9.40884 43.2629 8.48919C7.36311 6.44969 -7.51261 56.8117 10.428 67.128C10.8889 63.7372 14.72 58.3507 23.1546 56.1923C16.8691 54.6533 14.4148 49.567 14.1095 43.2546C13.499 31.8559 24.8427 9.06475 42.6338 10.4474C55.6656 11.5234 59.1977 19.8441 55.2109 47.1021C53.2175 60.6529 51.9903 71.5887 51.8345 80.3661C35.1212 95.3057 14.7262 107.011 0 110.089C3.06485 113.167 4.6035 118.56 4.90874 121.638C20.2454 113.78 37.1146 100.536 51.8345 86.2156C52.2955 107.624 59.1977 113.011 71.158 113.011C76.6399 113.011 81.5362 110.245 85.4108 106.073L67.4827 156.904C69.9371 154.745 73.4629 151.361 80.5145 151.511C79.9041 148.739 85.5728 130.259 92.3254 110.389C94.9355 112.085 97.6951 113.011 100.299 113.011C102.753 113.011 107.506 113.624 112.72 111.165C114.103 112.091 116.707 112.704 119.317 112.704C123.734 112.704 129.21 109.639 134.884 101.418C137.482 108.231 144.272 112.604 154.893 113.161C165.439 113.73 173.338 107.524 179.2 101.199C179.593 101.243 180.029 101.068 180.346 100.53C185.866 91.2893 191.385 77.1191 194.917 65.7204C201.514 65.1011 205.806 59.5581 209.637 59.5581C213.163 59.5581 212.552 64.025 210.559 69.5679L199.059 100.373C196.144 108.075 200.131 113.004 206.422 113.004C208.597 113.004 212.957 112.047 218.009 105.772C217.648 108.181 218.24 113.004 225.129 113.004C227.59 113.004 233.321 111.628 239.619 101.405C242.216 108.225 249.006 112.598 259.628 113.161C268.797 113.661 275.961 109.032 281.53 103.658C280.141 107.099 279.013 109.945 278.334 111.772H286.003C287.535 107.461 297.041 85.7463 303.638 69.7243C306.092 64.1814 311.767 58.3256 317.897 58.3256C324.027 58.3256 325.104 64.1751 321.273 74.1912L312.533 97.2952C308.547 107.924 311.001 113.161 317.442 114.543C323.267 115.776 328.636 111.465 335.383 99.4536L335.115 99.2971C338.871 94.9241 342.322 88.9683 346.421 79.7404C351.025 69.2676 357.921 59.5644 366.05 58.7949C372.03 58.1818 375.556 61.7227 373.874 68.9611C371.725 78.045 362.219 89.7503 346.577 97.9145L347.187 99.147C347.493 98.9906 347.798 98.8404 348.109 98.8404C358.537 96.2191 361.914 103.92 362.219 113.474C346.577 121.944 327.104 131.804 321.273 146.431C316.676 158.136 320.046 166.144 327.714 167.377C351.025 171.074 371.264 137.497 369.582 112.241C374.534 109.757 379.723 105.66 382.844 101.399C385.442 108.225 392.226 112.604 402.859 113.167C413.406 113.736 421.304 107.53 427.166 101.205C427.559 101.249 427.995 101.074 428.312 100.536C433.832 91.2955 439.351 77.1254 442.883 65.7267C449.48 65.1073 453.772 59.5644 457.603 59.5644C461.129 59.5644 460.518 64.0313 458.525 69.5742L447.025 100.379C444.11 108.081 448.097 113.011 454.389 113.011C457.148 113.011 463.434 111.472 470.186 99.4598L468.349 98.3838L468.33 98.3963ZM395.951 75.7553C403.003 61.1221 410.827 58.0441 416.041 58.0441C421.255 58.0441 423.865 62.2045 420.183 69.13C415.586 77.9074 407.301 81.4484 393.042 83.1438C393.808 80.8353 394.73 78.3703 395.957 75.749L395.951 75.7553ZM252.719 75.7553C259.771 61.1221 267.595 58.0441 272.809 58.0441C278.023 58.0441 280.627 62.2045 276.951 69.13C272.354 77.9074 264.069 81.4484 249.81 83.1438C250.576 80.8353 251.498 78.3703 252.725 75.749L252.719 75.7553ZM147.985 75.7553C155.036 61.1221 162.861 58.0441 168.075 58.0441C173.288 58.0441 175.892 62.2045 172.217 69.13C167.62 77.9074 159.335 81.4484 145.076 83.1438C145.842 80.8353 146.764 78.3703 147.991 75.749L147.985 75.7553ZM100.137 110.871C97.6827 110.871 95.384 109.945 92.9297 108.406C99.5266 89.1559 106.734 68.9799 109.643 61.2785C109.643 61.1221 109.799 61.1221 109.799 60.972C112.558 59.1264 115.474 57.894 118.844 57.894C128.2 57.894 126.817 69.4428 117.006 93.6228C110.26 110.258 104.429 110.721 100.137 110.871ZM327.552 163.698C322.033 162.315 320.956 156.303 323.871 148.452C329.241 133.205 347.181 123.965 362.206 116.264C361.44 136.59 344.727 168.165 327.546 163.698H327.552Z" fill="#FF7CD3"/>
<path d="M117.241 144.058L117.216 132.296L111.41 142.031H109.947L104.141 132.446V144.058H101.014V126.309H103.717L110.738 138.071L117.627 126.309H120.331L120.356 144.058H117.254H117.241Z" fill="#193E3C"/>
<path d="M141.632 139.957H132.799L131.054 144.067H127.672L135.627 126.318H138.86L146.84 144.067H143.407L141.638 139.957H141.632ZM140.548 137.373L137.215 129.615L133.907 137.373H140.548Z" fill="#193E3C"/>
<path d="M160.205 136.632L157.402 139.522V144.058H154.119V126.309H157.402V135.412L166.136 126.309H169.823L162.398 134.248L170.272 144.058H166.435L160.199 136.632H160.205Z" fill="#193E3C"/>
<path d="M190.83 141.302V144.067H177.574V126.318H190.475V129.084H180.857V133.701H189.391V136.416H180.857V141.308H190.83V141.302Z" fill="#193E3C"/>
<path d="M202.852 143.133C201.407 142.345 200.267 141.256 199.445 139.861C198.622 138.466 198.205 136.908 198.205 135.181C198.205 133.455 198.616 131.897 199.445 130.502C200.267 129.107 201.407 128.018 202.852 127.23C204.297 126.442 205.923 126.054 207.724 126.054C209.524 126.054 211.15 126.448 212.595 127.23C214.04 128.018 215.18 129.1 216.002 130.489C216.825 131.878 217.242 133.436 217.242 135.181C217.242 136.927 216.831 138.485 216.002 139.874C215.174 141.262 214.04 142.345 212.595 143.133C211.15 143.921 209.524 144.309 207.724 144.309C205.923 144.309 204.297 143.915 202.852 143.133ZM210.907 140.624C211.847 140.093 212.589 139.348 213.131 138.391C213.666 137.434 213.94 136.37 213.94 135.181C213.94 133.993 213.673 132.929 213.131 131.972C212.589 131.015 211.854 130.277 210.907 129.739C209.966 129.207 208.901 128.938 207.724 128.938C206.546 128.938 205.487 129.207 204.54 129.739C203.6 130.27 202.858 131.015 202.316 131.972C201.775 132.929 201.507 133.999 201.507 135.181C201.507 136.364 201.775 137.434 202.316 138.391C202.852 139.348 203.593 140.093 204.54 140.624C205.481 141.156 206.54 141.425 207.724 141.425C208.907 141.425 209.96 141.156 210.907 140.624Z" fill="#193E3C"/>
<path d="M241.374 126.309L233.674 144.058H230.441L222.717 126.309H226.274L232.154 139.998L238.085 126.309H241.368H241.374Z" fill="#193E3C"/>
<path d="M261.547 141.302V144.067H248.291V126.318H261.192V129.084H251.574V133.701H260.108V136.416H251.574V141.308H261.547V141.302Z" fill="#193E3C"/>
<path d="M281.821 144.058L278.208 138.859C278.059 138.878 277.828 138.884 277.529 138.884H273.543V144.058H270.26V126.309H277.529C279.062 126.309 280.395 126.559 281.529 127.072C282.662 127.579 283.535 128.305 284.139 129.256C284.743 130.201 285.048 131.327 285.048 132.628C285.048 133.929 284.724 135.112 284.076 136.075C283.429 137.038 282.5 137.758 281.286 138.227L285.354 144.058H281.821ZM280.632 130.013C279.89 129.406 278.806 129.099 277.374 129.099H273.536V136.175H277.374C278.806 136.175 279.89 135.869 280.632 135.249C281.373 134.63 281.74 133.76 281.74 132.628C281.74 131.496 281.373 130.626 280.632 130.019V130.013Z" fill="#193E3C"/>
<path d="M295.292 143.736C294.022 143.348 293.019 142.835 292.277 142.191L293.411 139.632C294.134 140.208 295.024 140.677 296.077 141.04C297.13 141.403 298.183 141.584 299.248 141.584C300.562 141.584 301.54 141.371 302.188 140.952C302.836 140.527 303.16 139.97 303.16 139.276C303.16 138.769 302.979 138.35 302.618 138.018C302.257 137.687 301.796 137.43 301.241 137.242C300.687 137.055 299.927 136.848 298.968 136.61C297.622 136.291 296.532 135.966 295.697 135.647C294.863 135.328 294.146 134.821 293.554 134.139C292.956 133.457 292.657 132.531 292.657 131.362C292.657 130.379 292.925 129.491 293.455 128.684C293.984 127.883 294.782 127.245 295.853 126.77C296.924 126.294 298.233 126.063 299.778 126.063C300.855 126.063 301.914 126.2 302.961 126.469C304.001 126.738 304.904 127.126 305.664 127.633L304.63 130.192C303.858 129.735 303.048 129.391 302.207 129.153C301.366 128.915 300.55 128.797 299.759 128.797C298.463 128.797 297.498 129.016 296.868 129.453C296.239 129.891 295.922 130.473 295.922 131.205C295.922 131.712 296.102 132.125 296.463 132.45C296.825 132.769 297.286 133.026 297.84 133.213C298.395 133.401 299.155 133.608 300.114 133.845C301.428 134.152 302.506 134.465 303.347 134.796C304.188 135.128 304.91 135.628 305.509 136.304C306.107 136.98 306.406 137.893 306.406 139.044C306.406 140.026 306.138 140.915 305.608 141.709C305.079 142.504 304.275 143.136 303.197 143.611C302.12 144.087 300.805 144.318 299.26 144.318C297.896 144.318 296.582 144.124 295.311 143.736H295.292Z" fill="#193E3C"/>
<path d="M282.277 25.0123C282.277 25.0123 282.246 24.9623 282.233 24.931C282.37 24.2991 282.451 23.6547 282.457 23.0041C282.47 21.7091 282.165 20.6956 281.548 19.9949C280.738 19.0752 279.498 18.7937 278.396 18.6436C276.602 18.3933 274.783 18.3308 272.983 18.4496C272.434 18.1368 271.874 17.824 271.263 17.5362C270.397 17.1296 269.338 16.6353 268.161 16.7417C266.803 16.8731 265.719 17.8115 264.928 18.6185C263.67 18.5122 262.492 18.9814 261.508 19.4694C260.268 20.0825 259.085 20.827 257.988 21.6715C257.478 22.0657 256.961 22.5224 256.687 23.1542C256.356 23.9175 256.456 24.7496 256.599 25.4628C256.936 27.1644 257.528 28.8035 258.362 30.3238C258.643 30.8368 258.948 31.331 259.272 31.819C259.265 31.8628 259.247 31.9066 259.247 31.9504C259.259 33.4331 259.278 35.1223 260.007 36.6175C260.362 37.3494 260.866 37.9813 261.29 38.463C258.823 40.1897 256.101 40.9405 253.217 41.7162C252.613 41.8789 252.002 42.0478 251.392 42.223C251.747 41.3659 251.884 40.4087 251.772 39.4953C251.647 38.4693 251.211 37.4808 250.551 36.6863C251.018 36.6425 251.473 36.5049 251.865 36.2734C253.042 35.579 253.528 34.2589 253.796 33.3267C254.706 30.1361 254.282 26.9392 252.656 24.7808L252.507 24.5869C252.251 24.2616 252.015 23.9488 252.002 23.5671C252.002 23.3419 252.002 22.9728 251.715 22.6663C251.46 22.3973 251.124 22.3472 251.012 22.3284C250.582 22.2721 250.183 22.3284 249.809 22.4473C249.523 21.7654 248.975 21.2023 248.296 20.9083C248.246 20.8895 248.19 20.8833 248.134 20.877C248.134 20.877 248.134 20.8708 248.121 20.8645C247.143 19.9949 245.779 20.8144 245.33 21.0772C243.923 21.9155 242.409 22.5724 240.721 23.0667C240.285 23.1918 239.786 23.3357 239.35 23.6422C238.721 24.0802 238.372 24.7934 238.466 25.4628C238.515 25.7818 238.653 26.0571 238.752 26.251C238.852 26.445 238.976 26.6264 239.107 26.8016C238.802 26.8704 238.497 26.9517 238.198 27.0518C237.288 27.3459 237.201 27.9465 237.207 28.1967C237.22 28.497 237.363 28.7285 237.444 28.8536L241.07 34.4716C241.699 35.4476 242.415 36.5549 243.474 37.3056C244.359 37.9375 245.443 38.2566 246.526 38.2566C247.61 38.2566 248.582 37.9563 249.442 37.387C250.002 38.0126 250.376 38.8134 250.476 39.6454C250.594 40.5964 250.357 41.5974 249.828 42.3981C249.759 42.5045 249.735 42.6171 249.735 42.7297C248.028 43.299 246.34 44.0185 244.732 45.1008C243.293 46.0768 240.827 48.1663 240.472 51.2318C240.428 51.5884 240.683 51.9137 241.045 51.9575C241.07 51.9575 241.094 51.9575 241.119 51.9575C241.443 51.9575 241.724 51.7136 241.761 51.382C242.054 48.8357 244.203 47.034 245.455 46.1831C247.972 44.4752 250.806 43.7119 253.547 42.9737C256.469 42.1854 259.477 41.3534 262.181 39.414C263.589 40.8028 265.065 41.76 266.591 42.2543C266.903 42.3544 267.301 42.467 267.725 42.467C267.806 42.467 267.893 42.467 267.974 42.4545C268.41 42.4107 268.79 42.2417 269.133 42.0916C269.301 42.0165 269.475 41.9415 269.656 41.8539C269.731 41.9352 269.824 42.004 269.936 42.0353C271.263 42.4232 272.64 42.6546 274.023 42.7297C274.191 42.736 274.372 42.7485 274.559 42.7485C274.889 42.7485 275.238 42.7297 275.586 42.6609C276.16 42.5483 276.664 42.3231 277.156 42.1041C277.891 41.7788 278.72 41.4097 279.337 40.709C280.246 39.6642 280.377 38.2128 280.47 37.1555C280.47 37.1555 280.47 37.1492 280.47 37.143C281.38 36.874 282.302 36.5674 283.006 35.8104C283.685 35.0785 284.04 33.9899 284.027 32.6698C284.015 31.1996 283.622 29.8108 283.249 28.4657L282.271 24.9936L282.277 25.0123ZM250.675 23.5734H250.706V23.5922C250.706 23.5922 250.706 23.7361 250.706 23.7423C250.737 24.4368 251.149 24.9748 251.485 25.4002L251.622 25.5754C253.005 27.4084 253.348 30.1799 252.55 32.9764C252.226 34.1213 251.796 34.8157 251.211 35.1598C250.607 35.5164 249.766 35.5039 249.006 35.1285C247.654 34.4591 245.872 32.1694 245.798 30.5553C245.766 29.8671 246.122 29.3478 246.57 28.6909L246.72 28.472C246.782 28.3781 246.832 28.2843 246.894 28.1904C246.906 28.1654 246.925 28.1404 246.938 28.1154C247.255 27.6024 247.548 27.0768 247.822 26.5638C248.14 25.9695 248.445 25.4127 248.794 24.8747C249.199 24.2491 249.94 23.5671 250.675 23.5671V23.5734ZM242.994 25.7193C242.994 25.7193 243.05 25.6004 243.443 25.3877L244.564 24.7871C244.564 24.9185 244.564 25.0874 244.614 25.2501C244.396 25.3814 244.166 25.5066 243.935 25.6129C243.686 25.7318 243.399 25.8506 243.175 25.8131C243.088 25.8006 243.007 25.7318 242.994 25.7193ZM244.483 26.7953C245.673 26.2323 246.72 25.4127 247.561 24.4055C247.243 24.9185 246.95 25.444 246.676 25.957C246.427 26.42 246.178 26.8641 245.916 27.2958C245.362 27.3897 244.67 27.1957 243.991 26.9955C244.166 26.9392 244.334 26.8704 244.483 26.8016V26.7953ZM248.165 23.5734C248.314 23.3232 248.433 23.0604 248.514 22.7914C248.57 22.8915 248.613 22.9916 248.651 23.0979C248.476 23.2418 248.314 23.4045 248.165 23.5734ZM240.285 26.2448C240.148 26.0634 240.011 25.8819 239.898 25.6755C239.83 25.5441 239.755 25.4002 239.743 25.3001C239.718 25.1312 239.861 24.8935 240.085 24.7371C240.347 24.5556 240.702 24.4493 241.194 24.3116C242.876 23.8174 244.489 23.1167 245.991 22.2221C246.863 21.7028 247.162 21.7779 247.255 21.8592C247.43 22.0156 247.305 22.5474 246.981 23.0166C246.651 23.4921 246.277 23.93 245.854 24.3179C245.829 24.0864 245.754 23.8299 245.53 23.6235C245.318 23.4233 244.845 23.1542 244.047 23.5859L242.82 24.2428C242.502 24.4117 241.755 24.8184 241.692 25.6192C241.661 25.9695 241.792 26.3073 242.023 26.5764C241.524 26.5513 241.032 26.5638 240.546 26.6076C240.465 26.4825 240.372 26.3636 240.285 26.2448ZM244.222 36.2671C243.368 35.654 242.751 34.7031 242.153 33.7834L238.584 28.3156C239.132 28.1404 239.705 28.009 240.285 27.9339C240.297 27.9339 240.303 27.9339 240.316 27.9339C240.895 27.8589 241.481 27.8401 242.06 27.8776C242.484 27.9027 242.988 28.0528 243.511 28.2092C244.01 28.3594 244.539 28.5095 245.075 28.5783C244.726 29.1539 244.452 29.792 244.483 30.6178C244.577 32.7699 246.676 35.4413 248.414 36.3047C248.476 36.3359 248.545 36.361 248.613 36.3922C247.286 37.2118 245.486 37.1805 244.215 36.2671H244.222ZM280.57 20.8645C280.969 21.3149 281.162 22.0281 281.155 22.9916C281.143 24.2804 280.813 25.5754 280.227 26.7265C280.109 26.5826 279.978 26.4512 279.847 26.3261C279.685 24.7433 279.025 22.9103 278.159 21.6653C277.829 21.1898 277.461 20.6956 276.944 20.3452C276.465 20.0199 275.935 19.8635 275.437 19.7884C275.381 19.7634 275.331 19.7321 275.281 19.7071C276.265 19.7259 277.243 19.8009 278.215 19.9323C279.125 20.0575 280.04 20.2576 280.57 20.8582V20.8645ZM277.817 36.9678C277.642 37.5371 277.455 37.9688 277.144 38.2253C276.714 38.5694 276.041 38.5756 275.362 38.5381C274.029 38.4568 273.001 38.2628 272.129 37.925C271.593 37.7186 270.921 37.3682 270.341 36.8177C270.435 36.7989 270.522 36.7801 270.615 36.7551C271.699 36.5049 272.783 36.2546 273.855 35.9606C274.503 35.7791 275.182 35.5602 275.717 35.0534C276.178 34.6155 276.49 33.9148 276.384 33.2392C276.558 33.2016 276.733 33.1766 276.901 33.1391C277.461 33.0139 278.041 32.845 278.583 32.601C278.514 34.0837 278.265 35.5539 277.829 36.9741L277.817 36.9678ZM262.156 30.9431C261.981 30.4489 261.913 30.0861 261.938 29.767C261.981 29.229 262.361 28.7285 262.847 28.497C263.184 29.8233 263.776 31.087 264.604 32.1881C264.909 32.5948 265.308 33.039 265.887 33.2266C266.08 33.2892 266.274 33.3142 266.46 33.3142C267.339 33.3142 268.105 32.7261 268.516 32.4133L268.834 32.1693C269.021 32.6949 269.345 33.3017 269.992 33.5958C270.397 33.7772 270.827 33.7772 271.114 33.7772C272.441 33.7772 273.774 33.6646 275.088 33.4644C275.101 33.6646 275.001 33.9273 274.814 34.1025C274.496 34.4028 274.01 34.5592 273.5 34.7031C272.447 34.9971 271.382 35.2411 270.229 35.5039C269.226 35.7354 268.186 35.9731 267.171 36.0419C266.828 36.0669 266.436 36.0794 266.118 35.9668C265.781 35.848 265.47 35.5727 265.202 35.3287C263.726 33.9649 262.704 32.4947 262.156 30.9494V30.9431ZM264.255 23.0166C264.361 22.6975 264.498 22.3347 264.729 22.0907C265.37 21.4025 266.647 21.6277 267.6 21.9468C268.952 22.391 270.254 22.9853 271.475 23.711C271.238 23.8049 271.008 23.9175 270.796 24.0489C270.348 23.9988 269.874 24.0426 269.413 24.2115C268.796 24.443 268.217 24.8684 267.7 25.469C267.083 26.1885 266.766 26.933 266.753 27.6712C266.747 28.4845 267.121 29.1852 267.401 29.6419C267.725 30.1674 268.086 30.549 268.473 30.8055L267.737 31.3686C267.245 31.7439 266.691 32.113 266.292 31.9754C266.056 31.9003 265.831 31.6376 265.644 31.3936C263.863 29.035 263.333 25.8256 264.261 23.0104L264.255 23.0166ZM274.521 21.0209C275.306 21.0397 275.823 21.1648 276.209 21.4275C276.546 21.659 276.82 22.0281 277.088 22.416C277.642 23.2105 278.103 24.3241 278.359 25.4002C278.14 25.3064 277.929 25.2188 277.729 25.1437C276.807 24.8059 275.848 24.5494 274.883 24.3742C274.708 24.1177 274.509 23.9238 274.278 23.7736C274.048 23.6235 273.761 23.5421 273.45 23.4921C273.406 23.4233 273.344 23.3607 273.269 23.3106C272.409 22.7226 271.506 22.2033 270.566 21.7466C271.824 21.2336 273.194 20.9771 274.509 21.0146L274.521 21.0209ZM278.732 31.0057C278.184 31.4311 277.48 31.6563 276.602 31.8565C274.802 32.2632 272.958 32.4696 271.114 32.4759C270.877 32.4759 270.665 32.4759 270.528 32.4071C270.248 32.282 270.086 31.8503 269.955 31.3811C269.999 31.3435 270.042 31.2997 270.08 31.2434C270.279 30.9431 270.671 30.7179 271.263 30.5678C271.456 30.5177 271.656 30.4802 271.849 30.4364C272.279 30.3488 272.721 30.2612 273.157 30.0735C274.141 29.6606 274.945 28.8098 275.306 27.8026C275.53 27.1769 275.58 26.4888 275.468 25.8319C276.085 25.9758 276.695 26.1572 277.293 26.3762C277.966 26.6201 278.795 26.9893 279.274 27.6211C280.003 28.5783 279.748 30.2299 278.738 31.012L278.732 31.0057ZM273.911 25.2751C273.911 25.2751 273.929 25.3189 273.942 25.3376C274.253 25.957 274.309 26.7077 274.079 27.3584C273.842 28.0278 273.306 28.5908 272.659 28.8661C272.335 28.9975 271.973 29.0726 271.587 29.1539C271.369 29.1977 271.151 29.2415 270.933 29.2978C270.671 29.3666 270.441 29.4479 270.229 29.5418C270.341 29.229 270.509 28.9099 270.696 28.6033C270.852 28.3406 271.058 28.0966 271.257 27.8464C271.712 27.2896 272.235 26.6514 272.322 25.8006C272.36 25.4377 272.31 25.1124 272.185 24.8497C272.484 24.7683 272.796 24.7308 273.107 24.7558C273.325 24.7683 273.481 24.8121 273.593 24.8809C273.705 24.9498 273.811 25.0874 273.917 25.2751H273.911ZM270.534 25.3189C270.678 25.4127 270.846 25.444 271.008 25.4127C271.02 25.4502 271.033 25.5378 271.02 25.6692C270.97 26.1322 270.634 26.5451 270.242 27.0205C269.999 27.3146 269.762 27.6086 269.569 27.9339C269.276 28.4219 269.008 28.9349 268.877 29.4792C268.728 29.3228 268.597 29.1351 268.491 28.9599C268.18 28.4532 268.036 28.0528 268.036 27.6962C268.043 27.1707 268.385 26.6639 268.666 26.3324C269.039 25.8944 269.438 25.6004 269.849 25.444C270.08 25.3564 270.316 25.3251 270.528 25.3189H270.534ZM268.267 18.0492C269.083 17.9554 269.936 18.3745 270.696 18.7249C271.419 19.0627 272.073 19.4381 272.765 19.8385C271.556 20.0074 270.372 20.3577 269.282 20.9083C269.189 20.9521 269.12 21.0209 269.058 21.1022C268.709 20.9646 268.354 20.827 267.999 20.7143C266.884 20.3515 265.925 20.2702 265.14 20.4516C265.296 20.1325 265.57 19.826 265.825 19.5632C266.46 18.9063 267.32 18.1431 268.267 18.0555V18.0492ZM257.858 25.225C257.752 24.6807 257.677 24.1239 257.858 23.686C258.02 23.3106 258.412 22.9916 258.761 22.7163C259.795 21.9218 260.904 21.2274 262.069 20.6455C262.642 20.364 263.277 20.0825 263.931 19.9636C263.763 20.3327 263.67 20.7394 263.726 21.1836C263.726 21.2023 263.738 21.2211 263.744 21.2399C263.371 21.659 263.165 22.1658 263.022 22.6037C262.536 24.0802 262.405 25.6504 262.598 27.1832C261.539 27.5335 260.729 28.5283 260.642 29.6606C260.592 30.3175 260.767 30.9244 260.929 31.3748C261.134 31.9566 261.402 32.5259 261.72 33.0827C261.583 32.9263 261.458 32.7449 261.334 32.5635C260.692 31.6438 260.032 30.6929 259.496 29.7107C258.724 28.3031 258.175 26.7953 257.864 25.2188L257.858 25.225ZM268.603 40.9217C268.329 41.0406 268.074 41.1594 267.837 41.1845C267.563 41.2095 267.258 41.1282 266.99 41.0406C265.389 40.5213 263.819 39.4015 262.33 37.7123C261.925 37.2556 261.471 36.6988 261.165 36.0669C260.829 35.3662 260.68 34.5717 260.605 33.7709C260.804 34.0274 261.035 34.2777 261.327 34.4841C261.695 34.7344 262.1 34.8657 262.499 34.8657C262.642 34.8657 262.785 34.847 262.922 34.8094C263.34 35.3162 263.8 35.8104 264.318 36.2859C264.704 36.6488 265.14 37.0054 265.682 37.1993C266.049 37.3307 266.429 37.3682 266.778 37.3682C266.946 37.3682 267.108 37.362 267.258 37.3494C267.793 37.3119 268.317 37.2306 268.846 37.1305C269.482 37.9438 270.372 38.6069 271.456 39.0574C270.827 39.8769 269.787 40.3899 268.597 40.9217H268.603ZM276.633 40.9217C276.184 41.1219 275.761 41.3033 275.331 41.3909C274.92 41.4722 274.465 41.4597 274.079 41.441C273.101 41.3909 272.129 41.2533 271.182 41.0281C271.787 40.6214 272.353 40.1209 272.752 39.464C273.493 39.6454 274.309 39.7706 275.275 39.8269C275.456 39.8394 275.642 39.8456 275.836 39.8456C276.571 39.8456 277.337 39.7268 277.954 39.2263C278.458 38.8196 278.732 38.2566 278.938 37.6748C278.994 37.6497 279.056 37.631 279.118 37.6059C279.019 38.5131 278.844 39.3014 278.359 39.8582C277.935 40.3461 277.275 40.6339 276.633 40.9217ZM282.053 34.9346C281.554 35.4726 280.775 35.7041 279.947 35.9481C279.76 36.0044 279.573 36.0607 279.386 36.117C279.729 34.6718 279.897 33.1954 279.891 31.7064C280.807 30.768 281.174 29.3791 280.9 28.1404C281.118 27.7963 281.324 27.4397 281.498 27.0706L281.996 28.8348C282.352 30.0923 282.719 31.3936 282.732 32.6886C282.732 33.3705 282.626 34.3152 282.053 34.9283V34.9346Z" fill="#FF7CD3"/>
<path d="M262.979 49.4357C263.197 49.4232 263.402 49.3043 263.508 49.1104C263.62 48.9165 263.626 48.685 263.527 48.4848C261.976 45.4443 258.431 43.6613 255.067 44.2306C254.145 44.387 252.625 45.3943 252.407 46.4515C252.233 47.3086 252.333 48.1657 252.439 48.8977C252.706 50.7182 253.149 52.52 253.74 54.253C253.959 54.8973 254.251 55.6168 254.905 56.0672C255.304 56.3425 255.74 56.4051 256.101 56.2424C256.4 56.111 256.569 55.8733 256.668 55.7357L257.154 55.0412C258.593 56.2111 260.431 56.868 262.281 56.868C262.505 56.868 262.729 56.8555 262.954 56.8367C263.116 56.8242 263.489 56.7929 263.776 56.4989C264.087 56.1798 264.087 55.7482 264.087 55.5667C264.075 53.4834 263.402 51.2375 262.281 49.4545L262.972 49.4232L262.979 49.4357Z" fill="#FF7CD3"/>
<path d="M242.675 45.4906C243.516 42.9193 240.533 38.5963 238.19 37.0511C237.368 36.513 236.832 36.7445 236.583 36.926C236.265 37.1574 236.16 37.5078 236.097 37.6955L235.686 38.9967C234.745 38.2523 233.381 38.0208 232.005 38.3774C230.833 38.6839 229.824 39.3283 228.809 40.0227C227.75 40.7485 227.806 41.4617 227.937 41.8308C228.086 42.2562 228.441 42.4877 228.653 42.6253C231.02 44.1768 233.475 45.7721 236.16 46.892C236.857 47.1798 237.617 47.455 238.427 47.4988C238.601 47.5114 238.77 47.5114 238.938 47.5114C241.454 47.5114 242.358 46.429 242.663 45.4906H242.675Z" fill="#FF7CD3"/>
<path d="M252.637 14.0191C251.983 13.6375 250.619 12.843 249.61 13.9941C249.168 14.4633 248.981 15.0577 248.831 15.5394C248.744 15.8146 248.626 16.1963 248.694 16.6154C248.813 17.3161 249.411 17.7541 249.697 17.9605C250.171 18.3046 250.731 18.68 251.417 18.7988C251.554 18.8239 251.684 18.8364 251.821 18.8364C252.532 18.8364 253.186 18.5048 253.528 17.948C253.721 17.6227 253.79 17.2723 253.834 17.0221C253.939 16.4778 254.133 15.458 253.528 14.7073C253.285 14.4008 252.974 14.2193 252.631 14.0254L252.637 14.0191ZM252.563 16.7781C252.532 16.9533 252.494 17.1535 252.419 17.2723C252.301 17.4725 251.965 17.5726 251.647 17.5163C251.23 17.4412 250.819 17.1597 250.463 16.9032C250.326 16.8031 250.009 16.5716 249.978 16.3902C249.959 16.2839 250.021 16.0899 250.071 15.9335C250.196 15.5394 250.32 15.139 250.557 14.8887C250.563 14.8762 250.576 14.87 250.582 14.8575C250.669 14.7511 250.769 14.6948 250.906 14.6948C251.136 14.6948 251.473 14.8512 252.064 15.1953C252.239 15.2954 252.419 15.4017 252.513 15.5144C252.712 15.7646 252.65 16.2651 252.556 16.7718L252.563 16.7781Z" fill="#FF7CD3"/>
<path d="M260.144 8.74537C259.353 8.41379 258.562 8.43256 257.964 8.80167C257.222 9.26463 256.842 10.0466 256.936 10.8912C257.042 11.8296 257.69 12.6429 258.593 12.9558C258.886 13.0559 259.185 13.1059 259.484 13.1059C259.976 13.1059 260.449 12.9683 260.848 12.6993C261.564 12.2113 261.944 11.3104 261.77 10.4971C261.614 9.76512 260.991 9.08946 260.15 8.73286L260.144 8.74537ZM260.119 11.6232C259.826 11.8234 259.403 11.8609 259.016 11.7296C258.593 11.5794 258.269 11.1853 258.225 10.7473C258.2 10.5033 258.25 10.1593 258.649 9.90901C258.749 9.84645 258.886 9.81517 259.041 9.81517C259.222 9.81517 259.428 9.85896 259.639 9.94655C260.075 10.1342 260.431 10.4783 260.493 10.7849C260.555 11.0727 260.393 11.4355 260.119 11.6232Z" fill="#FF7CD3"/>
</g>
<defs>
<clipPath id="clip0_1830_3372">
<rect width="470.174" height="167.227" fill="white" transform="translate(0 0.443359)"/>
</clipPath>
</defs>
</svg>
